<svg width="800" height="600" xmlns="http://www.w3.org/2000/svg">
<rect width="100%" height="100%" fill="white"/>
<defs>
<marker id="arrowhead" markerWidth="10" markerHeight="7" refX="9" refY="3.5" orient="auto">
<polygon points="0 0, 10 3.5, 0 7" fill="black"/>
</marker>
</defs>
<line x1="225.0" y1="50.0" x2="225.0" y2="192.85714285714286" stroke="black" stroke-width="2" marker-end="url(#arrowhead)"/>
<line x1="225.0" y1="50.0" x2="50.0" y2="335.7142857142857" stroke="black" stroke-width="2" marker-end="url(#arrowhead)"/>
<line x1="225.0" y1="192.85714285714286" x2="400.0" y2="264.2857142857143" stroke="black" stroke-width="2" marker-end="url(#arrowhead)"/>
<line x1="400.0" y1="264.2857142857143" x2="575.0" y2="50.0" stroke="black" stroke-width="2" marker-end="url(#arrowhead)"/>
<line x1="575.0" y1="50.0" x2="750.0" y2="121.42857142857143" stroke="black" stroke-width="2" marker-end="url(#arrowhead)"/>
<line x1="50.0" y1="335.7142857142857" x2="400.0" y2="407.14285714285717" stroke="black" stroke-width="2" marker-end="url(#arrowhead)"/>
<line x1="400.0" y1="407.14285714285717" x2="225.0" y2="550.0" stroke="black" stroke-width="2" marker-end="url(#arrowhead)"/>
<circle cx="225.0" cy="50.0" r="8" fill="red" stroke="black" stroke-width="1"/>
<text x="235.0" y="54.0" font-family="Arial" font-size="10" fill="black">S</text>
<text x="225.0" y="37.0" font-family="Arial" font-size="8" fill="gray" text-anchor="middle">(2,1)</text>
<circle cx="225.0" cy="192.85714285714286" r="6" fill="blue" stroke="black" stroke-width="1"/>
<text x="233.0" y="196.85714285714286" font-family="Arial" font-size="10" fill="black">S1</text>
<text x="225.0" y="181.85714285714286" font-family="Arial" font-size="8" fill="gray" text-anchor="middle">(2,3)</text>
<circle cx="575.0" cy="50.0" r="6" fill="blue" stroke="black" stroke-width="1"/>
<text x="583.0" y="54.0" font-family="Arial" font-size="10" fill="black">S2</text>
<text x="575.0" y="39.0" font-family="Arial" font-size="8" fill="gray" text-anchor="middle">(4,1)</text>
<circle cx="50.0" cy="335.7142857142857" r="6" fill="blue" stroke="black" stroke-width="1"/>
<text x="58.0" y="339.7142857142857" font-family="Arial" font-size="10" fill="black">S3</text>
<text x="50.0" y="324.7142857142857" font-family="Arial" font-size="8" fill="gray" text-anchor="middle">(1,5)</text>
<circle cx="400.0" cy="407.14285714285717" r="6" fill="green" stroke="black" stroke-width="1"/>
<text x="408.0" y="411.14285714285717" font-family="Arial" font-size="10" fill="black">T1</text>
<text x="400.0" y="396.14285714285717" font-family="Arial" font-size="8" fill="gray" text-anchor="middle">(3,6)</text>
<circle cx="750.0" cy="121.42857142857143" r="6" fill="green" stroke="black" stroke-width="1"/>
<text x="758.0" y="125.42857142857143" font-family="Arial" font-size="10" fill="black">T2</text>
<text x="750.0" y="110.42857142857143" font-family="Arial" font-size="8" fill="gray" text-anchor="middle">(5,2)</text>
<circle cx="225.0" cy="550.0" r="6" fill="green" stroke="black" stroke-width="1"/>
<text x="233.0" y="554.0" font-family="Arial" font-size="10" fill="black">T3</text>
<text x="225.0" y="539.0" font-family="Arial" font-size="8" fill="gray" text-anchor="middle">(2,8)</text>
<circle cx="400.0" cy="264.2857142857143" r="6" fill="blue" stroke="black" stroke-width="1"/>
<text x="408.0" y="268.2857142857143" font-family="Arial" font-size="10" fill="black">S4</text>
<text x="400.0" y="253.28571428571428" font-family="Arial" font-size="8" fill="gray" text-anchor="middle">(3,4)</text>
<text x="20" y="20" font-family="Arial" font-size="12" font-weight="bold">Legend:</text>
<circle cx="20" cy="36" r="4" fill="red" stroke="black"/>
<text x="30" y="40" font-family="Arial" font-size="10">Source</text>
<circle cx="20" cy="56" r="4" fill="blue" stroke="black"/>
<text x="30" y="60" font-family="Arial" font-size="10">Steiner</text>
<circle cx="20" cy="76" r="4" fill="green" stroke="black"/>
<text x="30" y="80" font-family="Arial" font-size="10">Terminal</text>
<text x="20" y="110" font-family="Arial" font-size="10" font-weight="bold">Statistics:</text>
<text x="20" y="125" font-family="Arial" font-size="9">Total Nodes: 8</text>
<text x="20" y="140" font-family="Arial" font-size="9">Terminals: 3</text>
<text x="20" y="155" font-family="Arial" font-size="9">Steiner: 4</text>
<text x="20" y="170" font-family="Arial" font-size="9">Wirelength: 21.00</text>
</svg>