<svg width="800" height="400" xmlns="http://www.w3.org/2000/svg">
<style>
  .node-label { font: 8px sans-serif; fill: #333; }
  .delay-label { font: 7px sans-serif; fill: #666; }
  .title { font: 14px sans-serif; fill: #333; font-weight: bold; }
  .comparison-label { font: 10px sans-serif; fill: #333; }
</style>
<rect width="100%" height="100%" fill="white"/>
<text x="200" y="20" class="title" text-anchor="middle">Linear Model</text>
<g class="clock-tree">
<circle cx="0 + 10 + 290.0" cy="0 + 40 + 240.0" r="8" fill="#F44336" stroke="#333" stroke-width="1"/>
<text x="0 + 10 + 290.0" y="0 + 40 + 227.0" class="node-label" text-anchor="middle">root1</text>
<text x="0 + 10 + 290.0" y="0 + 40 + 260.0" class="delay-label" text-anchor="middle">d:0.0</text>
<g class="analysis-info">
<rect x="0 + 10 + 10" y="0 + 40 + 10" width="220" height="140" fill="white" stroke="#ccc" stroke-width="1" rx="0 + 10 + 5"/>
<rect x="0 + 10 + 10" y="0 + 40 + 10" width="220" height="20" fill="#f0f0f0" stroke="#ccc" stroke-width="1" rx="0 + 10 + 5"/>
<text x="0 + 10 + 20" y="0 + 40 + 25" font-family="0 + 40 + sans-serif" font-size="12" font-weight="bold" fill="#333">Clock Tree Analysis</text>
<text x="0 + 10 + 20" y="0 + 40 + 45" font-family="0 + 40 + monospace" font-size="11" fill="#333">
<tspan x="0 + 10 + 20" y="0 + 40 + 61">Delay Model: Unknown</tspan>
<tspan x="0 + 10 + 20" y="0 + 40 + 77">Max Delay: 5.000</tspan>
<tspan x="0 + 10 + 20" y="0 + 40 + 93">Min Delay: 0.000</tspan>
<tspan x="0 + 10 + 20" y="0 + 40 + 109">Skew: 0.100</tspan>
<tspan x="0 + 10 + 20" y="0 + 40 + 125">Total Wirelength: 100.0</tspan>
<tspan x="0 + 10 + 20" y="0 + 40 + 141">Sinks: 0</tspan>
</text>
</g>
<text x="600" y="20" class="title" text-anchor="middle">Elmore Model</text>
<g class="clock-tree">
<circle cx="400 + 10 + 315.0" cy="0 + 40 + 118.57142857142857" r="8" fill="#F44336" stroke="#333" stroke-width="1"/>
<text x="400 + 10 + 315.0" y="0 + 40 + 105.57142857142857" class="node-label" text-anchor="middle">root2</text>
<text x="400 + 10 + 315.0" y="0 + 40 + 138.57142857142856" class="delay-label" text-anchor="middle">d:0.0</text>
<g class="analysis-info">
<rect x="400 + 10 + 10" y="0 + 40 + 10" width="220" height="140" fill="white" stroke="#ccc" stroke-width="1" rx="400 + 10 + 5"/>
<rect x="400 + 10 + 10" y="0 + 40 + 10" width="220" height="20" fill="#f0f0f0" stroke="#ccc" stroke-width="1" rx="400 + 10 + 5"/>
<text x="400 + 10 + 20" y="0 + 40 + 25" font-family="0 + 40 + sans-serif" font-size="12" font-weight="bold" fill="#333">Clock Tree Analysis</text>
<text x="400 + 10 + 20" y="0 + 40 + 45" font-family="0 + 40 + monospace" font-size="11" fill="#333">
<tspan x="400 + 10 + 20" y="0 + 40 + 61">Delay Model: Unknown</tspan>
<tspan x="400 + 10 + 20" y="0 + 40 + 77">Max Delay: 5.000</tspan>
<tspan x="400 + 10 + 20" y="0 + 40 + 93">Min Delay: 0.000</tspan>
<tspan x="400 + 10 + 20" y="0 + 40 + 109">Skew: 0.100</tspan>
<tspan x="400 + 10 + 20" y="0 + 40 + 125">Total Wirelength: 100.0</tspan>
<tspan x="400 + 10 + 20" y="0 + 40 + 141">Sinks: 0</tspan>
</text>
</g>
</svg>