<svg xmlns="http://www.w3.org/2000/svg" width="800" height="600" style="background-color:#f8f9fa;">
<rect x="354.11622276029055" y="246.61016949152543" width="4.842615012106537" height="4.842615012106537" fill="#4a90d9" stroke="#357abd" stroke-width="2" opacity="0.5"/>
<rect x="530.6295399515739" y="370.5811138014528" width="4.842615012106537" height="4.842615012106537" fill="#4a90d9" stroke="#357abd" stroke-width="2" opacity="0.5"/>
<rect x="79.53995157384988" y="122.63922518159808" width="4.842615012106537" height="4.842615012106537" fill="#4a90d9" stroke="#357abd" stroke-width="2" opacity="0.5"/>
<rect x="256.05326876513317" y="432.5665859564165" width="4.842615012106537" height="4.842615012106537" fill="#4a90d9" stroke="#357abd" stroke-width="2" opacity="0.5"/>
<rect x="432.5665859564165" y="184.62469733656172" width="4.842615012106537" height="4.842615012106537" fill="#4a90d9" stroke="#357abd" stroke-width="2" opacity="0.5"/>
<rect x="138.37772397094432" y="308.59564164648907" width="4.842615012106537" height="4.842615012106537" fill="#4a90d9" stroke="#357abd" stroke-width="2" opacity="0.5"/>
<rect x="314.8910411622276" y="60.65375302663438" width="4.842615012106537" height="4.842615012106537" fill="#4a90d9" stroke="#357abd" stroke-width="2" opacity="0.5"/>
<rect x="491.4043583535109" y="533.2929782082324" width="4.842615012106537" height="4.842615012106537" fill="#e74c3c" stroke="#c0392b" stroke-width="2" opacity="0.7"/>
<rect x="197.21549636803874" y="285.3510895883777" width="4.842615012106537" height="4.842615012106537" fill="#e74c3c" stroke="#c0392b" stroke-width="2" opacity="0.7"/>
<rect x="373.728813559322" y="409.3220338983051" width="4.842615012106537" height="4.842615012106537" fill="#e74c3c" stroke="#c0392b" stroke-width="2" opacity="0.7"/>
<rect x="550.2421307506054" y="161.38014527845036" width="4.842615012106537" height="4.842615012106537" fill="#e74c3c" stroke="#c0392b" stroke-width="2" opacity="0.7"/>
<rect x="99.15254237288136" y="471.30750605326875" width="4.842615012106537" height="4.842615012106537" fill="#e74c3c" stroke="#c0392b" stroke-width="2" opacity="0.7"/>
<rect x="275.66585956416463" y="223.36561743341406" width="4.842615012106537" height="4.842615012106537" fill="#e74c3c" stroke="#c0392b" stroke-width="2" opacity="0.7"/>
<rect x="452.17917675544794" y="347.3365617433414" width="4.842615012106537" height="4.842615012106537" fill="#e74c3c" stroke="#c0392b" stroke-width="2" opacity="0.7"/>
<rect x="157.99031476997578" y="99.39467312348665" width="4.842615012106537" height="4.842615012106537" fill="#e74c3c" stroke="#c0392b" stroke-width="2" opacity="0.7"/>
<rect x="334.5036319612591" y="502.3002421307506" width="4.842615012106537" height="4.842615012106537" fill="#e74c3c" stroke="#c0392b" stroke-width="2" opacity="0.7"/>
<rect x="511.0169491525424" y="254.35835351089588" width="4.842615012106537" height="4.842615012106537" fill="#e74c3c" stroke="#c0392b" stroke-width="2" opacity="0.7"/>
<rect x="216.8280871670702" y="378.3292978208233" width="4.842615012106537" height="4.842615012106537" fill="#e74c3c" stroke="#c0392b" stroke-width="2" opacity="0.7"/>
<rect x="393.3414043583535" y="130.38740920096853" width="4.842615012106537" height="4.842615012106537" fill="#e74c3c" stroke="#c0392b" stroke-width="2" opacity="0.7"/>
<rect x="569.8547215496368" y="440.31476997578693" width="4.842615012106537" height="4.842615012106537" fill="#e74c3c" stroke="#c0392b" stroke-width="2" opacity="0.7"/>
<rect x="66.46489104116223" y="192.37288135593218" width="4.842615012106537" height="4.842615012106537" fill="#4a90d9" stroke="#357abd" stroke-width="2" opacity="0.5"/>
<rect x="242.97820823244552" y="316.3438256658595" width="4.842615012106537" height="4.842615012106537" fill="#4a90d9" stroke="#357abd" stroke-width="2" opacity="0.5"/>
<rect x="419.49152542372883" y="68.40193704600483" width="4.842615012106537" height="4.842615012106537" fill="#4a90d9" stroke="#357abd" stroke-width="2" opacity="0.5"/>
<rect x="125.30266343825666" y="517.7966101694915" width="4.842615012106537" height="4.842615012106537" fill="#4a90d9" stroke="#357abd" stroke-width="2" opacity="0.5"/>
<rect x="301.8159806295399" y="269.8547215496368" width="4.842615012106537" height="4.842615012106537" fill="#4a90d9" stroke="#357abd" stroke-width="2" opacity="0.5"/>
<rect x="478.32929782082323" y="393.8256658595642" width="4.842615012106537" height="4.842615012106537" fill="#4a90d9" stroke="#357abd" stroke-width="2" opacity="0.5"/>
<rect x="184.1404358353511" y="145.88377723970945" width="4.842615012106537" height="4.842615012106537" fill="#4a90d9" stroke="#357abd" stroke-width="2" opacity="0.5"/>
<rect x="360.6537530266344" y="455.81113801452784" width="4.842615012106537" height="4.842615012106537" fill="#4a90d9" stroke="#357abd" stroke-width="2" opacity="0.5"/>
<rect x="537.1670702179176" y="207.86924939467315" width="4.842615012106537" height="4.842615012106537" fill="#4a90d9" stroke="#357abd" stroke-width="2" opacity="0.5"/>
<rect x="86.07748184019371" y="331.8401937046005" width="4.842615012106537" height="4.842615012106537" fill="#4a90d9" stroke="#357abd" stroke-width="2" opacity="0.5"/>
<rect x="262.590799031477" y="83.89830508474574" width="4.842615012106537" height="4.842615012106537" fill="#4a90d9" stroke="#357abd" stroke-width="2" opacity="0.5"/>
<rect x="439.1041162227603" y="486.80387409200966" width="4.842615012106537" height="4.842615012106537" fill="#4a90d9" stroke="#357abd" stroke-width="2" opacity="0.5"/>
<rect x="144.91525423728814" y="238.86198547215497" width="4.842615012106537" height="4.842615012106537" fill="#4a90d9" stroke="#357abd" stroke-width="2" opacity="0.5"/>
<rect x="321.42857142857144" y="362.8329297820823" width="4.842615012106537" height="4.842615012106537" fill="#4a90d9" stroke="#357abd" stroke-width="2" opacity="0.5"/>
<rect x="497.94188861985475" y="114.89104116222762" width="4.842615012106537" height="4.842615012106537" fill="#4a90d9" stroke="#357abd" stroke-width="2" opacity="0.5"/>
<rect x="203.75302663438256" y="424.818401937046" width="4.842615012106537" height="4.842615012106537" fill="#4a90d9" stroke="#357abd" stroke-width="2" opacity="0.5"/>
<rect x="380.26634382566584" y="176.87651331719127" width="4.842615012106537" height="4.842615012106537" fill="#4a90d9" stroke="#357abd" stroke-width="2" opacity="0.5"/>
<rect x="556.7796610169491" y="300.8474576271186" width="4.842615012106537" height="4.842615012106537" fill="#4a90d9" stroke="#357abd" stroke-width="2" opacity="0.5"/>
<rect x="105.69007263922518" y="52.90556900726392" width="4.842615012106537" height="4.842615012106537" fill="#4a90d9" stroke="#357abd" stroke-width="2" opacity="0.5"/>
<rect x="282.2033898305085" y="542.9782082324455" width="4.842615012106537" height="4.842615012106537" fill="#4a90d9" stroke="#357abd" stroke-width="2" opacity="0.5"/>
<rect x="458.71670702179176" y="295.0363196125908" width="4.842615012106537" height="4.842615012106537" fill="#4a90d9" stroke="#357abd" stroke-width="2" opacity="0.5"/>
<rect x="164.5278450363196" y="419.0072639225182" width="4.842615012106537" height="4.842615012106537" fill="#4a90d9" stroke="#357abd" stroke-width="2" opacity="0.5"/>
<rect x="341.0411622276029" y="171.06537530266343" width="4.842615012106537" height="4.842615012106537" fill="#4a90d9" stroke="#357abd" stroke-width="2" opacity="0.5"/>
<rect x="517.5544794188862" y="480.9927360774818" width="4.842615012106537" height="4.842615012106537" fill="#4a90d9" stroke="#357abd" stroke-width="2" opacity="0.5"/>
<rect x="223.36561743341403" y="233.05084745762713" width="4.842615012106537" height="4.842615012106537" fill="#4a90d9" stroke="#357abd" stroke-width="2" opacity="0.5"/>
<rect x="399.87893462469737" y="357.0217917675545" width="4.842615012106537" height="4.842615012106537" fill="#4a90d9" stroke="#357abd" stroke-width="2" opacity="0.5"/>
<rect x="576.3922518159807" y="109.07990314769978" width="4.842615012106537" height="4.842615012106537" fill="#4a90d9" stroke="#357abd" stroke-width="2" opacity="0.5"/>
<rect x="55.569007263922515" y="511.9854721549637" width="4.842615012106537" height="4.842615012106537" fill="#4a90d9" stroke="#357abd" stroke-width="2" opacity="0.5"/>
<rect x="232.08232445520582" y="264.04358353510895" width="4.842615012106537" height="4.842615012106537" fill="#4a90d9" stroke="#357abd" stroke-width="2" opacity="0.5"/>
<rect x="408.5956416464891" y="388.01452784503635" width="4.842615012106537" height="4.842615012106537" fill="#4a90d9" stroke="#357abd" stroke-width="2" opacity="0.5"/>
<rect x="114.40677966101696" y="140.0726392251816" width="4.842615012106537" height="4.842615012106537" fill="#4a90d9" stroke="#357abd" stroke-width="2" opacity="0.5"/>
<rect x="290.9200968523003" y="450.0" width="4.842615012106537" height="4.842615012106537" fill="#4a90d9" stroke="#357abd" stroke-width="2" opacity="0.5"/>
<rect x="467.4334140435835" y="202.05811138014525" width="4.842615012106537" height="4.842615012106537" fill="#4a90d9" stroke="#357abd" stroke-width="2" opacity="0.5"/>
<rect x="173.24455205811137" y="326.0290556900726" width="4.842615012106537" height="4.842615012106537" fill="#4a90d9" stroke="#357abd" stroke-width="2" opacity="0.5"/>
<rect x="349.7578692493947" y="78.0871670702179" width="4.842615012106537" height="4.842615012106537" fill="#4a90d9" stroke="#357abd" stroke-width="2" opacity="0.5"/>
<rect x="526.271186440678" y="527.4818401937046" width="4.842615012106537" height="4.842615012106537" fill="#4a90d9" stroke="#357abd" stroke-width="2" opacity="0.5"/>
<rect x="75.181598062954" y="279.53995157384986" width="4.842615012106537" height="4.842615012106537" fill="#4a90d9" stroke="#357abd" stroke-width="2" opacity="0.5"/>
<rect x="251.6949152542373" y="403.51089588377727" width="4.842615012106537" height="4.842615012106537" fill="#4a90d9" stroke="#357abd" stroke-width="2" opacity="0.5"/>
<rect x="428.2082324455206" y="155.56900726392251" width="4.842615012106537" height="4.842615012106537" fill="#4a90d9" stroke="#357abd" stroke-width="2" opacity="0.5"/>
<rect x="134.01937046004844" y="465.4963680387409" width="4.842615012106537" height="4.842615012106537" fill="#4a90d9" stroke="#357abd" stroke-width="2" opacity="0.5"/>
<rect x="310.53268765133174" y="217.55447941888622" width="4.842615012106537" height="4.842615012106537" fill="#4a90d9" stroke="#357abd" stroke-width="2" opacity="0.5"/>
<rect x="487.046004842615" y="341.52542372881356" width="4.842615012106537" height="4.842615012106537" fill="#4a90d9" stroke="#357abd" stroke-width="2" opacity="0.5"/>
<rect x="192.85714285714286" y="93.58353510895881" width="4.842615012106537" height="4.842615012106537" fill="#4a90d9" stroke="#357abd" stroke-width="2" opacity="0.5"/>
<rect x="369.37046004842614" y="496.48910411622273" width="4.842615012106537" height="4.842615012106537" fill="#4a90d9" stroke="#357abd" stroke-width="2" opacity="0.5"/>
<rect x="545.8837772397094" y="248.54721549636804" width="4.842615012106537" height="4.842615012106537" fill="#4a90d9" stroke="#357abd" stroke-width="2" opacity="0.5"/>
<rect x="94.79418886198548" y="372.5181598062954" width="4.842615012106537" height="4.842615012106537" fill="#4a90d9" stroke="#357abd" stroke-width="2" opacity="0.5"/>
<rect x="271.30750605326875" y="124.57627118644069" width="4.842615012106537" height="4.842615012106537" fill="#4a90d9" stroke="#357abd" stroke-width="2" opacity="0.5"/>
<rect x="447.82082324455206" y="434.5036319612591" width="4.842615012106537" height="4.842615012106537" fill="#4a90d9" stroke="#357abd" stroke-width="2" opacity="0.5"/>
<rect x="153.6319612590799" y="186.56174334140434" width="4.842615012106537" height="4.842615012106537" fill="#4a90d9" stroke="#357abd" stroke-width="2" opacity="0.5"/>
<rect x="330.1452784503632" y="310.5326876513317" width="4.842615012106537" height="4.842615012106537" fill="#4a90d9" stroke="#357abd" stroke-width="2" opacity="0.5"/>
<rect x="506.6585956416465" y="62.59079903147699" width="4.842615012106537" height="4.842615012106537" fill="#4a90d9" stroke="#357abd" stroke-width="2" opacity="0.5"/>
<rect x="212.46973365617433" y="535.230024213075" width="4.842615012106537" height="4.842615012106537" fill="#4a90d9" stroke="#357abd" stroke-width="2" opacity="0.5"/>
<rect x="388.9830508474576" y="287.2881355932203" width="4.842615012106537" height="4.842615012106537" fill="#4a90d9" stroke="#357abd" stroke-width="2" opacity="0.5"/>
<rect x="565.4963680387409" y="411.2590799031477" width="4.842615012106537" height="4.842615012106537" fill="#4a90d9" stroke="#357abd" stroke-width="2" opacity="0.5"/>
<rect x="62.106537530266344" y="163.31719128329297" width="4.842615012106537" height="4.842615012106537" fill="#4a90d9" stroke="#357abd" stroke-width="2" opacity="0.5"/>
<rect x="238.61985472154964" y="473.24455205811137" width="4.842615012106537" height="4.842615012106537" fill="#4a90d9" stroke="#357abd" stroke-width="2" opacity="0.5"/>
<rect x="415.13317191283295" y="225.30266343825667" width="4.842615012106537" height="4.842615012106537" fill="#4a90d9" stroke="#357abd" stroke-width="2" opacity="0.5"/>
<rect x="120.94430992736078" y="349.273607748184" width="4.842615012106537" height="4.842615012106537" fill="#4a90d9" stroke="#357abd" stroke-width="2" opacity="0.5"/>
<rect x="297.45762711864404" y="101.33171912832927" width="4.842615012106537" height="4.842615012106537" fill="#4a90d9" stroke="#357abd" stroke-width="2" opacity="0.5"/>
<rect x="473.97094430992735" y="504.2372881355932" width="4.842615012106537" height="4.842615012106537" fill="#4a90d9" stroke="#357abd" stroke-width="2" opacity="0.5"/>
<rect x="179.78208232445522" y="256.2953995157385" width="4.842615012106537" height="4.842615012106537" fill="#4a90d9" stroke="#357abd" stroke-width="2" opacity="0.5"/>
<rect x="356.2953995157385" y="380.2663438256659" width="4.842615012106537" height="4.842615012106537" fill="#4a90d9" stroke="#357abd" stroke-width="2" opacity="0.5"/>
<rect x="532.8087167070219" y="132.32445520581115" width="4.842615012106537" height="4.842615012106537" fill="#4a90d9" stroke="#357abd" stroke-width="2" opacity="0.5"/>
<rect x="81.71912832929782" y="442.25181598062954" width="4.842615012106537" height="4.842615012106537" fill="#4a90d9" stroke="#357abd" stroke-width="2" opacity="0.5"/>
<rect x="258.2324455205811" y="194.3099273607748" width="4.842615012106537" height="4.842615012106537" fill="#4a90d9" stroke="#357abd" stroke-width="2" opacity="0.5"/>
<rect x="434.7457627118644" y="318.28087167070214" width="4.842615012106537" height="4.842615012106537" fill="#4a90d9" stroke="#357abd" stroke-width="2" opacity="0.5"/>
<rect x="140.55690072639226" y="70.33898305084745" width="4.842615012106537" height="4.842615012106537" fill="#4a90d9" stroke="#357abd" stroke-width="2" opacity="0.5"/>
<rect x="317.07021791767556" y="519.7336561743341" width="4.842615012106537" height="4.842615012106537" fill="#4a90d9" stroke="#357abd" stroke-width="2" opacity="0.5"/>
<rect x="493.5835351089588" y="271.7917675544794" width="4.842615012106537" height="4.842615012106537" fill="#4a90d9" stroke="#357abd" stroke-width="2" opacity="0.5"/>
<rect x="199.39467312348668" y="395.7627118644068" width="4.842615012106537" height="4.842615012106537" fill="#4a90d9" stroke="#357abd" stroke-width="2" opacity="0.5"/>
<rect x="375.90799031476996" y="147.82082324455206" width="4.842615012106537" height="4.842615012106537" fill="#4a90d9" stroke="#357abd" stroke-width="2" opacity="0.5"/>
<rect x="552.4213075060533" y="457.74818401937046" width="4.842615012106537" height="4.842615012106537" fill="#4a90d9" stroke="#357abd" stroke-width="2" opacity="0.5"/>
<rect x="101.3317191283293" y="209.80629539951576" width="4.842615012106537" height="4.842615012106537" fill="#4a90d9" stroke="#357abd" stroke-width="2" opacity="0.5"/>
<rect x="277.84503631961263" y="333.7772397094431" width="4.842615012106537" height="4.842615012106537" fill="#4a90d9" stroke="#357abd" stroke-width="2" opacity="0.5"/>
<rect x="454.3583535108959" y="85.83535108958836" width="4.842615012106537" height="4.842615012106537" fill="#4a90d9" stroke="#357abd" stroke-width="2" opacity="0.5"/>
<rect x="160.16949152542372" y="488.7409200968523" width="4.842615012106537" height="4.842615012106537" fill="#4a90d9" stroke="#357abd" stroke-width="2" opacity="0.5"/>
<rect x="336.68280871670703" y="240.79903147699758" width="4.842615012106537" height="4.842615012106537" fill="#4a90d9" stroke="#357abd" stroke-width="2" opacity="0.5"/>
<rect x="513.1961259079903" y="364.76997578692493" width="4.842615012106537" height="4.842615012106537" fill="#4a90d9" stroke="#357abd" stroke-width="2" opacity="0.5"/>
<rect x="219.00726392251815" y="116.82808716707024" width="4.842615012106537" height="4.842615012106537" fill="#4a90d9" stroke="#357abd" stroke-width="2" opacity="0.5"/>
<rect x="395.5205811138014" y="426.75544794188863" width="4.842615012106537" height="4.842615012106537" fill="#4a90d9" stroke="#357abd" stroke-width="2" opacity="0.5"/>
<rect x="572.0338983050848" y="178.81355932203388" width="4.842615012106537" height="4.842615012106537" fill="#4a90d9" stroke="#357abd" stroke-width="2" opacity="0.5"/>
<rect x="68.64406779661017" y="302.78450363196123" width="4.842615012106537" height="4.842615012106537" fill="#4a90d9" stroke="#357abd" stroke-width="2" opacity="0.5"/>
<rect x="245.15738498789347" y="54.842615012106535" width="4.842615012106537" height="4.842615012106537" fill="#4a90d9" stroke="#357abd" stroke-width="2" opacity="0.5"/>
<rect x="421.67070217917677" y="539.1041162227602" width="4.842615012106537" height="4.842615012106537" fill="#4a90d9" stroke="#357abd" stroke-width="2" opacity="0.5"/>
<rect x="127.4818401937046" y="291.16222760290555" width="4.842615012106537" height="4.842615012106537" fill="#4a90d9" stroke="#357abd" stroke-width="2" opacity="0.5"/>
<rect x="303.9951573849879" y="415.13317191283295" width="4.842615012106537" height="4.842615012106537" fill="#4a90d9" stroke="#357abd" stroke-width="2" opacity="0.5"/>
<rect x="480.50847457627117" y="167.1912832929782" width="4.842615012106537" height="4.842615012106537" fill="#4a90d9" stroke="#357abd" stroke-width="2" opacity="0.5"/>
<rect x="186.31961259079904" y="477.1186440677966" width="4.842615012106537" height="4.842615012106537" fill="#4a90d9" stroke="#357abd" stroke-width="2" opacity="0.5"/>
<rect x="362.8329297820823" y="229.1767554479419" width="4.842615012106537" height="4.842615012106537" fill="#4a90d9" stroke="#357abd" stroke-width="2" opacity="0.5"/>
<rect x="539.3462469733656" y="353.14769975786925" width="4.842615012106537" height="4.842615012106537" fill="#4a90d9" stroke="#357abd" stroke-width="2" opacity="0.5"/>
<rect x="88.25665859564165" y="105.20581113801455" width="4.842615012106537" height="4.842615012106537" fill="#4a90d9" stroke="#357abd" stroke-width="2" opacity="0.5"/>
<rect x="264.76997578692493" y="508.1113801452785" width="4.842615012106537" height="4.842615012106537" fill="#4a90d9" stroke="#357abd" stroke-width="2" opacity="0.5"/>
<rect x="441.28329297820824" y="260.1694915254237" width="4.842615012106537" height="4.842615012106537" fill="#4a90d9" stroke="#357abd" stroke-width="2" opacity="0.5"/>
<rect x="147.09443099273608" y="384.1404358353511" width="4.842615012106537" height="4.842615012106537" fill="#4a90d9" stroke="#357abd" stroke-width="2" opacity="0.5"/>
<rect x="323.6077481840194" y="136.19854721549638" width="4.842615012106537" height="4.842615012106537" fill="#4a90d9" stroke="#357abd" stroke-width="2" opacity="0.5"/>
<rect x="500.1210653753027" y="446.1259079903148" width="4.842615012106537" height="4.842615012106537" fill="#4a90d9" stroke="#357abd" stroke-width="2" opacity="0.5"/>
<rect x="205.9322033898305" y="198.18401937046002" width="4.842615012106537" height="4.842615012106537" fill="#4a90d9" stroke="#357abd" stroke-width="2" opacity="0.5"/>
<rect x="382.4455205811138" y="322.15496368038737" width="4.842615012106537" height="4.842615012106537" fill="#4a90d9" stroke="#357abd" stroke-width="2" opacity="0.5"/>
<rect x="558.9588377723971" y="74.21307506053267" width="4.842615012106537" height="4.842615012106537" fill="#4a90d9" stroke="#357abd" stroke-width="2" opacity="0.5"/>
<rect x="107.86924939467312" y="523.6077481840193" width="4.842615012106537" height="4.842615012106537" fill="#4a90d9" stroke="#357abd" stroke-width="2" opacity="0.5"/>
<rect x="284.3825665859564" y="275.66585956416463" width="4.842615012106537" height="4.842615012106537" fill="#4a90d9" stroke="#357abd" stroke-width="2" opacity="0.5"/>
<rect x="460.8958837772397" y="399.63680387409204" width="4.842615012106537" height="4.842615012106537" fill="#4a90d9" stroke="#357abd" stroke-width="2" opacity="0.5"/>
<rect x="166.70702179176754" y="151.6949152542373" width="4.842615012106537" height="4.842615012106537" fill="#4a90d9" stroke="#357abd" stroke-width="2" opacity="0.5"/>
<rect x="343.22033898305085" y="461.6222760290557" width="4.842615012106537" height="4.842615012106537" fill="#4a90d9" stroke="#357abd" stroke-width="2" opacity="0.5"/>
<rect x="519.7336561743341" y="213.680387409201" width="4.842615012106537" height="4.842615012106537" fill="#4a90d9" stroke="#357abd" stroke-width="2" opacity="0.5"/>
<rect x="225.544794188862" y="337.65133171912834" width="4.842615012106537" height="4.842615012106537" fill="#4a90d9" stroke="#357abd" stroke-width="2" opacity="0.5"/>
<rect x="402.0581113801453" y="89.70944309927359" width="4.842615012106537" height="4.842615012106537" fill="#4a90d9" stroke="#357abd" stroke-width="2" opacity="0.5"/>
<rect x="578.5714285714286" y="492.6150121065375" width="4.842615012106537" height="4.842615012106537" fill="#4a90d9" stroke="#357abd" stroke-width="2" opacity="0.5"/>
<rect x="50.0" y="244.6731234866828" width="4.842615012106537" height="4.842615012106537" fill="#4a90d9" stroke="#357abd" stroke-width="2" opacity="0.5"/>
<rect x="226.5133171912833" y="368.64406779661016" width="4.842615012106537" height="4.842615012106537" fill="#4a90d9" stroke="#357abd" stroke-width="2" opacity="0.5"/>
<rect x="403.0266343825666" y="120.70217917675546" width="4.842615012106537" height="4.842615012106537" fill="#4a90d9" stroke="#357abd" stroke-width="2" opacity="0.5"/>
<rect x="108.83777239709443" y="430.62953995157386" width="4.842615012106537" height="4.842615012106537" fill="#4a90d9" stroke="#357abd" stroke-width="2" opacity="0.5"/>
<rect x="285.3510895883777" y="182.6876513317191" width="4.842615012106537" height="4.842615012106537" fill="#4a90d9" stroke="#357abd" stroke-width="2" opacity="0.5"/>
<rect x="461.864406779661" y="306.65859564164646" width="4.842615012106537" height="4.842615012106537" fill="#4a90d9" stroke="#357abd" stroke-width="2" opacity="0.5"/>
<rect x="167.67554479418885" y="58.71670702179176" width="4.842615012106537" height="4.842615012106537" fill="#4a90d9" stroke="#357abd" stroke-width="2" opacity="0.5"/>
<rect x="344.18886198547216" y="531.3559322033898" width="4.842615012106537" height="4.842615012106537" fill="#4a90d9" stroke="#357abd" stroke-width="2" opacity="0.5"/>
<rect x="520.7021791767554" y="283.4140435835351" width="4.842615012106537" height="4.842615012106537" fill="#4a90d9" stroke="#357abd" stroke-width="2" opacity="0.5"/>
<rect x="69.61259079903148" y="407.3849878934625" width="4.842615012106537" height="4.842615012106537" fill="#4a90d9" stroke="#357abd" stroke-width="2" opacity="0.5"/>
<rect x="246.12590799031477" y="159.44309927360774" width="4.842615012106537" height="4.842615012106537" fill="#4a90d9" stroke="#357abd" stroke-width="2" opacity="0.5"/>
<rect x="422.6392251815981" y="469.37046004842614" width="4.842615012106537" height="4.842615012106537" fill="#4a90d9" stroke="#357abd" stroke-width="2" opacity="0.5"/>
<rect x="128.45036319612592" y="221.42857142857144" width="4.842615012106537" height="4.842615012106537" fill="#4a90d9" stroke="#357abd" stroke-width="2" opacity="0.5"/>
<rect x="304.9636803874092" y="345.3995157384988" width="4.842615012106537" height="4.842615012106537" fill="#4a90d9" stroke="#357abd" stroke-width="2" opacity="0.5"/>
<rect x="481.4769975786925" y="97.45762711864404" width="4.842615012106537" height="4.842615012106537" fill="#4a90d9" stroke="#357abd" stroke-width="2" opacity="0.5"/>
<rect x="187.28813559322035" y="500.36319612590796" width="4.842615012106537" height="4.842615012106537" fill="#4a90d9" stroke="#357abd" stroke-width="2" opacity="0.5"/>
<rect x="363.8014527845036" y="252.42130750605327" width="4.842615012106537" height="4.842615012106537" fill="#4a90d9" stroke="#357abd" stroke-width="2" opacity="0.5"/>
<rect x="540.3147699757869" y="376.3922518159806" width="4.842615012106537" height="4.842615012106537" fill="#4a90d9" stroke="#357abd" stroke-width="2" opacity="0.5"/>
<rect x="89.22518159806296" y="128.45036319612592" width="4.842615012106537" height="4.842615012106537" fill="#4a90d9" stroke="#357abd" stroke-width="2" opacity="0.5"/>
<rect x="265.73849878934624" y="438.3777239709443" width="4.842615012106537" height="4.842615012106537" fill="#4a90d9" stroke="#357abd" stroke-width="2" opacity="0.5"/>
<rect x="442.25181598062954" y="190.43583535108957" width="4.842615012106537" height="4.842615012106537" fill="#4a90d9" stroke="#357abd" stroke-width="2" opacity="0.5"/>
<rect x="148.0629539951574" y="314.4067796610169" width="4.842615012106537" height="4.842615012106537" fill="#4a90d9" stroke="#357abd" stroke-width="2" opacity="0.5"/>
<rect x="324.5762711864407" y="66.46489104116222" width="4.842615012106537" height="4.842615012106537" fill="#4a90d9" stroke="#357abd" stroke-width="2" opacity="0.5"/>
<rect x="501.089588377724" y="515.8595641646489" width="4.842615012106537" height="4.842615012106537" fill="#4a90d9" stroke="#357abd" stroke-width="2" opacity="0.5"/>
<rect x="206.9007263922518" y="267.9176755447942" width="4.842615012106537" height="4.842615012106537" fill="#4a90d9" stroke="#357abd" stroke-width="2" opacity="0.5"/>
<rect x="383.4140435835351" y="391.8886198547216" width="4.842615012106537" height="4.842615012106537" fill="#4a90d9" stroke="#357abd" stroke-width="2" opacity="0.5"/>
<rect x="559.9273607748185" y="143.94673123486683" width="4.842615012106537" height="4.842615012106537" fill="#4a90d9" stroke="#357abd" stroke-width="2" opacity="0.5"/>
<rect x="56.53753026634382" y="453.8740920096852" width="4.842615012106537" height="4.842615012106537" fill="#4a90d9" stroke="#357abd" stroke-width="2" opacity="0.5"/>
<rect x="233.05084745762713" y="205.93220338983053" width="4.842615012106537" height="4.842615012106537" fill="#4a90d9" stroke="#357abd" stroke-width="2" opacity="0.5"/>
<rect x="409.56416464891043" y="329.9031476997579" width="4.842615012106537" height="4.842615012106537" fill="#4a90d9" stroke="#357abd" stroke-width="2" opacity="0.5"/>
<rect x="115.37530266343826" y="81.96125907990313" width="4.842615012106537" height="4.842615012106537" fill="#4a90d9" stroke="#357abd" stroke-width="2" opacity="0.5"/>
<rect x="291.8886198547216" y="484.86682808716705" width="4.842615012106537" height="4.842615012106537" fill="#4a90d9" stroke="#357abd" stroke-width="2" opacity="0.5"/>
<rect x="468.40193704600483" y="236.92493946731236" width="4.842615012106537" height="4.842615012106537" fill="#4a90d9" stroke="#357abd" stroke-width="2" opacity="0.5"/>
<rect x="174.21307506053267" y="360.8958837772397" width="4.842615012106537" height="4.842615012106537" fill="#4a90d9" stroke="#357abd" stroke-width="2" opacity="0.5"/>
<rect x="350.726392251816" y="112.95399515738501" width="4.842615012106537" height="4.842615012106537" fill="#4a90d9" stroke="#357abd" stroke-width="2" opacity="0.5"/>
<rect x="527.2397094430993" y="422.8813559322034" width="4.842615012106537" height="4.842615012106537" fill="#4a90d9" stroke="#357abd" stroke-width="2" opacity="0.5"/>
<rect x="76.1501210653753" y="174.93946731234865" width="4.842615012106537" height="4.842615012106537" fill="#4a90d9" stroke="#357abd" stroke-width="2" opacity="0.5"/>
<rect x="252.6634382566586" y="298.910411622276" width="4.842615012106537" height="4.842615012106537" fill="#4a90d9" stroke="#357abd" stroke-width="2" opacity="0.5"/>
<rect x="429.1767554479419" y="50.96852300242131" width="4.842615012106537" height="4.842615012106537" fill="#4a90d9" stroke="#357abd" stroke-width="2" opacity="0.5"/>
<rect x="134.98789346246974" y="543.9467312348668" width="4.842615012106537" height="4.842615012106537" fill="#4a90d9" stroke="#357abd" stroke-width="2" opacity="0.5"/>
<rect x="311.50121065375305" y="296.0048426150121" width="4.842615012106537" height="4.842615012106537" fill="#4a90d9" stroke="#357abd" stroke-width="2" opacity="0.5"/>
<rect x="488.0145278450363" y="419.9757869249395" width="4.842615012106537" height="4.842615012106537" fill="#4a90d9" stroke="#357abd" stroke-width="2" opacity="0.5"/>
<rect x="193.82566585956417" y="172.03389830508473" width="4.842615012106537" height="4.842615012106537" fill="#4a90d9" stroke="#357abd" stroke-width="2" opacity="0.5"/>
<rect x="370.33898305084745" y="481.96125907990313" width="4.842615012106537" height="4.842615012106537" fill="#4a90d9" stroke="#357abd" stroke-width="2" opacity="0.5"/>
<rect x="546.8523002421307" y="234.01937046004844" width="4.842615012106537" height="4.842615012106537" fill="#4a90d9" stroke="#357abd" stroke-width="2" opacity="0.5"/>
<rect x="95.76271186440678" y="357.9903147699758" width="4.842615012106537" height="4.842615012106537" fill="#4a90d9" stroke="#357abd" stroke-width="2" opacity="0.5"/>
<rect x="272.27602905569006" y="110.04842615012109" width="4.842615012106537" height="4.842615012106537" fill="#4a90d9" stroke="#357abd" stroke-width="2" opacity="0.5"/>
<rect x="448.78934624697337" y="512.953995157385" width="4.842615012106537" height="4.842615012106537" fill="#4a90d9" stroke="#357abd" stroke-width="2" opacity="0.5"/>
<rect x="154.6004842615012" y="265.01210653753026" width="4.842615012106537" height="4.842615012106537" fill="#4a90d9" stroke="#357abd" stroke-width="2" opacity="0.5"/>
<rect x="331.1138014527845" y="388.98305084745766" width="4.842615012106537" height="4.842615012106537" fill="#4a90d9" stroke="#357abd" stroke-width="2" opacity="0.5"/>
<rect x="507.6271186440678" y="141.0411622276029" width="4.842615012106537" height="4.842615012106537" fill="#4a90d9" stroke="#357abd" stroke-width="2" opacity="0.5"/>
<rect x="213.43825665859563" y="450.9685230024213" width="4.842615012106537" height="4.842615012106537" fill="#4a90d9" stroke="#357abd" stroke-width="2" opacity="0.5"/>
<rect x="389.9515738498789" y="203.0266343825666" width="4.842615012106537" height="4.842615012106537" fill="#4a90d9" stroke="#357abd" stroke-width="2" opacity="0.5"/>
<rect x="566.4648910411622" y="326.99757869249396" width="4.842615012106537" height="4.842615012106537" fill="#4a90d9" stroke="#357abd" stroke-width="2" opacity="0.5"/>
<rect x="63.07506053268765" y="79.05569007263921" width="4.842615012106537" height="4.842615012106537" fill="#4a90d9" stroke="#357abd" stroke-width="2" opacity="0.5"/>
<rect x="239.58837772397095" y="528.4503631961259" width="4.842615012106537" height="4.842615012106537" fill="#4a90d9" stroke="#357abd" stroke-width="2" opacity="0.5"/>
<rect x="416.10169491525426" y="280.50847457627117" width="4.842615012106537" height="4.842615012106537" fill="#4a90d9" stroke="#357abd" stroke-width="2" opacity="0.5"/>
<rect x="121.91283292978208" y="404.4794188861986" width="4.842615012106537" height="4.842615012106537" fill="#4a90d9" stroke="#357abd" stroke-width="2" opacity="0.5"/>
<rect x="298.42615012106535" y="156.53753026634382" width="4.842615012106537" height="4.842615012106537" fill="#4a90d9" stroke="#357abd" stroke-width="2" opacity="0.5"/>
<rect x="474.93946731234865" y="466.4648910411622" width="4.842615012106537" height="4.842615012106537" fill="#4a90d9" stroke="#357abd" stroke-width="2" opacity="0.5"/>
<rect x="180.75060532687652" y="218.52300242130752" width="4.842615012106537" height="4.842615012106537" fill="#4a90d9" stroke="#357abd" stroke-width="2" opacity="0.5"/>
<rect x="357.2639225181598" y="342.49394673123487" width="4.842615012106537" height="4.842615012106537" fill="#4a90d9" stroke="#357abd" stroke-width="2" opacity="0.5"/>
<rect x="533.7772397094432" y="94.55205811138012" width="4.842615012106537" height="4.842615012106537" fill="#4a90d9" stroke="#357abd" stroke-width="2" opacity="0.5"/>
<rect x="82.68765133171914" y="497.45762711864404" width="4.842615012106537" height="4.842615012106537" fill="#4a90d9" stroke="#357abd" stroke-width="2" opacity="0.5"/>
<rect x="259.2009685230024" y="249.51573849878935" width="4.842615012106537" height="4.842615012106537" fill="#4a90d9" stroke="#357abd" stroke-width="2" opacity="0.5"/>
<rect x="435.7142857142857" y="373.4866828087167" width="4.842615012106537" height="4.842615012106537" fill="#4a90d9" stroke="#357abd" stroke-width="2" opacity="0.5"/>
<rect x="141.52542372881356" y="125.544794188862" width="4.842615012106537" height="4.842615012106537" fill="#4a90d9" stroke="#357abd" stroke-width="2" opacity="0.5"/>
<rect x="318.03874092009687" y="435.4721549636804" width="4.842615012106537" height="4.842615012106537" fill="#4a90d9" stroke="#357abd" stroke-width="2" opacity="0.5"/>
<rect x="494.5520581113801" y="187.53026634382564" width="4.842615012106537" height="4.842615012106537" fill="#4a90d9" stroke="#357abd" stroke-width="2" opacity="0.5"/>
<rect x="200.363196125908" y="311.501210653753" width="4.842615012106537" height="4.842615012106537" fill="#4a90d9" stroke="#357abd" stroke-width="2" opacity="0.5"/>
<rect x="376.87651331719127" y="63.5593220338983" width="4.842615012106537" height="4.842615012106537" fill="#4a90d9" stroke="#357abd" stroke-width="2" opacity="0.5"/>
<rect x="553.3898305084746" y="536.1985472154963" width="4.842615012106537" height="4.842615012106537" fill="#4a90d9" stroke="#357abd" stroke-width="2" opacity="0.5"/>
<rect x="102.3002421307506" y="288.2566585956416" width="4.842615012106537" height="4.842615012106537" fill="#4a90d9" stroke="#357abd" stroke-width="2" opacity="0.5"/>
<rect x="278.81355932203394" y="412.22760290556903" width="4.842615012106537" height="4.842615012106537" fill="#4a90d9" stroke="#357abd" stroke-width="2" opacity="0.5"/>
<rect x="455.3268765133172" y="164.28571428571428" width="4.842615012106537" height="4.842615012106537" fill="#4a90d9" stroke="#357abd" stroke-width="2" opacity="0.5"/>
<rect x="161.13801452784503" y="474.2130750605327" width="4.842615012106537" height="4.842615012106537" fill="#4a90d9" stroke="#357abd" stroke-width="2" opacity="0.5"/>
<rect x="337.65133171912834" y="226.27118644067798" width="4.842615012106537" height="4.842615012106537" fill="#4a90d9" stroke="#357abd" stroke-width="2" opacity="0.5"/>
<rect x="514.1646489104116" y="350.2421307506053" width="4.842615012106537" height="4.842615012106537" fill="#4a90d9" stroke="#357abd" stroke-width="2" opacity="0.5"/>
<rect x="219.97578692493946" y="102.30024213075058" width="4.842615012106537" height="4.842615012106537" fill="#4a90d9" stroke="#357abd" stroke-width="2" opacity="0.5"/>
<rect x="396.48910411622273" y="505.2058111380145" width="4.842615012106537" height="4.842615012106537" fill="#4a90d9" stroke="#357abd" stroke-width="2" opacity="0.5"/>
<rect x="573.0024213075061" y="257.2639225181598" width="4.842615012106537" height="4.842615012106537" fill="#4a90d9" stroke="#357abd" stroke-width="2" opacity="0.5"/>
<rect x="52.17917675544794" y="381.2348668280872" width="4.842615012106537" height="4.842615012106537" fill="#4a90d9" stroke="#357abd" stroke-width="2" opacity="0.5"/>
<rect x="228.69249394673125" y="133.29297820823246" width="4.842615012106537" height="4.842615012106537" fill="#4a90d9" stroke="#357abd" stroke-width="2" opacity="0.5"/>
<rect x="405.20581113801455" y="443.22033898305085" width="4.842615012106537" height="4.842615012106537" fill="#4a90d9" stroke="#357abd" stroke-width="2" opacity="0.5"/>
<rect x="111.01694915254237" y="195.2784503631961" width="4.842615012106537" height="4.842615012106537" fill="#4a90d9" stroke="#357abd" stroke-width="2" opacity="0.5"/>
<rect x="287.5302663438257" y="319.24939467312345" width="4.842615012106537" height="4.842615012106537" fill="#4a90d9" stroke="#357abd" stroke-width="2" opacity="0.5"/>
<rect x="464.04358353510895" y="71.30750605326875" width="4.842615012106537" height="4.842615012106537" fill="#4a90d9" stroke="#357abd" stroke-width="2" opacity="0.5"/>
<rect x="169.8547215496368" y="520.7021791767554" width="4.842615012106537" height="4.842615012106537" fill="#4a90d9" stroke="#357abd" stroke-width="2" opacity="0.5"/>
<rect x="346.3680387409201" y="272.7602905569007" width="4.842615012106537" height="4.842615012106537" fill="#4a90d9" stroke="#357abd" stroke-width="2" opacity="0.5"/>
<rect x="522.8813559322034" y="396.7312348668281" width="4.842615012106537" height="4.842615012106537" fill="#4a90d9" stroke="#357abd" stroke-width="2" opacity="0.5"/>
<rect x="71.79176755447942" y="148.78934624697337" width="4.842615012106537" height="4.842615012106537" fill="#4a90d9" stroke="#357abd" stroke-width="2" opacity="0.5"/>
<rect x="248.3050847457627" y="458.71670702179176" width="4.842615012106537" height="4.842615012106537" fill="#4a90d9" stroke="#357abd" stroke-width="2" opacity="0.5"/>
<rect x="424.818401937046" y="210.77481840193707" width="4.842615012106537" height="4.842615012106537" fill="#4a90d9" stroke="#357abd" stroke-width="2" opacity="0.5"/>
<rect x="130.62953995157386" y="334.7457627118644" width="4.842615012106537" height="4.842615012106537" fill="#4a90d9" stroke="#357abd" stroke-width="2" opacity="0.5"/>
<rect x="307.14285714285717" y="86.80387409200966" width="4.842615012106537" height="4.842615012106537" fill="#4a90d9" stroke="#357abd" stroke-width="2" opacity="0.5"/>
<rect x="483.6561743341404" y="489.7094430992736" width="4.842615012106537" height="4.842615012106537" fill="#4a90d9" stroke="#357abd" stroke-width="2" opacity="0.5"/>
<rect x="189.4673123486683" y="241.7675544794189" width="4.842615012106537" height="4.842615012106537" fill="#4a90d9" stroke="#357abd" stroke-width="2" opacity="0.5"/>
<rect x="365.98062953995156" y="365.73849878934624" width="4.842615012106537" height="4.842615012106537" fill="#4a90d9" stroke="#357abd" stroke-width="2" opacity="0.5"/>
<rect x="542.4939467312349" y="117.79661016949154" width="4.842615012106537" height="4.842615012106537" fill="#4a90d9" stroke="#357abd" stroke-width="2" opacity="0.5"/>
<rect x="91.4043583535109" y="427.72397094430994" width="4.842615012106537" height="4.842615012106537" fill="#4a90d9" stroke="#357abd" stroke-width="2" opacity="0.5"/>
<rect x="267.9176755447942" y="179.7820823244552" width="4.842615012106537" height="4.842615012106537" fill="#4a90d9" stroke="#357abd" stroke-width="2" opacity="0.5"/>
<rect x="444.4309927360775" y="303.75302663438254" width="4.842615012106537" height="4.842615012106537" fill="#4a90d9" stroke="#357abd" stroke-width="2" opacity="0.5"/>
<rect x="150.24213075060533" y="55.81113801452784" width="4.842615012106537" height="4.842615012106537" fill="#4a90d9" stroke="#357abd" stroke-width="2" opacity="0.5"/>
<rect x="326.75544794188863" y="540.0726392251815" width="4.842615012106537" height="4.842615012106537" fill="#4a90d9" stroke="#357abd" stroke-width="2" opacity="0.5"/>
<rect x="503.26876513317194" y="292.13075060532685" width="4.842615012106537" height="4.842615012106537" fill="#4a90d9" stroke="#357abd" stroke-width="2" opacity="0.5"/>
<rect x="209.07990314769975" y="416.10169491525426" width="4.842615012106537" height="4.842615012106537" fill="#4a90d9" stroke="#357abd" stroke-width="2" opacity="0.5"/>
<rect x="385.59322033898303" y="168.1598062953995" width="4.842615012106537" height="4.842615012106537" fill="#4a90d9" stroke="#357abd" stroke-width="2" opacity="0.5"/>
<rect x="562.1065375302663" y="478.0871670702179" width="4.842615012106537" height="4.842615012106537" fill="#4a90d9" stroke="#357abd" stroke-width="2" opacity="0.5"/>
<rect x="58.71670702179177" y="230.1452784503632" width="4.842615012106537" height="4.842615012106537" fill="#4a90d9" stroke="#357abd" stroke-width="2" opacity="0.5"/>
<rect x="235.23002421307507" y="354.11622276029055" width="4.842615012106537" height="4.842615012106537" fill="#4a90d9" stroke="#357abd" stroke-width="2" opacity="0.5"/>
<rect x="411.7433414043584" y="106.17433414043586" width="4.842615012106537" height="4.842615012106537" fill="#4a90d9" stroke="#357abd" stroke-width="2" opacity="0.5"/>
<rect x="117.5544794188862" y="509.0799031476998" width="4.842615012106537" height="4.842615012106537" fill="#4a90d9" stroke="#357abd" stroke-width="2" opacity="0.5"/>
<rect x="294.06779661016947" y="261.13801452784503" width="4.842615012106537" height="4.842615012106537" fill="#4a90d9" stroke="#357abd" stroke-width="2" opacity="0.5"/>
<rect x="470.5811138014528" y="385.10895883777243" width="4.842615012106537" height="4.842615012106537" fill="#4a90d9" stroke="#357abd" stroke-width="2" opacity="0.5"/>
<rect x="176.39225181598061" y="137.16707021791768" width="4.842615012106537" height="4.842615012106537" fill="#4a90d9" stroke="#357abd" stroke-width="2" opacity="0.5"/>
<rect x="352.9055690072639" y="447.0944309927361" width="4.842615012106537" height="4.842615012106537" fill="#4a90d9" stroke="#357abd" stroke-width="2" opacity="0.5"/>
<rect x="529.4188861985472" y="199.15254237288133" width="4.842615012106537" height="4.842615012106537" fill="#4a90d9" stroke="#357abd" stroke-width="2" opacity="0.5"/>
<rect x="78.32929782082324" y="323.1234866828087" width="4.842615012106537" height="4.842615012106537" fill="#4a90d9" stroke="#357abd" stroke-width="2" opacity="0.5"/>
<rect x="254.84261501210653" y="75.18159806295398" width="4.842615012106537" height="4.842615012106537" fill="#4a90d9" stroke="#357abd" stroke-width="2" opacity="0.5"/>
<rect x="431.35593220338984" y="524.5762711864406" width="4.842615012106537" height="4.842615012106537" fill="#4a90d9" stroke="#357abd" stroke-width="2" opacity="0.5"/>
<rect x="137.16707021791768" y="276.63438256658594" width="4.842615012106537" height="4.842615012106537" fill="#4a90d9" stroke="#357abd" stroke-width="2" opacity="0.5"/>
<rect x="313.680387409201" y="400.60532687651335" width="4.842615012106537" height="4.842615012106537" fill="#4a90d9" stroke="#357abd" stroke-width="2" opacity="0.5"/>
<rect x="490.19370460048424" y="152.6634382566586" width="4.842615012106537" height="4.842615012106537" fill="#4a90d9" stroke="#357abd" stroke-width="2" opacity="0.5"/>
<rect x="196.0048426150121" y="462.590799031477" width="4.842615012106537" height="4.842615012106537" fill="#4a90d9" stroke="#357abd" stroke-width="2" opacity="0.5"/>
<rect x="372.5181598062954" y="214.6489104116223" width="4.842615012106537" height="4.842615012106537" fill="#4a90d9" stroke="#357abd" stroke-width="2" opacity="0.5"/>
<rect x="549.0314769975787" y="338.61985472154964" width="4.842615012106537" height="4.842615012106537" fill="#4a90d9" stroke="#357abd" stroke-width="2" opacity="0.5"/>
<rect x="97.94188861985472" y="90.67796610169489" width="4.842615012106537" height="4.842615012106537" fill="#4a90d9" stroke="#357abd" stroke-width="2" opacity="0.5"/>
<rect x="274.45520581113806" y="493.5835351089588" width="4.842615012106537" height="4.842615012106537" fill="#4a90d9" stroke="#357abd" stroke-width="2" opacity="0.5"/>
<rect x="450.9685230024213" y="245.64164648910412" width="4.842615012106537" height="4.842615012106537" fill="#4a90d9" stroke="#357abd" stroke-width="2" opacity="0.5"/>
<rect x="156.77966101694915" y="369.61259079903147" width="4.842615012106537" height="4.842615012106537" fill="#4a90d9" stroke="#357abd" stroke-width="2" opacity="0.5"/>
<rect x="333.29297820823246" y="121.67070217917677" width="4.842615012106537" height="4.842615012106537" fill="#4a90d9" stroke="#357abd" stroke-width="2" opacity="0.5"/>
<rect x="509.80629539951576" y="431.59806295399517" width="4.842615012106537" height="4.842615012106537" fill="#4a90d9" stroke="#357abd" stroke-width="2" opacity="0.5"/>
<rect x="215.61743341404357" y="183.65617433414042" width="4.842615012106537" height="4.842615012106537" fill="#4a90d9" stroke="#357abd" stroke-width="2" opacity="0.5"/>
<rect x="392.13075060532685" y="307.62711864406776" width="4.842615012106537" height="4.842615012106537" fill="#4a90d9" stroke="#357abd" stroke-width="2" opacity="0.5"/>
<rect x="568.6440677966102" y="59.68523002421307" width="4.842615012106537" height="4.842615012106537" fill="#4a90d9" stroke="#357abd" stroke-width="2" opacity="0.5"/>
<rect x="65.2542372881356" y="532.3244552058111" width="4.842615012106537" height="4.842615012106537" fill="#4a90d9" stroke="#357abd" stroke-width="2" opacity="0.5"/>
<rect x="241.7675544794189" y="284.3825665859564" width="4.842615012106537" height="4.842615012106537" fill="#4a90d9" stroke="#357abd" stroke-width="2" opacity="0.5"/>
<rect x="418.2808716707022" y="408.3535108958838" width="4.842615012106537" height="4.842615012106537" fill="#4a90d9" stroke="#357abd" stroke-width="2" opacity="0.5"/>
<rect x="124.09200968523002" y="160.41162227602905" width="4.842615012106537" height="4.842615012106537" fill="#4a90d9" stroke="#357abd" stroke-width="2" opacity="0.5"/>
<rect x="300.60532687651335" y="470.33898305084745" width="4.842615012106537" height="4.842615012106537" fill="#4a90d9" stroke="#357abd" stroke-width="2" opacity="0.5"/>
<rect x="477.1186440677966" y="222.39709443099275" width="4.842615012106537" height="4.842615012106537" fill="#4a90d9" stroke="#357abd" stroke-width="2" opacity="0.5"/>
<rect x="182.92978208232446" y="346.3680387409201" width="4.842615012106537" height="4.842615012106537" fill="#4a90d9" stroke="#357abd" stroke-width="2" opacity="0.5"/>
<rect x="359.44309927360774" y="98.42615012106535" width="4.842615012106537" height="4.842615012106537" fill="#4a90d9" stroke="#357abd" stroke-width="2" opacity="0.5"/>
<rect x="535.956416464891" y="501.33171912832927" width="4.842615012106537" height="4.842615012106537" fill="#4a90d9" stroke="#357abd" stroke-width="2" opacity="0.5"/>
<rect x="84.86682808716708" y="253.38983050847457" width="4.842615012106537" height="4.842615012106537" fill="#4a90d9" stroke="#357abd" stroke-width="2" opacity="0.5"/>
<rect x="261.38014527845036" y="377.360774818402" width="4.842615012106537" height="4.842615012106537" fill="#4a90d9" stroke="#357abd" stroke-width="2" opacity="0.5"/>
<rect x="437.89346246973366" y="129.41888619854723" width="4.842615012106537" height="4.842615012106537" fill="#4a90d9" stroke="#357abd" stroke-width="2" opacity="0.5"/>
<rect x="143.7046004842615" y="439.3462469733656" width="4.842615012106537" height="4.842615012106537" fill="#4a90d9" stroke="#357abd" stroke-width="2" opacity="0.5"/>
<rect x="320.2179176755448" y="191.40435835351087" width="4.842615012106537" height="4.842615012106537" fill="#4a90d9" stroke="#357abd" stroke-width="2" opacity="0.5"/>
<rect x="496.7312348668281" y="315.3753026634382" width="4.842615012106537" height="4.842615012106537" fill="#4a90d9" stroke="#357abd" stroke-width="2" opacity="0.5"/>
<rect x="202.54237288135593" y="67.43341404358353" width="4.842615012106537" height="4.842615012106537" fill="#4a90d9" stroke="#357abd" stroke-width="2" opacity="0.5"/>
<rect x="379.0556900726392" y="516.8280871670702" width="4.842615012106537" height="4.842615012106537" fill="#4a90d9" stroke="#357abd" stroke-width="2" opacity="0.5"/>
<rect x="555.5690072639225" y="268.8861985472155" width="4.842615012106537" height="4.842615012106537" fill="#4a90d9" stroke="#357abd" stroke-width="2" opacity="0.5"/>
<rect x="104.47941888619854" y="392.8571428571429" width="4.842615012106537" height="4.842615012106537" fill="#4a90d9" stroke="#357abd" stroke-width="2" opacity="0.5"/>
<rect x="280.9927360774818" y="144.91525423728814" width="4.842615012106537" height="4.842615012106537" fill="#4a90d9" stroke="#357abd" stroke-width="2" opacity="0.5"/>
<rect x="457.50605326876513" y="454.84261501210653" width="4.842615012106537" height="4.842615012106537" fill="#4a90d9" stroke="#357abd" stroke-width="2" opacity="0.5"/>
<rect x="163.31719128329297" y="206.90072639225184" width="4.842615012106537" height="4.842615012106537" fill="#4a90d9" stroke="#357abd" stroke-width="2" opacity="0.5"/>
<rect x="339.8305084745763" y="330.8716707021792" width="4.842615012106537" height="4.842615012106537" fill="#4a90d9" stroke="#357abd" stroke-width="2" opacity="0.5"/>
<rect x="516.3438256658596" y="82.92978208232444" width="4.842615012106537" height="4.842615012106537" fill="#4a90d9" stroke="#357abd" stroke-width="2" opacity="0.5"/>
<rect x="222.1549636803874" y="485.83535108958836" width="4.842615012106537" height="4.842615012106537" fill="#4a90d9" stroke="#357abd" stroke-width="2" opacity="0.5"/>
<rect x="398.66828087167073" y="237.89346246973366" width="4.842615012106537" height="4.842615012106537" fill="#4a90d9" stroke="#357abd" stroke-width="2" opacity="0.5"/>
<rect x="575.181598062954" y="361.864406779661" width="4.842615012106537" height="4.842615012106537" fill="#4a90d9" stroke="#357abd" stroke-width="2" opacity="0.5"/>
<rect x="54.35835351089588" y="113.92251815980632" width="4.842615012106537" height="4.842615012106537" fill="#4a90d9" stroke="#357abd" stroke-width="2" opacity="0.5"/>
<rect x="230.8716707021792" y="423.8498789346247" width="4.842615012106537" height="4.842615012106537" fill="#4a90d9" stroke="#357abd" stroke-width="2" opacity="0.5"/>
<rect x="407.3849878934625" y="175.90799031476996" width="4.842615012106537" height="4.842615012106537" fill="#4a90d9" stroke="#357abd" stroke-width="2" opacity="0.5"/>
<rect x="113.19612590799031" y="299.8789346246973" width="4.842615012106537" height="4.842615012106537" fill="#4a90d9" stroke="#357abd" stroke-width="2" opacity="0.5"/>
<rect x="289.7094430992736" y="51.937046004842614" width="4.842615012106537" height="4.842615012106537" fill="#4a90d9" stroke="#357abd" stroke-width="2" opacity="0.5"/>
<rect x="466.2227602905569" y="542.0096852300242" width="4.842615012106537" height="4.842615012106537" fill="#4a90d9" stroke="#357abd" stroke-width="2" opacity="0.5"/>
<rect x="172.03389830508473" y="294.06779661016947" width="4.842615012106537" height="4.842615012106537" fill="#4a90d9" stroke="#357abd" stroke-width="2" opacity="0.5"/>
<rect x="348.54721549636804" y="418.03874092009687" width="4.842615012106537" height="4.842615012106537" fill="#4a90d9" stroke="#357abd" stroke-width="2" opacity="0.5"/>
<rect x="525.0605326876514" y="170.09685230024212" width="4.842615012106537" height="4.842615012106537" fill="#4a90d9" stroke="#357abd" stroke-width="2" opacity="0.5"/>
<rect x="73.97094430992736" y="480.0242130750605" width="4.842615012106537" height="4.842615012106537" fill="#4a90d9" stroke="#357abd" stroke-width="2" opacity="0.5"/>
<rect x="250.48426150121065" y="232.08232445520582" width="4.842615012106537" height="4.842615012106537" fill="#4a90d9" stroke="#357abd" stroke-width="2" opacity="0.5"/>
<rect x="426.99757869249396" y="356.05326876513317" width="4.842615012106537" height="4.842615012106537" fill="#4a90d9" stroke="#357abd" stroke-width="2" opacity="0.5"/>
<rect x="132.8087167070218" y="108.11138014527847" width="4.842615012106537" height="4.842615012106537" fill="#4a90d9" stroke="#357abd" stroke-width="2" opacity="0.5"/>
<rect x="309.3220338983051" y="511.0169491525424" width="4.842615012106537" height="4.842615012106537" fill="#4a90d9" stroke="#357abd" stroke-width="2" opacity="0.5"/>
<rect x="485.83535108958836" y="263.07506053268764" width="4.842615012106537" height="4.842615012106537" fill="#4a90d9" stroke="#357abd" stroke-width="2" opacity="0.5"/>
<rect x="191.64648910411623" y="387.04600484261505" width="4.842615012106537" height="4.842615012106537" fill="#4a90d9" stroke="#357abd" stroke-width="2" opacity="0.5"/>
<rect x="368.1598062953995" y="139.1041162227603" width="4.842615012106537" height="4.842615012106537" fill="#4a90d9" stroke="#357abd" stroke-width="2" opacity="0.5"/>
<rect x="544.6731234866828" y="449.0314769975787" width="4.842615012106537" height="4.842615012106537" fill="#4a90d9" stroke="#357abd" stroke-width="2" opacity="0.5"/>
<rect x="93.58353510895884" y="201.08958837772394" width="4.842615012106537" height="4.842615012106537" fill="#4a90d9" stroke="#357abd" stroke-width="2" opacity="0.5"/>
<rect x="270.0968523002421" y="325.0605326876513" width="4.842615012106537" height="4.842615012106537" fill="#4a90d9" stroke="#357abd" stroke-width="2" opacity="0.5"/>
<rect x="446.6101694915254" y="77.1186440677966" width="4.842615012106537" height="4.842615012106537" fill="#4a90d9" stroke="#357abd" stroke-width="2" opacity="0.5"/>
<rect x="152.42130750605327" y="526.5133171912832" width="4.842615012106537" height="4.842615012106537" fill="#4a90d9" stroke="#357abd" stroke-width="2" opacity="0.5"/>
<rect x="328.9346246973366" y="278.57142857142856" width="4.842615012106537" height="4.842615012106537" fill="#4a90d9" stroke="#357abd" stroke-width="2" opacity="0.5"/>
<rect x="505.4479418886199" y="402.54237288135596" width="4.842615012106537" height="4.842615012106537" fill="#4a90d9" stroke="#357abd" stroke-width="2" opacity="0.5"/>
<rect x="211.2590799031477" y="154.6004842615012" width="4.842615012106537" height="4.842615012106537" fill="#4a90d9" stroke="#357abd" stroke-width="2" opacity="0.5"/>
<rect x="387.77239709443097" y="464.5278450363196" width="4.842615012106537" height="4.842615012106537" fill="#4a90d9" stroke="#357abd" stroke-width="2" opacity="0.5"/>
<rect x="564.2857142857143" y="216.5859564164649" width="4.842615012106537" height="4.842615012106537" fill="#4a90d9" stroke="#357abd" stroke-width="2" opacity="0.5"/>
<rect x="60.89588377723971" y="340.55690072639226" width="4.842615012106537" height="4.842615012106537" fill="#4a90d9" stroke="#357abd" stroke-width="2" opacity="0.5"/>
<rect x="237.409200968523" y="92.6150121065375" width="4.842615012106537" height="4.842615012106537" fill="#4a90d9" stroke="#357abd" stroke-width="2" opacity="0.5"/>
<rect x="413.9225181598063" y="495.5205811138014" width="4.842615012106537" height="4.842615012106537" fill="#4a90d9" stroke="#357abd" stroke-width="2" opacity="0.5"/>
<rect x="119.73365617433414" y="247.57869249394673" width="4.842615012106537" height="4.842615012106537" fill="#4a90d9" stroke="#357abd" stroke-width="2" opacity="0.5"/>
<rect x="296.24697336561746" y="371.5496368038741" width="4.842615012106537" height="4.842615012106537" fill="#4a90d9" stroke="#357abd" stroke-width="2" opacity="0.5"/>
<rect x="472.7602905569007" y="123.60774818401939" width="4.842615012106537" height="4.842615012106537" fill="#4a90d9" stroke="#357abd" stroke-width="2" opacity="0.5"/>
<rect x="178.57142857142858" y="433.5351089588378" width="4.842615012106537" height="4.842615012106537" fill="#4a90d9" stroke="#357abd" stroke-width="2" opacity="0.5"/>
<rect x="355.08474576271186" y="185.59322033898303" width="4.842615012106537" height="4.842615012106537" fill="#4a90d9" stroke="#357abd" stroke-width="2" opacity="0.5"/>
<rect x="531.5980629539952" y="309.5641646489104" width="4.842615012106537" height="4.842615012106537" fill="#4a90d9" stroke="#357abd" stroke-width="2" opacity="0.5"/>
<rect x="80.50847457627118" y="61.62227602905568" width="4.842615012106537" height="4.842615012106537" fill="#4a90d9" stroke="#357abd" stroke-width="2" opacity="0.5"/>
<rect x="257.0217917675545" y="534.2615012106537" width="4.842615012106537" height="4.842615012106537" fill="#4a90d9" stroke="#357abd" stroke-width="2" opacity="0.5"/>
<rect x="433.5351089588378" y="286.319612590799" width="4.842615012106537" height="4.842615012106537" fill="#4a90d9" stroke="#357abd" stroke-width="2" opacity="0.5"/>
<rect x="139.34624697336562" y="410.2905569007264" width="4.842615012106537" height="4.842615012106537" fill="#4a90d9" stroke="#357abd" stroke-width="2" opacity="0.5"/>
<rect x="315.85956416464893" y="162.34866828087166" width="4.842615012106537" height="4.842615012106537" fill="#4a90d9" stroke="#357abd" stroke-width="2" opacity="0.5"/>
<rect x="492.3728813559322" y="472.27602905569006" width="4.842615012106537" height="4.842615012106537" fill="#4a90d9" stroke="#357abd" stroke-width="2" opacity="0.5"/>
<rect x="198.18401937046005" y="224.33414043583537" width="4.842615012106537" height="4.842615012106537" fill="#4a90d9" stroke="#357abd" stroke-width="2" opacity="0.5"/>
<rect x="374.6973365617433" y="348.3050847457627" width="4.842615012106537" height="4.842615012106537" fill="#4a90d9" stroke="#357abd" stroke-width="2" opacity="0.5"/>
<rect x="551.2106537530267" y="100.36319612590796" width="4.842615012106537" height="4.842615012106537" fill="#4a90d9" stroke="#357abd" stroke-width="2" opacity="0.5"/>
<rect x="100.12106537530266" y="503.2687651331719" width="4.842615012106537" height="4.842615012106537" fill="#4a90d9" stroke="#357abd" stroke-width="2" opacity="0.5"/>
<rect x="276.63438256658594" y="255.3268765133172" width="4.842615012106537" height="4.842615012106537" fill="#4a90d9" stroke="#357abd" stroke-width="2" opacity="0.5"/>
<rect x="453.14769975786925" y="379.2978208232446" width="4.842615012106537" height="4.842615012106537" fill="#4a90d9" stroke="#357abd" stroke-width="2" opacity="0.5"/>
<rect x="158.9588377723971" y="131.35593220338984" width="4.842615012106537" height="4.842615012106537" fill="#4a90d9" stroke="#357abd" stroke-width="2" opacity="0.5"/>
<rect x="335.4721549636804" y="441.28329297820824" width="4.842615012106537" height="4.842615012106537" fill="#4a90d9" stroke="#357abd" stroke-width="2" opacity="0.5"/>
<rect x="511.9854721549637" y="193.3414043583535" width="4.842615012106537" height="4.842615012106537" fill="#4a90d9" stroke="#357abd" stroke-width="2" opacity="0.5"/>
<rect x="217.79661016949152" y="317.31234866828083" width="4.842615012106537" height="4.842615012106537" fill="#4a90d9" stroke="#357abd" stroke-width="2" opacity="0.5"/>
<rect x="394.3099273607748" y="69.37046004842614" width="4.842615012106537" height="4.842615012106537" fill="#4a90d9" stroke="#357abd" stroke-width="2" opacity="0.5"/>
<rect x="570.8232445520581" y="518.7651331719128" width="4.842615012106537" height="4.842615012106537" fill="#4a90d9" stroke="#357abd" stroke-width="2" opacity="0.5"/>
<rect x="67.43341404358354" y="270.8232445520581" width="4.842615012106537" height="4.842615012106537" fill="#4a90d9" stroke="#357abd" stroke-width="2" opacity="0.5"/>
<rect x="243.94673123486683" y="394.7941888619855" width="4.842615012106537" height="4.842615012106537" fill="#4a90d9" stroke="#357abd" stroke-width="2" opacity="0.5"/>
<rect x="420.46004842615014" y="146.85230024213075" width="4.842615012106537" height="4.842615012106537" fill="#4a90d9" stroke="#357abd" stroke-width="2" opacity="0.5"/>
<rect x="126.27118644067797" y="456.77966101694915" width="4.842615012106537" height="4.842615012106537" fill="#4a90d9" stroke="#357abd" stroke-width="2" opacity="0.5"/>
<rect x="302.78450363196123" y="208.83777239709445" width="4.842615012106537" height="4.842615012106537" fill="#4a90d9" stroke="#357abd" stroke-width="2" opacity="0.5"/>
<rect x="479.29782082324454" y="332.8087167070218" width="4.842615012106537" height="4.842615012106537" fill="#4a90d9" stroke="#357abd" stroke-width="2" opacity="0.5"/>
<rect x="185.1089588377724" y="84.86682808716705" width="4.842615012106537" height="4.842615012106537" fill="#4a90d9" stroke="#357abd" stroke-width="2" opacity="0.5"/>
<rect x="361.6222760290557" y="487.77239709443097" width="4.842615012106537" height="4.842615012106537" fill="#4a90d9" stroke="#357abd" stroke-width="2" opacity="0.5"/>
<rect x="538.1355932203389" y="239.83050847457628" width="4.842615012106537" height="4.842615012106537" fill="#4a90d9" stroke="#357abd" stroke-width="2" opacity="0.5"/>
<rect x="87.04600484261502" y="363.8014527845036" width="4.842615012106537" height="4.842615012106537" fill="#4a90d9" stroke="#357abd" stroke-width="2" opacity="0.5"/>
<rect x="263.5593220338983" y="115.85956416464893" width="4.842615012106537" height="4.842615012106537" fill="#4a90d9" stroke="#357abd" stroke-width="2" opacity="0.5"/>
<rect x="440.0726392251816" y="425.7869249394673" width="4.842615012106537" height="4.842615012106537" fill="#4a90d9" stroke="#357abd" stroke-width="2" opacity="0.5"/>
<rect x="145.88377723970945" y="177.84503631961257" width="4.842615012106537" height="4.842615012106537" fill="#4a90d9" stroke="#357abd" stroke-width="2" opacity="0.5"/>
<rect x="322.39709443099275" y="301.8159806295399" width="4.842615012106537" height="4.842615012106537" fill="#4a90d9" stroke="#357abd" stroke-width="2" opacity="0.5"/>
<rect x="498.91041162227606" y="53.87409200968523" width="4.842615012106537" height="4.842615012106537" fill="#4a90d9" stroke="#357abd" stroke-width="2" opacity="0.5"/>
<rect x="204.72154963680387" y="538.1355932203389" width="4.842615012106537" height="4.842615012106537" fill="#4a90d9" stroke="#357abd" stroke-width="2" opacity="0.5"/>
<rect x="381.23486682808715" y="290.19370460048424" width="4.842615012106537" height="4.842615012106537" fill="#4a90d9" stroke="#357abd" stroke-width="2" opacity="0.5"/>
<rect x="557.7481840193705" y="414.16464891041164" width="4.842615012106537" height="4.842615012106537" fill="#4a90d9" stroke="#357abd" stroke-width="2" opacity="0.5"/>
<rect x="106.65859564164649" y="166.2227602905569" width="4.842615012106537" height="4.842615012106537" fill="#4a90d9" stroke="#357abd" stroke-width="2" opacity="0.5"/>
<rect x="283.1719128329298" y="476.1501210653753" width="4.842615012106537" height="4.842615012106537" fill="#4a90d9" stroke="#357abd" stroke-width="2" opacity="0.5"/>
<rect x="459.68523002421307" y="228.2082324455206" width="4.842615012106537" height="4.842615012106537" fill="#4a90d9" stroke="#357abd" stroke-width="2" opacity="0.5"/>
<rect x="165.4963680387409" y="352.17917675544794" width="4.842615012106537" height="4.842615012106537" fill="#4a90d9" stroke="#357abd" stroke-width="2" opacity="0.5"/>
<rect x="342.0096852300242" y="104.23728813559325" width="4.842615012106537" height="4.842615012106537" fill="#4a90d9" stroke="#357abd" stroke-width="2" opacity="0.5"/>
<rect x="518.5230024213075" y="507.14285714285717" width="4.842615012106537" height="4.842615012106537" fill="#4a90d9" stroke="#357abd" stroke-width="2" opacity="0.5"/>
<rect x="224.33414043583537" y="259.2009685230024" width="4.842615012106537" height="4.842615012106537" fill="#4a90d9" stroke="#357abd" stroke-width="2" opacity="0.5"/>
<rect x="400.8474576271187" y="383.1719128329298" width="4.842615012106537" height="4.842615012106537" fill="#4a90d9" stroke="#357abd" stroke-width="2" opacity="0.5"/>
<rect x="577.360774818402" y="135.23002421307507" width="4.842615012106537" height="4.842615012106537" fill="#4a90d9" stroke="#357abd" stroke-width="2" opacity="0.5"/>
<rect x="50.72639225181598" y="445.15738498789347" width="4.842615012106537" height="4.842615012106537" fill="#4a90d9" stroke="#357abd" stroke-width="2" opacity="0.5"/>
<rect x="227.2397094430993" y="197.2154963680387" width="4.842615012106537" height="4.842615012106537" fill="#4a90d9" stroke="#357abd" stroke-width="2" opacity="0.5"/>
<rect x="403.7530266343826" y="321.18644067796606" width="4.842615012106537" height="4.842615012106537" fill="#4a90d9" stroke="#357abd" stroke-width="2" opacity="0.5"/>
<rect x="109.5641646489104" y="73.24455205811137" width="4.842615012106537" height="4.842615012106537" fill="#4a90d9" stroke="#357abd" stroke-width="2" opacity="0.5"/>
<rect x="286.07748184019374" y="522.639225181598" width="4.842615012106537" height="4.842615012106537" fill="#4a90d9" stroke="#357abd" stroke-width="2" opacity="0.5"/>
<rect x="462.590799031477" y="274.6973365617433" width="4.842615012106537" height="4.842615012106537" fill="#4a90d9" stroke="#357abd" stroke-width="2" opacity="0.5"/>
<rect x="168.40193704600483" y="398.66828087167073" width="4.842615012106537" height="4.842615012106537" fill="#4a90d9" stroke="#357abd" stroke-width="2" opacity="0.5"/>
<rect x="344.91525423728814" y="150.72639225181598" width="4.842615012106537" height="4.842615012106537" fill="#4a90d9" stroke="#357abd" stroke-width="2" opacity="0.5"/>
<rect x="521.4285714285714" y="460.6537530266344" width="4.842615012106537" height="4.842615012106537" fill="#4a90d9" stroke="#357abd" stroke-width="2" opacity="0.5"/>
<rect x="70.33898305084746" y="212.71186440677968" width="4.842615012106537" height="4.842615012106537" fill="#4a90d9" stroke="#357abd" stroke-width="2" opacity="0.5"/>
<rect x="246.85230024213075" y="336.68280871670703" width="4.842615012106537" height="4.842615012106537" fill="#4a90d9" stroke="#357abd" stroke-width="2" opacity="0.5"/>
<rect x="423.36561743341406" y="88.74092009685228" width="4.842615012106537" height="4.842615012106537" fill="#4a90d9" stroke="#357abd" stroke-width="2" opacity="0.5"/>
<rect x="129.1767554479419" y="491.6464891041162" width="4.842615012106537" height="4.842615012106537" fill="#4a90d9" stroke="#357abd" stroke-width="2" opacity="0.5"/>
<rect x="305.69007263922515" y="243.7046004842615" width="4.842615012106537" height="4.842615012106537" fill="#4a90d9" stroke="#357abd" stroke-width="2" opacity="0.5"/>
<rect x="482.20338983050846" y="367.67554479418885" width="4.842615012106537" height="4.842615012106537" fill="#4a90d9" stroke="#357abd" stroke-width="2" opacity="0.5"/>
<rect x="188.01452784503633" y="119.73365617433416" width="4.842615012106537" height="4.842615012106537" fill="#4a90d9" stroke="#357abd" stroke-width="2" opacity="0.5"/>
<rect x="364.5278450363196" y="429.66101694915255" width="4.842615012106537" height="4.842615012106537" fill="#4a90d9" stroke="#357abd" stroke-width="2" opacity="0.5"/>
<rect x="541.0411622276029" y="181.7191283292978" width="4.842615012106537" height="4.842615012106537" fill="#4a90d9" stroke="#357abd" stroke-width="2" opacity="0.5"/>
<rect x="89.95157384987894" y="305.69007263922515" width="4.842615012106537" height="4.842615012106537" fill="#4a90d9" stroke="#357abd" stroke-width="2" opacity="0.5"/>
<rect x="266.4648910411622" y="57.748184019370456" width="4.842615012106537" height="4.842615012106537" fill="#4a90d9" stroke="#357abd" stroke-width="2" opacity="0.5"/>
<rect x="442.9782082324455" y="530.3874092009685" width="4.842615012106537" height="4.842615012106537" fill="#4a90d9" stroke="#357abd" stroke-width="2" opacity="0.5"/>
<rect x="148.78934624697337" y="282.4455205811138" width="4.842615012106537" height="4.842615012106537" fill="#4a90d9" stroke="#357abd" stroke-width="2" opacity="0.5"/>
<rect x="325.3026634382567" y="406.4164648910412" width="4.842615012106537" height="4.842615012106537" fill="#4a90d9" stroke="#357abd" stroke-width="2" opacity="0.5"/>
<rect x="501.81598062954" y="158.47457627118644" width="4.842615012106537" height="4.842615012106537" fill="#4a90d9" stroke="#357abd" stroke-width="2" opacity="0.5"/>
<rect x="207.6271186440678" y="468.40193704600483" width="4.842615012106537" height="4.842615012106537" fill="#4a90d9" stroke="#357abd" stroke-width="2" opacity="0.5"/>
<rect x="384.14043583535107" y="220.46004842615014" width="4.842615012106537" height="4.842615012106537" fill="#4a90d9" stroke="#357abd" stroke-width="2" opacity="0.5"/>
<rect x="560.6537530266344" y="344.4309927360775" width="4.842615012106537" height="4.842615012106537" fill="#4a90d9" stroke="#357abd" stroke-width="2" opacity="0.5"/>
<rect x="57.26392251815981" y="96.48910411622273" width="4.842615012106537" height="4.842615012106537" fill="#4a90d9" stroke="#357abd" stroke-width="2" opacity="0.5"/>
<rect x="233.7772397094431" y="499.39467312348665" width="4.842615012106537" height="4.842615012106537" fill="#4a90d9" stroke="#357abd" stroke-width="2" opacity="0.5"/>
<rect x="410.2905569007264" y="251.45278450363196" width="4.842615012106537" height="4.842615012106537" fill="#4a90d9" stroke="#357abd" stroke-width="2" opacity="0.5"/>
<rect x="116.10169491525424" y="375.4237288135593" width="4.842615012106537" height="4.842615012106537" fill="#4a90d9" stroke="#357abd" stroke-width="2" opacity="0.5"/>
<rect x="292.6150121065375" y="127.48184019370461" width="4.842615012106537" height="4.842615012106537" fill="#4a90d9" stroke="#357abd" stroke-width="2" opacity="0.5"/>
<rect x="469.1283292978208" y="437.409200968523" width="4.842615012106537" height="4.842615012106537" fill="#4a90d9" stroke="#357abd" stroke-width="2" opacity="0.5"/>
<rect x="174.93946731234865" y="189.46731234866826" width="4.842615012106537" height="4.842615012106537" fill="#4a90d9" stroke="#357abd" stroke-width="2" opacity="0.5"/>
<rect x="351.45278450363196" y="313.4382566585956" width="4.842615012106537" height="4.842615012106537" fill="#4a90d9" stroke="#357abd" stroke-width="2" opacity="0.5"/>
<rect x="527.9661016949153" y="65.49636803874091" width="4.842615012106537" height="4.842615012106537" fill="#4a90d9" stroke="#357abd" stroke-width="2" opacity="0.5"/>
<rect x="76.87651331719128" y="514.8910411622276" width="4.842615012106537" height="4.842615012106537" fill="#4a90d9" stroke="#357abd" stroke-width="2" opacity="0.5"/>
<rect x="253.38983050847457" y="266.9491525423729" width="4.842615012106537" height="4.842615012106537" fill="#4a90d9" stroke="#357abd" stroke-width="2" opacity="0.5"/>
<rect x="429.9031476997579" y="390.9200968523003" width="4.842615012106537" height="4.842615012106537" fill="#4a90d9" stroke="#357abd" stroke-width="2" opacity="0.5"/>
<rect x="135.71428571428572" y="142.97820823244552" width="4.842615012106537" height="4.842615012106537" fill="#4a90d9" stroke="#357abd" stroke-width="2" opacity="0.5"/>
<rect x="312.22760290556903" y="452.9055690072639" width="4.842615012106537" height="4.842615012106537" fill="#4a90d9" stroke="#357abd" stroke-width="2" opacity="0.5"/>
<rect x="488.7409200968523" y="204.96368038740923" width="4.842615012106537" height="4.842615012106537" fill="#4a90d9" stroke="#357abd" stroke-width="2" opacity="0.5"/>
<rect x="194.55205811138015" y="328.9346246973366" width="4.842615012106537" height="4.842615012106537" fill="#4a90d9" stroke="#357abd" stroke-width="2" opacity="0.5"/>
<rect x="371.0653753026634" y="80.99273607748182" width="4.842615012106537" height="4.842615012106537" fill="#4a90d9" stroke="#357abd" stroke-width="2" opacity="0.5"/>
<rect x="547.5786924939467" y="483.89830508474574" width="4.842615012106537" height="4.842615012106537" fill="#4a90d9" stroke="#357abd" stroke-width="2" opacity="0.5"/>
<rect x="96.48910411622276" y="235.95641646489105" width="4.842615012106537" height="4.842615012106537" fill="#4a90d9" stroke="#357abd" stroke-width="2" opacity="0.5"/>
<rect x="273.00242130750604" y="359.9273607748184" width="4.842615012106537" height="4.842615012106537" fill="#4a90d9" stroke="#357abd" stroke-width="2" opacity="0.5"/>
<rect x="449.51573849878935" y="111.9854721549637" width="4.842615012106537" height="4.842615012106537" fill="#4a90d9" stroke="#357abd" stroke-width="2" opacity="0.5"/>
<rect x="155.3268765133172" y="421.9128329297821" width="4.842615012106537" height="4.842615012106537" fill="#4a90d9" stroke="#357abd" stroke-width="2" opacity="0.5"/>
<rect x="331.8401937046005" y="173.97094430992735" width="4.842615012106537" height="4.842615012106537" fill="#4a90d9" stroke="#357abd" stroke-width="2" opacity="0.5"/>
<rect x="508.3535108958838" y="297.9418886198547" width="4.842615012106537" height="4.842615012106537" fill="#4a90d9" stroke="#357abd" stroke-width="2" opacity="0.5"/>
<rect x="214.16464891041161" y="50.0" width="4.842615012106537" height="4.842615012106537" fill="#4a90d9" stroke="#357abd" stroke-width="2" opacity="0.5"/>
<rect x="390.6779661016949" y="545.1573849878935" width="4.842615012106537" height="4.842615012106537" fill="#4a90d9" stroke="#357abd" stroke-width="2" opacity="0.5"/>
<rect x="567.1912832929783" y="297.21549636803877" width="4.842615012106537" height="4.842615012106537" fill="#4a90d9" stroke="#357abd" stroke-width="2" opacity="0.5"/>
<rect x="63.80145278450363" y="421.18644067796606" width="4.842615012106537" height="4.842615012106537" fill="#4a90d9" stroke="#357abd" stroke-width="2" opacity="0.5"/>
<rect x="240.31476997578693" y="173.24455205811137" width="4.842615012106537" height="4.842615012106537" fill="#4a90d9" stroke="#357abd" stroke-width="2" opacity="0.5"/>
<rect x="416.82808716707024" y="483.17191283292976" width="4.842615012106537" height="4.842615012106537" fill="#4a90d9" stroke="#357abd" stroke-width="2" opacity="0.5"/>
<rect x="122.63922518159806" y="235.23002421307507" width="4.842615012106537" height="4.842615012106537" fill="#4a90d9" stroke="#357abd" stroke-width="2" opacity="0.5"/>
<rect x="299.1525423728814" y="359.2009685230024" width="4.842615012106537" height="4.842615012106537" fill="#4a90d9" stroke="#357abd" stroke-width="2" opacity="0.5"/>
<rect x="475.66585956416463" y="111.25907990314772" width="4.842615012106537" height="4.842615012106537" fill="#4a90d9" stroke="#357abd" stroke-width="2" opacity="0.5"/>
<rect x="181.4769975786925" y="514.1646489104116" width="4.842615012106537" height="4.842615012106537" fill="#4a90d9" stroke="#357abd" stroke-width="2" opacity="0.5"/>
<rect x="357.9903147699758" y="266.2227602905569" width="4.842615012106537" height="4.842615012106537" fill="#4a90d9" stroke="#357abd" stroke-width="2" opacity="0.5"/>
<rect x="534.5036319612591" y="390.19370460048424" width="4.842615012106537" height="4.842615012106537" fill="#4a90d9" stroke="#357abd" stroke-width="2" opacity="0.5"/>
<rect x="83.41404358353512" y="142.25181598062954" width="4.842615012106537" height="4.842615012106537" fill="#4a90d9" stroke="#357abd" stroke-width="2" opacity="0.5"/>
<rect x="259.9273607748184" y="452.17917675544794" width="4.842615012106537" height="4.842615012106537" fill="#4a90d9" stroke="#357abd" stroke-width="2" opacity="0.5"/>
<rect x="436.4406779661017" y="204.23728813559325" width="4.842615012106537" height="4.842615012106537" fill="#4a90d9" stroke="#357abd" stroke-width="2" opacity="0.5"/>
<rect x="142.25181598062954" y="328.2082324455206" width="4.842615012106537" height="4.842615012106537" fill="#4a90d9" stroke="#357abd" stroke-width="2" opacity="0.5"/>
<rect x="318.76513317191285" y="80.26634382566584" width="4.842615012106537" height="4.842615012106537" fill="#4a90d9" stroke="#357abd" stroke-width="2" opacity="0.5"/>
<rect x="495.2784503631961" y="529.6610169491526" width="4.842615012106537" height="4.842615012106537" fill="#e74c3c" stroke="#c0392b" stroke-width="2" opacity="0.7"/>
<rect x="201.08958837772397" y="281.7191283292978" width="4.842615012106537" height="4.842615012106537" fill="#e74c3c" stroke="#c0392b" stroke-width="2" opacity="0.7"/>
<rect x="377.60290556900725" y="405.69007263922515" width="4.842615012106537" height="4.842615012106537" fill="#e74c3c" stroke="#c0392b" stroke-width="2" opacity="0.7"/>
<rect x="554.1162227602906" y="157.74818401937046" width="4.842615012106537" height="4.842615012106537" fill="#e74c3c" stroke="#c0392b" stroke-width="2" opacity="0.7"/>
<rect x="103.02663438256658" y="467.67554479418885" width="4.842615012106537" height="4.842615012106537" fill="#e74c3c" stroke="#c0392b" stroke-width="2" opacity="0.7"/>
<rect x="279.53995157384986" y="219.73365617433416" width="4.842615012106537" height="4.842615012106537" fill="#e74c3c" stroke="#c0392b" stroke-width="2" opacity="0.7"/>
<rect x="456.05326876513317" y="343.7046004842615" width="4.842615012106537" height="4.842615012106537" fill="#e74c3c" stroke="#c0392b" stroke-width="2" opacity="0.7"/>
<rect x="161.864406779661" y="95.76271186440675" width="4.842615012106537" height="4.842615012106537" fill="#e74c3c" stroke="#c0392b" stroke-width="2" opacity="0.7"/>
<rect x="338.3777239709443" y="498.66828087167073" width="4.842615012106537" height="4.842615012106537" fill="#e74c3c" stroke="#c0392b" stroke-width="2" opacity="0.7"/>
<rect x="514.8910411622276" y="250.72639225181598" width="4.842615012106537" height="4.842615012106537" fill="#e74c3c" stroke="#c0392b" stroke-width="2" opacity="0.7"/>
<rect x="220.70217917675544" y="374.6973365617433" width="4.842615012106537" height="4.842615012106537" fill="#e74c3c" stroke="#c0392b" stroke-width="2" opacity="0.7"/>
<rect x="397.21549636803877" y="126.75544794188863" width="4.842615012106537" height="4.842615012106537" fill="#e74c3c" stroke="#c0392b" stroke-width="2" opacity="0.7"/>
<rect x="573.728813559322" y="436.68280871670703" width="4.842615012106537" height="4.842615012106537" fill="#e74c3c" stroke="#c0392b" stroke-width="2" opacity="0.7"/>
<rect x="52.90556900726392" y="188.74092009685228" width="4.842615012106537" height="4.842615012106537" fill="#4a90d9" stroke="#357abd" stroke-width="2" opacity="0.5"/>
<rect x="229.41888619854723" y="312.7118644067797" width="4.842615012106537" height="4.842615012106537" fill="#4a90d9" stroke="#357abd" stroke-width="2" opacity="0.5"/>
<rect x="405.93220338983053" y="64.76997578692493" width="4.842615012106537" height="4.842615012106537" fill="#4a90d9" stroke="#357abd" stroke-width="2" opacity="0.5"/>
<rect x="111.74334140435835" y="537.409200968523" width="4.842615012106537" height="4.842615012106537" fill="#4a90d9" stroke="#357abd" stroke-width="2" opacity="0.5"/>
<rect x="288.2566585956416" y="289.46731234866826" width="4.842615012106537" height="4.842615012106537" fill="#4a90d9" stroke="#357abd" stroke-width="2" opacity="0.5"/>
<rect x="464.76997578692493" y="413.4382566585956" width="4.842615012106537" height="4.842615012106537" fill="#4a90d9" stroke="#357abd" stroke-width="2" opacity="0.5"/>
<rect x="170.58111380145277" y="165.4963680387409" width="4.842615012106537" height="4.842615012106537" fill="#4a90d9" stroke="#357abd" stroke-width="2" opacity="0.5"/>
<rect x="347.0944309927361" y="475.4237288135593" width="4.842615012106537" height="4.842615012106537" fill="#4a90d9" stroke="#357abd" stroke-width="2" opacity="0.5"/>
<rect x="523.6077481840193" y="227.4818401937046" width="4.842615012106537" height="4.842615012106537" fill="#4a90d9" stroke="#357abd" stroke-width="2" opacity="0.5"/>
<rect x="72.5181598062954" y="351.45278450363196" width="4.842615012106537" height="4.842615012106537" fill="#4a90d9" stroke="#357abd" stroke-width="2" opacity="0.5"/>
<rect x="249.0314769975787" y="103.51089588377721" width="4.842615012106537" height="4.842615012106537" fill="#4a90d9" stroke="#357abd" stroke-width="2" opacity="0.5"/>
<rect x="425.544794188862" y="506.4164648910412" width="4.842615012106537" height="4.842615012106537" fill="#4a90d9" stroke="#357abd" stroke-width="2" opacity="0.5"/>
<rect x="131.35593220338984" y="258.47457627118644" width="4.842615012106537" height="4.842615012106537" fill="#4a90d9" stroke="#357abd" stroke-width="2" opacity="0.5"/>
<rect x="307.86924939467315" y="382.4455205811138" width="4.842615012106537" height="4.842615012106537" fill="#4a90d9" stroke="#357abd" stroke-width="2" opacity="0.5"/>
<rect x="484.3825665859564" y="134.5036319612591" width="4.842615012106537" height="4.842615012106537" fill="#4a90d9" stroke="#357abd" stroke-width="2" opacity="0.5"/>
<rect x="190.19370460048427" y="444.4309927360775" width="4.842615012106537" height="4.842615012106537" fill="#4a90d9" stroke="#357abd" stroke-width="2" opacity="0.5"/>
<rect x="366.70702179176754" y="196.48910411622273" width="4.842615012106537" height="4.842615012106537" fill="#4a90d9" stroke="#357abd" stroke-width="2" opacity="0.5"/>
<rect x="543.2203389830509" y="320.46004842615014" width="4.842615012106537" height="4.842615012106537" fill="#4a90d9" stroke="#357abd" stroke-width="2" opacity="0.5"/>
<rect x="92.13075060532688" y="72.51815980629539" width="4.842615012106537" height="4.842615012106537" fill="#4a90d9" stroke="#357abd" stroke-width="2" opacity="0.5"/>
<rect x="268.64406779661016" y="521.9128329297821" width="4.842615012106537" height="4.842615012106537" fill="#4a90d9" stroke="#357abd" stroke-width="2" opacity="0.5"/>
<rect x="445.15738498789347" y="273.97094430992735" width="4.842615012106537" height="4.842615012106537" fill="#4a90d9" stroke="#357abd" stroke-width="2" opacity="0.5"/>
<rect x="150.9685230024213" y="397.9418886198547" width="4.842615012106537" height="4.842615012106537" fill="#4a90d9" stroke="#357abd" stroke-width="2" opacity="0.5"/>
<rect x="327.4818401937046" y="150.0" width="4.842615012106537" height="4.842615012106537" fill="#4a90d9" stroke="#357abd" stroke-width="2" opacity="0.5"/>
<rect x="503.9951573849879" y="459.9273607748184" width="4.842615012106537" height="4.842615012106537" fill="#4a90d9" stroke="#357abd" stroke-width="2" opacity="0.5"/>
<rect x="209.80629539951573" y="211.9854721549637" width="4.842615012106537" height="4.842615012106537" fill="#4a90d9" stroke="#357abd" stroke-width="2" opacity="0.5"/>
<rect x="386.319612590799" y="335.95641646489105" width="4.842615012106537" height="4.842615012106537" fill="#4a90d9" stroke="#357abd" stroke-width="2" opacity="0.5"/>
<rect x="562.8329297820824" y="88.0145278450363" width="4.842615012106537" height="4.842615012106537" fill="#4a90d9" stroke="#357abd" stroke-width="2" opacity="0.5"/>
<rect x="59.44309927360775" y="490.9200968523002" width="4.842615012106537" height="4.842615012106537" fill="#4a90d9" stroke="#357abd" stroke-width="2" opacity="0.5"/>
<rect x="235.95641646489105" y="242.97820823244552" width="4.842615012106537" height="4.842615012106537" fill="#4a90d9" stroke="#357abd" stroke-width="2" opacity="0.5"/>
<rect x="412.46973365617436" y="366.9491525423729" width="4.842615012106537" height="4.842615012106537" fill="#4a90d9" stroke="#357abd" stroke-width="2" opacity="0.5"/>
<rect x="118.28087167070218" y="119.00726392251818" width="4.842615012106537" height="4.842615012106537" fill="#4a90d9" stroke="#357abd" stroke-width="2" opacity="0.5"/>
<rect x="294.7941888619855" y="428.9346246973366" width="4.842615012106537" height="4.842615012106537" fill="#4a90d9" stroke="#357abd" stroke-width="2" opacity="0.5"/>
<rect x="471.30750605326875" y="180.99273607748182" width="4.842615012106537" height="4.842615012106537" fill="#4a90d9" stroke="#357abd" stroke-width="2" opacity="0.5"/>
<rect x="177.1186440677966" y="304.9636803874092" width="4.842615012106537" height="4.842615012106537" fill="#4a90d9" stroke="#357abd" stroke-width="2" opacity="0.5"/>
<rect x="353.6319612590799" y="57.021791767554475" width="4.842615012106537" height="4.842615012106537" fill="#4a90d9" stroke="#357abd" stroke-width="2" opacity="0.5"/>
<rect x="530.1452784503632" y="541.2832929782082" width="4.842615012106537" height="4.842615012106537" fill="#4a90d9" stroke="#357abd" stroke-width="2" opacity="0.5"/>
<rect x="79.05569007263922" y="293.3414043583535" width="4.842615012106537" height="4.842615012106537" fill="#4a90d9" stroke="#357abd" stroke-width="2" opacity="0.5"/>
<rect x="255.56900726392251" y="417.31234866828083" width="4.842615012106537" height="4.842615012106537" fill="#4a90d9" stroke="#357abd" stroke-width="2" opacity="0.5"/>
<rect x="432.0823244552058" y="169.37046004842614" width="4.842615012106537" height="4.842615012106537" fill="#4a90d9" stroke="#357abd" stroke-width="2" opacity="0.5"/>
<rect x="137.89346246973366" y="479.29782082324454" width="4.842615012106537" height="4.842615012106537" fill="#4a90d9" stroke="#357abd" stroke-width="2" opacity="0.5"/>
<rect x="314.40677966101697" y="231.35593220338984" width="4.842615012106537" height="4.842615012106537" fill="#4a90d9" stroke="#357abd" stroke-width="2" opacity="0.5"/>
<rect x="490.9200968523002" y="355.3268765133172" width="4.842615012106537" height="4.842615012106537" fill="#4a90d9" stroke="#357abd" stroke-width="2" opacity="0.5"/>
<rect x="196.7312348668281" y="107.3849878934625" width="4.842615012106537" height="4.842615012106537" fill="#4a90d9" stroke="#357abd" stroke-width="2" opacity="0.5"/>
<rect x="373.24455205811137" y="510.2905569007264" width="4.842615012106537" height="4.842615012106537" fill="#4a90d9" stroke="#357abd" stroke-width="2" opacity="0.5"/>
<rect x="549.7578692493946" y="262.34866828087166" width="4.842615012106537" height="4.842615012106537" fill="#4a90d9" stroke="#357abd" stroke-width="2" opacity="0.5"/>
<rect x="98.6682808716707" y="386.319612590799" width="4.842615012106537" height="4.842615012106537" fill="#4a90d9" stroke="#357abd" stroke-width="2" opacity="0.5"/>
<rect x="275.181598062954" y="138.37772397094432" width="4.842615012106537" height="4.842615012106537" fill="#4a90d9" stroke="#357abd" stroke-width="2" opacity="0.5"/>
<rect x="451.6949152542373" y="448.3050847457627" width="4.842615012106537" height="4.842615012106537" fill="#4a90d9" stroke="#357abd" stroke-width="2" opacity="0.5"/>
</svg>
