<svg xmlns="http://www.w3.org/2000/svg" width="800" height="600"><rect width="100%" height="100%" fill="#fff"/><defs><marker id="arrowhead" markerHeight="7" markerWidth="10" orient="auto" refX="9" refY="3.5"><polygon fill="#000" points="0 0 10 3.5 0 7"/></marker></defs><line x1="550" x2="150" y1="550" y2="550" stroke="#000" stroke-width="2" marker-end="url(#arrowhead)"/><line x1="550" x2="550" y1="550" y2="150" stroke="#000" stroke-width="2" marker-end="url(#arrowhead)"/><line x1="150" x2="100" y1="550" y2="550" stroke="#000" stroke-width="2" marker-end="url(#arrowhead)"/><line x1="150" x2="150" y1="550" y2="450" stroke="#000" stroke-width="2" marker-end="url(#arrowhead)"/><line x1="100" x2="50" y1="550" y2="550" stroke="#000" stroke-width="2" marker-end="url(#arrowhead)"/><line x1="100" x2="100" y1="550" y2="500" stroke="#000" stroke-width="2" marker-end="url(#arrowhead)"/><line x1="150" x2="200" y1="450" y2="400" stroke="#000" stroke-width="2" marker-end="url(#arrowhead)"/><line x1="200" x2="250" y1="400" y2="350" stroke="#000" stroke-width="2" marker-end="url(#arrowhead)"/><line x1="250" x2="300" y1="350" y2="300" stroke="#000" stroke-width="2" marker-end="url(#arrowhead)"/><line x1="550" x2="550" y1="150" y2="100" stroke="#000" stroke-width="2" marker-end="url(#arrowhead)"/><line x1="550" x2="450" y1="150" y2="150" stroke="#000" stroke-width="2" marker-end="url(#arrowhead)"/><line x1="550" x2="550" y1="100" y2="50" stroke="#000" stroke-width="2" marker-end="url(#arrowhead)"/><line x1="550" x2="500" y1="100" y2="100" stroke="#000" stroke-width="2" marker-end="url(#arrowhead)"/><line x1="450" x2="400" y1="150" y2="200" stroke="#000" stroke-width="2" marker-end="url(#arrowhead)"/><line x1="400" x2="350" y1="200" y2="250" stroke="#000" stroke-width="2" marker-end="url(#arrowhead)"/><circle cx="550" cy="550" r="8" fill="red" stroke="#000" stroke-width="1"/><text x="560" y="554" fill="#000" font-family="Arial" font-size="10">S</text><text x="550" y="537" fill="gray" font-family="Arial" font-size="8" text-anchor="middle">(0,0)</text><circle cx="50" cy="550" r="6" fill="green" stroke="#000" stroke-width="1"/><text x="58" y="554" fill="#000" font-family="Arial" font-size="10">T1</text><text x="50" y="539" fill="gray" font-family="Arial" font-size="8" text-anchor="middle">(-10,0)</text><circle cx="550" cy="50" r="6" fill="green" stroke="#000" stroke-width="1"/><text x="558" y="54" fill="#000" font-family="Arial" font-size="10">T2</text><text x="550" y="39" fill="gray" font-family="Arial" font-size="8" text-anchor="middle">(0,-10)</text><circle cx="100" cy="550" r="6" fill="#00f" stroke="#000" stroke-width="1"/><text x="108" y="554" fill="#000" font-family="Arial" font-size="10">S1</text><text x="100" y="539" fill="gray" font-family="Arial" font-size="8" text-anchor="middle">(-9,0)</text><circle cx="100" cy="500" r="6" fill="green" stroke="#000" stroke-width="1"/><text x="108" y="504" fill="#000" font-family="Arial" font-size="10">T3</text><text x="100" y="489" fill="gray" font-family="Arial" font-size="8" text-anchor="middle">(-9,-1)</text><circle cx="550" cy="100" r="6" fill="#00f" stroke="#000" stroke-width="1"/><text x="558" y="104" fill="#000" font-family="Arial" font-size="10">S2</text><text x="550" y="89" fill="gray" font-family="Arial" font-size="8" text-anchor="middle">(0,-9)</text><circle cx="500" cy="100" r="6" fill="green" stroke="#000" stroke-width="1"/><text x="508" y="104" fill="#000" font-family="Arial" font-size="10">T4</text><text x="500" y="89" fill="gray" font-family="Arial" font-size="8" text-anchor="middle">(-1,-9)</text><circle cx="150" cy="550" r="6" fill="#00f" stroke="#000" stroke-width="1"/><text x="158" y="554" fill="#000" font-family="Arial" font-size="10">S3</text><text x="150" y="539" fill="gray" font-family="Arial" font-size="8" text-anchor="middle">(-8,0)</text><circle cx="150" cy="450" r="6" fill="green" stroke="#000" stroke-width="1"/><text x="158" y="454" fill="#000" font-family="Arial" font-size="10">T5</text><text x="150" y="439" fill="gray" font-family="Arial" font-size="8" text-anchor="middle">(-8,-2)</text><circle cx="550" cy="150" r="6" fill="#00f" stroke="#000" stroke-width="1"/><text x="558" y="154" fill="#000" font-family="Arial" font-size="10">S4</text><text x="550" y="139" fill="gray" font-family="Arial" font-size="8" text-anchor="middle">(0,-8)</text><circle cx="450" cy="150" r="6" fill="green" stroke="#000" stroke-width="1"/><text x="458" y="154" fill="#000" font-family="Arial" font-size="10">T6</text><text x="450" y="139" fill="gray" font-family="Arial" font-size="8" text-anchor="middle">(-2,-8)</text><circle cx="200" cy="400" r="6" fill="green" stroke="#000" stroke-width="1"/><text x="208" y="404" fill="#000" font-family="Arial" font-size="10">T7</text><text x="200" y="389" fill="gray" font-family="Arial" font-size="8" text-anchor="middle">(-7,-3)</text><circle cx="400" cy="200" r="6" fill="green" stroke="#000" stroke-width="1"/><text x="408" y="204" fill="#000" font-family="Arial" font-size="10">T8</text><text x="400" y="189" fill="gray" font-family="Arial" font-size="8" text-anchor="middle">(-3,-7)</text><circle cx="250" cy="350" r="6" fill="green" stroke="#000" stroke-width="1"/><text x="258" y="354" fill="#000" font-family="Arial" font-size="10">T9</text><text x="250" y="339" fill="gray" font-family="Arial" font-size="8" text-anchor="middle">(-6,-4)</text><circle cx="350" cy="250" r="6" fill="green" stroke="#000" stroke-width="1"/><text x="358" y="254" fill="#000" font-family="Arial" font-size="10">T10</text><text x="350" y="239" fill="gray" font-family="Arial" font-size="8" text-anchor="middle">(-4,-6)</text><circle cx="300" cy="300" r="6" fill="green" stroke="#000" stroke-width="1"/><text x="308" y="304" fill="#000" font-family="Arial" font-size="10">T11</text><text x="300" y="289" fill="gray" font-family="Arial" font-size="8" text-anchor="middle">(-5,-5)</text><text x="20" y="20" font-family="Arial" font-size="12" font-weight="bold">Legend:</text><circle cx="20" cy="36" r="4" fill="red" stroke="#000"/><text x="30" y="40" font-family="Arial" font-size="10">Source</text><circle cx="20" cy="56" r="4" fill="#00f" stroke="#000"/><text x="30" y="60" font-family="Arial" font-size="10">Steiner</text><circle cx="20" cy="76" r="4" fill="green" stroke="#000"/><text x="30" y="80" font-family="Arial" font-size="10">Terminal</text><text x="20" y="110" font-family="Arial" font-size="10" font-weight="bold">Statistics:</text><text x="20" y="125" font-family="Arial" font-size="9">Total Nodes: 16</text><text x="20" y="140" font-family="Arial" font-size="9">Terminals: 11</text><text x="20" y="155" font-family="Arial" font-size="9">Steiner: 4</text><text x="20" y="170" font-family="Arial" font-size="9">Wirelength: 36.00</text></svg>