<svg width="800" height="600" xmlns="http://www.w3.org/2000/svg">
<rect width="100%" height="100%" fill="white"/>
<defs>
<marker id="arrowhead" markerWidth="10" markerHeight="7" refX="9" refY="3.5" orient="auto">
<polygon points="0 0, 10 3.5, 0 7" fill="black"/>
</marker>
</defs>
<line x1="150.0" y1="50.0" x2="250.0" y2="150.0" stroke="black" stroke-width="2" marker-end="url(#arrowhead)"/>
<line x1="250.0" y1="150.0" x2="450.0" y2="150.0" stroke="black" stroke-width="2" marker-end="url(#arrowhead)"/>
<line x1="250.0" y1="150.0" x2="250.0" y2="350.0" stroke="black" stroke-width="2" marker-end="url(#arrowhead)"/>
<line x1="450.0" y1="150.0" x2="550.0" y2="150.0" stroke="black" stroke-width="2" marker-end="url(#arrowhead)"/>
<line x1="450.0" y1="150.0" x2="450.0" y2="250.0" stroke="black" stroke-width="2" marker-end="url(#arrowhead)"/>
<line x1="250.0" y1="350.0" x2="250.0" y2="550.0" stroke="black" stroke-width="2" marker-end="url(#arrowhead)"/>
<line x1="250.0" y1="350.0" x2="50.0" y2="350.0" stroke="black" stroke-width="2" marker-end="url(#arrowhead)"/>
<circle cx="150.0" cy="50.0" r="8" fill="red" stroke="black" stroke-width="1"/>
<text x="160.0" y="54.0" font-family="Arial" font-size="10" fill="black">S</text>
<text x="150.0" y="37.0" font-family="Arial" font-size="8" fill="gray" text-anchor="middle">(3,1)</text>
<circle cx="250.0" cy="550.0" r="6" fill="green" stroke="black" stroke-width="1"/>
<text x="258.0" y="554.0" font-family="Arial" font-size="10" fill="black">T1</text>
<text x="250.0" y="539.0" font-family="Arial" font-size="8" fill="gray" text-anchor="middle">(4,6)</text>
<circle cx="250.0" cy="150.0" r="6" fill="blue" stroke="black" stroke-width="1"/>
<text x="258.0" y="154.0" font-family="Arial" font-size="10" fill="black">S1</text>
<text x="250.0" y="139.0" font-family="Arial" font-size="8" fill="gray" text-anchor="middle">(4,2)</text>
<circle cx="550.0" cy="150.0" r="6" fill="green" stroke="black" stroke-width="1"/>
<text x="558.0" y="154.0" font-family="Arial" font-size="10" fill="black">T2</text>
<text x="550.0" y="139.0" font-family="Arial" font-size="8" fill="gray" text-anchor="middle">(7,2)</text>
<circle cx="450.0" cy="150.0" r="6" fill="blue" stroke="black" stroke-width="1"/>
<text x="458.0" y="154.0" font-family="Arial" font-size="10" fill="black">S2</text>
<text x="450.0" y="139.0" font-family="Arial" font-size="8" fill="gray" text-anchor="middle">(6,2)</text>
<circle cx="450.0" cy="250.0" r="6" fill="green" stroke="black" stroke-width="1"/>
<text x="458.0" y="254.0" font-family="Arial" font-size="10" fill="black">T3</text>
<text x="450.0" y="239.0" font-family="Arial" font-size="8" fill="gray" text-anchor="middle">(6,3)</text>
<circle cx="250.0" cy="350.0" r="6" fill="blue" stroke="black" stroke-width="1"/>
<text x="258.0" y="354.0" font-family="Arial" font-size="10" fill="black">S3</text>
<text x="250.0" y="339.0" font-family="Arial" font-size="8" fill="gray" text-anchor="middle">(4,4)</text>
<circle cx="50.0" cy="350.0" r="6" fill="green" stroke="black" stroke-width="1"/>
<text x="58.0" y="354.0" font-family="Arial" font-size="10" fill="black">T4</text>
<text x="50.0" y="339.0" font-family="Arial" font-size="8" fill="gray" text-anchor="middle">(2,4)</text>
<text x="20" y="20" font-family="Arial" font-size="12" font-weight="bold">Legend:</text>
<circle cx="20" cy="36" r="4" fill="red" stroke="black"/>
<text x="30" y="40" font-family="Arial" font-size="10">Source</text>
<circle cx="20" cy="56" r="4" fill="blue" stroke="black"/>
<text x="30" y="60" font-family="Arial" font-size="10">Steiner</text>
<circle cx="20" cy="76" r="4" fill="green" stroke="black"/>
<text x="30" y="80" font-family="Arial" font-size="10">Terminal</text>
<text x="20" y="110" font-family="Arial" font-size="10" font-weight="bold">Statistics:</text>
<text x="20" y="125" font-family="Arial" font-size="9">Total Nodes: 8</text>
<text x="20" y="140" font-family="Arial" font-size="9">Terminals: 4</text>
<text x="20" y="155" font-family="Arial" font-size="9">Steiner: 3</text>
<text x="20" y="170" font-family="Arial" font-size="9">Wirelength: 12.00</text>
</svg>