<svg viewBox="-100 -100 200 200" xmlns="http://www.w3.org/2000/svg">
  <polygon points=" -40,40 -60,40 -60,-40 -20,-40 -20,-50 90,-50 90,-2 80,-2 80,60 -10,60 -10,50 -40,50 "
  fill="#D088C0" stroke="black" opacity="0.3"/>
  <polygon points=" 80,60 -10,60 -10,50 -40,50 -40,40 -60,40 -60,-40 -20,-40 -20,-50 90,-50 90,-2 60,-2 60,10 50,10 50,20 10,20 10,40 80,40 "
  fill="#88C0D0" stroke="black" opacity="0.5"/>
  <circle cx="-10" cy="50" r="1" />
  <circle cx="-40" cy="40" r="1" />
  <circle cx="-60" cy="-40" r="1" />
  <circle cx="-20" cy="-50" r="1" />
  <circle cx="90" cy="-2" r="1" />
  <circle cx="60" cy="10" r="1" />
  <circle cx="50" cy="20" r="1" />
  <circle cx="10" cy="40" r="1" />
  <circle cx="80" cy="60" r="1" />
</svg>
