<svg width="290" height="200" xmlns="http://www.w3.org/2000/svg">
<defs>
<linearGradient id="grad" x1="0%" y1="0%" x2="0%" y2="100%">
<stop offset="0%" style="stop-color:#00ff00"/>
<stop offset="50%" style="stop-color:#ffff00"/>
<stop offset="100%" style="stop-color:#ff0000"/>
</linearGradient>
</defs>
<rect width="290" height="200" fill="#ffffff"/>
<text x="145" y="40" font-size="24" text-anchor="middle" font-family="Arial">Network Congestion Map</text>
<rect x="20" y="80" width="50" height="50" fill="#00ff00" stroke="#cccccc" stroke-width="1"/>
<text x="45" y="110" font-size="14" text-anchor="middle" fill="black" font-family="Arial">0</text>
<rect x="70" y="80" width="50" height="50" fill="#ffff00" stroke="#cccccc" stroke-width="1"/>
<text x="95" y="110" font-size="14" text-anchor="middle" fill="black" font-family="Arial">50</text>
<rect x="120" y="80" width="50" height="50" fill="#ff0000" stroke="#cccccc" stroke-width="1"/>
<text x="145" y="110" font-size="14" text-anchor="middle" fill="black" font-family="Arial">100</text>
<rect x="20" y="130" width="50" height="50" fill="#7fff00" stroke="#cccccc" stroke-width="1"/>
<text x="45" y="160" font-size="14" text-anchor="middle" fill="black" font-family="Arial">25</text>
<rect x="70" y="130" width="50" height="50" fill="#ff7f00" stroke="#cccccc" stroke-width="1"/>
<text x="95" y="160" font-size="14" text-anchor="middle" fill="black" font-family="Arial">75</text>
<rect x="120" y="130" width="50" height="50" fill="#ffff00" stroke="#cccccc" stroke-width="1"/>
<text x="145" y="160" font-size="14" text-anchor="middle" fill="black" font-family="Arial">50</text>
<text x="200" y="110" font-size="16" font-family="Arial">Congestion %</text>
<rect x="200" y="130" width="30" height="100" fill="url(#grad)"/>
<text x="240" y="235" font-size="12" font-family="Arial">0</text>
<line x1="195" y1="230" x2="200" y2="230" stroke="black" stroke-width="1"/>
<text x="240" y="210" font-size="12" font-family="Arial">25</text>
<line x1="195" y1="205" x2="200" y2="205" stroke="black" stroke-width="1"/>
<text x="240" y="185" font-size="12" font-family="Arial">50</text>
<line x1="195" y1="180" x2="200" y2="180" stroke="black" stroke-width="1"/>
<text x="240" y="160" font-size="12" font-family="Arial">75</text>
<line x1="195" y1="155" x2="200" y2="155" stroke="black" stroke-width="1"/>
<text x="240" y="135" font-size="12" font-family="Arial">100</text>
<line x1="195" y1="130" x2="200" y2="130" stroke="black" stroke-width="1"/>
</svg>
