<svg xmlns="http://www.w3.org/2000/svg" width="290" height="200"><defs><linearGradient id="grad" x1="0%" x2="0%" y1="0%" y2="100%"><stop offset="0%" style="stop-color:#0f0"/><stop offset="50%" style="stop-color:#ff0"/><stop offset="100%" style="stop-color:red"/></linearGradient></defs><rect width="290" height="200" fill="#fff"/><text x="145" y="40" font-family="Arial" font-size="24" text-anchor="middle">Network Congestion Map</text><rect width="50" height="50" x="20" y="80" fill="#0f0" stroke="#ccc" stroke-width="1"/><text x="45" y="110" fill="#000" font-family="Arial" font-size="14" text-anchor="middle">0</text><rect width="50" height="50" x="70" y="80" fill="#ff0" stroke="#ccc" stroke-width="1"/><text x="95" y="110" fill="#000" font-family="Arial" font-size="14" text-anchor="middle">50</text><rect width="50" height="50" x="120" y="80" fill="red" stroke="#ccc" stroke-width="1"/><text x="145" y="110" fill="#000" font-family="Arial" font-size="14" text-anchor="middle">100</text><rect width="50" height="50" x="20" y="130" fill="#7fff00" stroke="#ccc" stroke-width="1"/><text x="45" y="160" fill="#000" font-family="Arial" font-size="14" text-anchor="middle">25</text><rect width="50" height="50" x="70" y="130" fill="#ff7f00" stroke="#ccc" stroke-width="1"/><text x="95" y="160" fill="#000" font-family="Arial" font-size="14" text-anchor="middle">75</text><rect width="50" height="50" x="120" y="130" fill="#ff0" stroke="#ccc" stroke-width="1"/><text x="145" y="160" fill="#000" font-family="Arial" font-size="14" text-anchor="middle">50</text><text x="200" y="110" font-family="Arial" font-size="16">Congestion %</text><rect width="30" height="100" x="200" y="130" fill="url(#grad)"/><text x="240" y="235" font-family="Arial" font-size="12">0</text><line x1="195" x2="200" y1="230" y2="230" stroke="#000" stroke-width="1"/><text x="240" y="210" font-family="Arial" font-size="12">25</text><line x1="195" x2="200" y1="205" y2="205" stroke="#000" stroke-width="1"/><text x="240" y="185" font-family="Arial" font-size="12">50</text><line x1="195" x2="200" y1="180" y2="180" stroke="#000" stroke-width="1"/><text x="240" y="160" font-family="Arial" font-size="12">75</text><line x1="195" x2="200" y1="155" y2="155" stroke="#000" stroke-width="1"/><text x="240" y="135" font-family="Arial" font-size="12">100</text><line x1="195" x2="200" y1="130" y2="130" stroke="#000" stroke-width="1"/></svg>