<svg xmlns="http://www.w3.org/2000/svg" width="1000" height="700"><style>.node-label{font:10px sans-serif;fill:#333}.delay-label{font:8px sans-serif;fill:#666}.wire-label{font:9px sans-serif;fill:#444}</style><rect width="100%" height="100%" fill="#fff"/><g class="analysis-info"><rect width="200" height="120" x="10" y="10" fill="#fff" stroke="#ccc" stroke-width="1" rx="5"/><text x="20" y="30" fill="#333" font-family="monospace" font-size="12"><tspan x="20" y="48">Clock Tree Analysis</tspan> <tspan x="20" y="66">Max Delay: 228.560</tspan> <tspan x="20" y="84">Min Delay: 45.360</tspan> <tspan x="20" y="102">Skew: 183.200</tspan> <tspan x="20" y="120">Total Wirelength: 372.0</tspan> <tspan x="20" y="138">Sinks: 5</tspan></text></g><g class="clock-tree"><line x1="680.513" x2="753.846" y1="398.462" y2="415.385" stroke="#455A64" stroke-linecap="round" stroke-width="3"/><text x="717.179" y="401.923" class="wire-label" text-anchor="middle">16.0</text><line x1="753.846" x2="246.154" y1="415.385" y2="133.333" stroke="#455A64" stroke-linecap="round" stroke-width="3"/><text x="500" y="269.359" class="wire-label" text-anchor="middle">140.0</text><line x1="753.846" x2="471.795" y1="415.385" y2="133.333" stroke="#455A64" stroke-linecap="round" stroke-width="3"/><text x="612.821" y="269.359" class="wire-label" text-anchor="middle">100.0</text><line x1="680.513" x2="753.846" y1="398.462" y2="415.385" stroke="#455A64" stroke-linecap="round" stroke-width="3"/><text x="717.179" y="401.923" class="wire-label" text-anchor="middle">16.0</text><line x1="753.846" x2="415.385" y1="415.385" y2="415.385" stroke="#455A64" stroke-linecap="round" stroke-width="3"/><text x="584.615" y="410.385" class="wire-label" text-anchor="middle">60.0</text><line x1="753.846" x2="753.846" y1="415.385" y2="415.385" stroke="#455A64" stroke-linecap="round" stroke-width="3"/><line x1="753.846" x2="641.026" y1="415.385" y2="415.385" stroke="#455A64" stroke-linecap="round" stroke-width="3"/><text x="697.436" y="410.385" class="wire-label" text-anchor="middle">20.0</text><line x1="753.846" x2="866.667" y1="415.385" y2="415.385" stroke="#455A64" stroke-linecap="round" stroke-width="3"/><text x="810.256" y="410.385" class="wire-label" text-anchor="middle">20.0</text><circle cx="680.513" cy="398.462" r="12" fill="#C62828" stroke="#333" stroke-width="1"/><text x="680.513" y="381.462" class="node-label" text-anchor="middle">n5</text><text x="680.513" y="422.462" class="delay-label" text-anchor="middle">d:0.0</text><circle cx="753.846" cy="415.385" r="8" fill="#1565C0" stroke="#333" stroke-width="1"/><text x="753.846" y="402.385" class="node-label" text-anchor="middle">n2</text><text x="753.846" y="435.385" class="delay-label" text-anchor="middle">d:18.6</text><circle cx="246.154" cy="133.333" r="8" fill="#1565C0" stroke="#333" stroke-width="1"/><text x="246.154" y="120.333" class="node-label" text-anchor="middle">s1</text><text x="246.154" y="153.333" class="delay-label" text-anchor="middle">d:228.6</text><circle cx="471.795" cy="133.333" r="8" fill="#1565C0" stroke="#333" stroke-width="1"/><text x="471.795" y="120.333" class="node-label" text-anchor="middle">s2</text><text x="471.795" y="153.333" class="delay-label" text-anchor="middle">d:128.6</text><circle cx="753.846" cy="415.385" r="8" fill="#1565C0" stroke="#333" stroke-width="1"/><text x="753.846" y="402.385" class="node-label" text-anchor="middle">n3</text><text x="753.846" y="435.385" class="delay-label" text-anchor="middle">d:39.4</text><circle cx="415.385" cy="415.385" r="8" fill="#1565C0" stroke="#333" stroke-width="1"/><text x="415.385" y="402.385" class="node-label" text-anchor="middle">s3</text><text x="415.385" y="435.385" class="delay-label" text-anchor="middle">d:81.4</text><circle cx="753.846" cy="415.385" r="8" fill="#1565C0" stroke="#333" stroke-width="1"/><text x="753.846" y="402.385" class="node-label" text-anchor="middle">n2</text><text x="753.846" y="435.385" class="delay-label" text-anchor="middle">d:39.4</text><circle cx="641.026" cy="415.385" r="8" fill="#1565C0" stroke="#333" stroke-width="1"/><text x="641.026" y="402.385" class="node-label" text-anchor="middle">s4</text><text x="641.026" y="435.385" class="delay-label" text-anchor="middle">d:45.4</text><circle cx="866.667" cy="415.385" r="8" fill="#1565C0" stroke="#333" stroke-width="1"/><text x="866.667" y="402.385" class="node-label" text-anchor="middle">s5</text><text x="866.667" y="435.385" class="delay-label" text-anchor="middle">d:45.4</text></g></svg>