<svg xmlns="http://www.w3.org/2000/svg" width="390" height="300"><defs><linearGradient id="grad" x1="0%" x2="0%" y1="0%" y2="100%"><stop offset="0%" style="stop-color:#0f0"/><stop offset="50%" style="stop-color:#ff0"/><stop offset="100%" style="stop-color:red"/></linearGradient></defs><rect width="390" height="300" fill="#fff"/><text x="195" y="40" font-family="Arial" font-size="24" text-anchor="middle">Network Congestion Map</text><rect width="50" height="50" x="20" y="80" fill="#0f0" stroke="#ccc" stroke-width="1"/><text x="45" y="110" fill="#000" font-family="Arial" font-size="14" text-anchor="middle">0</text><rect width="50" height="50" x="70" y="80" fill="#6f0" stroke="#ccc" stroke-width="1"/><text x="95" y="110" fill="#000" font-family="Arial" font-size="14" text-anchor="middle">20</text><rect width="50" height="50" x="120" y="80" fill="#cf0" stroke="#ccc" stroke-width="1"/><text x="145" y="110" fill="#000" font-family="Arial" font-size="14" text-anchor="middle">40</text><rect width="50" height="50" x="170" y="80" fill="#f60" stroke="#ccc" stroke-width="1"/><text x="195" y="110" fill="#000" font-family="Arial" font-size="14" text-anchor="middle">80</text><rect width="50" height="50" x="220" y="80" fill="red" stroke="#ccc" stroke-width="1"/><text x="245" y="110" fill="#000" font-family="Arial" font-size="14" text-anchor="middle">100</text><rect width="50" height="50" x="20" y="130" fill="#3f0" stroke="#ccc" stroke-width="1"/><text x="45" y="160" fill="#000" font-family="Arial" font-size="14" text-anchor="middle">10</text><rect width="50" height="50" x="70" y="130" fill="#9f0" stroke="#ccc" stroke-width="1"/><text x="95" y="160" fill="#000" font-family="Arial" font-size="14" text-anchor="middle">30</text><rect width="50" height="50" x="120" y="130" fill="#fc0" stroke="#ccc" stroke-width="1"/><text x="145" y="160" fill="#000" font-family="Arial" font-size="14" text-anchor="middle">60</text><rect width="50" height="50" x="170" y="130" fill="#f30" stroke="#ccc" stroke-width="1"/><text x="195" y="160" fill="#000" font-family="Arial" font-size="14" text-anchor="middle">90</text><rect width="50" height="50" x="220" y="130" fill="#f90" stroke="#ccc" stroke-width="1"/><text x="245" y="160" fill="#000" font-family="Arial" font-size="14" text-anchor="middle">70</text><rect width="50" height="50" x="20" y="180" fill="#7fff00" stroke="#ccc" stroke-width="1"/><text x="45" y="210" fill="#000" font-family="Arial" font-size="14" text-anchor="middle">25</text><rect width="50" height="50" x="70" y="180" fill="#ff0" stroke="#ccc" stroke-width="1"/><text x="95" y="210" fill="#000" font-family="Arial" font-size="14" text-anchor="middle">50</text><rect width="50" height="50" x="120" y="180" fill="#ff7f00" stroke="#ccc" stroke-width="1"/><text x="145" y="210" fill="#000" font-family="Arial" font-size="14" text-anchor="middle">75</text><rect width="50" height="50" x="170" y="180" fill="#ff1900" stroke="#ccc" stroke-width="1"/><text x="195" y="210" fill="#000" font-family="Arial" font-size="14" text-anchor="middle">95</text><rect width="50" height="50" x="220" y="180" fill="#ff0" stroke="#ccc" stroke-width="1"/><text x="245" y="210" fill="#000" font-family="Arial" font-size="14" text-anchor="middle">50</text><rect width="50" height="50" x="20" y="230" fill="#0f0" stroke="#ccc" stroke-width="1"/><text x="45" y="260" fill="#000" font-family="Arial" font-size="14" text-anchor="middle">0</text><rect width="50" height="50" x="70" y="230" fill="#4cff00" stroke="#ccc" stroke-width="1"/><text x="95" y="260" fill="#000" font-family="Arial" font-size="14" text-anchor="middle">15</text><rect width="50" height="50" x="120" y="230" fill="#b2ff00" stroke="#ccc" stroke-width="1"/><text x="145" y="260" fill="#000" font-family="Arial" font-size="14" text-anchor="middle">35</text><rect width="50" height="50" x="170" y="230" fill="#ffe500" stroke="#ccc" stroke-width="1"/><text x="195" y="260" fill="#000" font-family="Arial" font-size="14" text-anchor="middle">55</text><rect width="50" height="50" x="220" y="230" fill="#9f0" stroke="#ccc" stroke-width="1"/><text x="245" y="260" fill="#000" font-family="Arial" font-size="14" text-anchor="middle">30</text><text x="300" y="110" font-family="Arial" font-size="16">Congestion %</text><rect width="30" height="200" x="300" y="130" fill="url(#grad)"/><text x="340" y="335" font-family="Arial" font-size="12">0</text><line x1="295" x2="300" y1="330" y2="330" stroke="#000" stroke-width="1"/><text x="340" y="285" font-family="Arial" font-size="12">25</text><line x1="295" x2="300" y1="280" y2="280" stroke="#000" stroke-width="1"/><text x="340" y="235" font-family="Arial" font-size="12">50</text><line x1="295" x2="300" y1="230" y2="230" stroke="#000" stroke-width="1"/><text x="340" y="185" font-family="Arial" font-size="12">75</text><line x1="295" x2="300" y1="180" y2="180" stroke="#000" stroke-width="1"/><text x="340" y="135" font-family="Arial" font-size="12">100</text><line x1="295" x2="300" y1="130" y2="130" stroke="#000" stroke-width="1"/></svg>