<svg width="1200" height="600" xmlns="http://www.w3.org/2000/svg">
<style>
  .node-label { font: 8px sans-serif; fill: #333; }
  .delay-label { font: 7px sans-serif; fill: #666; }
  .title { font: 14px sans-serif; fill: #333; font-weight: bold; }
  .comparison-label { font: 10px sans-serif; fill: #333; }
</style>
<rect width="100%" height="100%" fill="white"/>
<text x="300" y="20" class="title" text-anchor="middle">Linear Delay Model</text>
<g transform="translate(10, 40)">
<line x1="267.5" y1="355.0" x2="355.0" y2="392.5" stroke="#666666" stroke-width="2" stroke-linecap="round"/>
<text x="311.25" y="368.75" class="wire-label" text-anchor="middle">50.0</text>
<line x1="355.0" y1="392.5" x2="355.0" y2="455.0" stroke="#666666" stroke-width="2" stroke-linecap="round"/>
<text x="355.0" y="418.75" class="wire-label" text-anchor="middle">25.0</text>
<line x1="355.0" y1="455.0" x2="180.0" y2="80.0" stroke="#666666" stroke-width="2" stroke-linecap="round"/>
<text x="267.5" y="262.5" class="wire-label" text-anchor="middle">220.0</text>
<line x1="355.0" y1="455.0" x2="480.0" y2="130.0" stroke="#666666" stroke-width="2" stroke-linecap="round"/>
<text x="417.5" y="287.5" class="wire-label" text-anchor="middle">180.0</text>
<line x1="355.0" y1="392.5" x2="355.0" y2="455.0" stroke="#666666" stroke-width="2" stroke-linecap="round"/>
<text x="355.0" y="418.75" class="wire-label" text-anchor="middle">25.0</text>
<line x1="355.0" y1="455.0" x2="80.0" y2="180.0" stroke="#666666" stroke-width="2" stroke-linecap="round"/>
<text x="217.5" y="312.5" class="wire-label" text-anchor="middle">220.0</text>
<line x1="355.0" y1="455.0" x2="130.0" y2="330.0" stroke="#666666" stroke-width="2" stroke-linecap="round"/>
<text x="242.5" y="387.5" class="wire-label" text-anchor="middle">140.0</text>
<line x1="267.5" y1="355.0" x2="355.0" y2="392.5" stroke="#666666" stroke-width="2" stroke-linecap="round"/>
<text x="311.25" y="368.75" class="wire-label" text-anchor="middle">50.0</text>
<line x1="355.0" y1="392.5" x2="355.0" y2="455.0" stroke="#666666" stroke-width="2" stroke-linecap="round"/>
<text x="355.0" y="418.75" class="wire-label" text-anchor="middle">25.0</text>
<line x1="355.0" y1="455.0" x2="430.0" y2="230.0" stroke="#666666" stroke-width="2" stroke-linecap="round"/>
<text x="392.5" y="337.5" class="wire-label" text-anchor="middle">120.0</text>
<line x1="355.0" y1="455.0" x2="430.0" y2="430.0" stroke="#666666" stroke-width="2" stroke-linecap="round"/>
<text x="392.5" y="437.5" class="wire-label" text-anchor="middle">40.0</text>
<line x1="355.0" y1="392.5" x2="355.0" y2="455.0" stroke="#666666" stroke-width="2" stroke-linecap="round"/>
<text x="355.0" y="418.75" class="wire-label" text-anchor="middle">25.0</text>
<line x1="355.0" y1="455.0" x2="330.0" y2="430.0" stroke="#666666" stroke-width="2" stroke-linecap="round"/>
<text x="342.5" y="437.5" class="wire-label" text-anchor="middle">20.0</text>
<line x1="355.0" y1="455.0" x2="380.0" y2="480.0" stroke="#666666" stroke-width="2" stroke-linecap="round"/>
<text x="367.5" y="462.5" class="wire-label" text-anchor="middle">20.0</text>
<circle cx="267.5" cy="355.0" r="8" fill="#F44336" stroke="#333" stroke-width="1"/>
<text x="267.5" y="342.0" class="node-label" text-anchor="middle">n8</text>
<text x="267.5" y="375.0" class="delay-label" text-anchor="middle">d:0.0</text>
<circle cx="355.0" cy="392.5" r="4" fill="#2196F3" stroke="#333" stroke-width="1"/>
<text x="355.0" y="383.5" class="node-label" text-anchor="middle">n4</text>
<text x="355.0" y="408.5" class="delay-label" text-anchor="middle">d:25.0</text>
<circle cx="355.0" cy="455.0" r="4" fill="#2196F3" stroke="#333" stroke-width="1"/>
<text x="355.0" y="446.0" class="node-label" text-anchor="middle">n2</text>
<text x="355.0" y="471.0" class="delay-label" text-anchor="middle">d:37.5</text>
<circle cx="180.0" cy="80.0" r="4" fill="#2196F3" stroke="#333" stroke-width="1"/>
<text x="180.0" y="71.0" class="node-label" text-anchor="middle">s7</text>
<text x="180.0" y="96.0" class="delay-label" text-anchor="middle">d:147.5</text>
<circle cx="480.0" cy="130.0" r="4" fill="#2196F3" stroke="#333" stroke-width="1"/>
<text x="480.0" y="121.0" class="node-label" text-anchor="middle">s6</text>
<text x="480.0" y="146.0" class="delay-label" text-anchor="middle">d:127.5</text>
<circle cx="355.0" cy="455.0" r="4" fill="#2196F3" stroke="#333" stroke-width="1"/>
<text x="355.0" y="446.0" class="node-label" text-anchor="middle">n2</text>
<text x="355.0" y="471.0" class="delay-label" text-anchor="middle">d:37.5</text>
<circle cx="80.0" cy="180.0" r="4" fill="#2196F3" stroke="#333" stroke-width="1"/>
<text x="80.0" y="171.0" class="node-label" text-anchor="middle">s1</text>
<text x="80.0" y="196.0" class="delay-label" text-anchor="middle">d:147.5</text>
<circle cx="130.0" cy="330.0" r="4" fill="#2196F3" stroke="#333" stroke-width="1"/>
<text x="130.0" y="321.0" class="node-label" text-anchor="middle">s2</text>
<text x="130.0" y="346.0" class="delay-label" text-anchor="middle">d:107.5</text>
<circle cx="355.0" cy="392.5" r="4" fill="#2196F3" stroke="#333" stroke-width="1"/>
<text x="355.0" y="383.5" class="node-label" text-anchor="middle">n4</text>
<text x="355.0" y="408.5" class="delay-label" text-anchor="middle">d:25.0</text>
<circle cx="355.0" cy="455.0" r="4" fill="#2196F3" stroke="#333" stroke-width="1"/>
<text x="355.0" y="446.0" class="node-label" text-anchor="middle">n2</text>
<text x="355.0" y="471.0" class="delay-label" text-anchor="middle">d:37.5</text>
<circle cx="430.0" cy="230.0" r="4" fill="#2196F3" stroke="#333" stroke-width="1"/>
<text x="430.0" y="221.0" class="node-label" text-anchor="middle">s5</text>
<text x="430.0" y="246.0" class="delay-label" text-anchor="middle">d:97.5</text>
<circle cx="430.0" cy="430.0" r="6" fill="#4CAF50" stroke="#333" stroke-width="1"/>
<text x="430.0" y="419.0" class="node-label" text-anchor="middle">s4</text>
<text x="430.0" y="448.0" class="delay-label" text-anchor="middle">d:57.5</text>
<text x="430.0" y="458.0" class="delay-label" text-anchor="middle">c:1.0</text>
<circle cx="355.0" cy="455.0" r="4" fill="#2196F3" stroke="#333" stroke-width="1"/>
<text x="355.0" y="446.0" class="node-label" text-anchor="middle">n2</text>
<text x="355.0" y="471.0" class="delay-label" text-anchor="middle">d:37.5</text>
<circle cx="330.0" cy="430.0" r="4" fill="#2196F3" stroke="#333" stroke-width="1"/>
<text x="330.0" y="421.0" class="node-label" text-anchor="middle">s3</text>
<text x="330.0" y="446.0" class="delay-label" text-anchor="middle">d:47.5</text>
<circle cx="380.0" cy="480.0" r="4" fill="#2196F3" stroke="#333" stroke-width="1"/>
<text x="380.0" y="471.0" class="node-label" text-anchor="middle">s8</text>
<text x="380.0" y="496.0" class="delay-label" text-anchor="middle">d:47.5</text>
<g class="analysis-info">
<rect x="10" y="10" width="220" height="140" fill="white" stroke="#ccc" stroke-width="1" rx="5"/>
<rect x="10" y="10" width="220" height="20" fill="#f0f0f0" stroke="#ccc" stroke-width="1" rx="5"/>
<text x="20" y="25" font-family="sans-serif" font-size="12" font-weight="bold" fill="#333">Clock Tree Analysis</text>
<text x="20" y="45" font-family="monospace" font-size="11" fill="#333">
<tspan x="20" y="61">Delay Model: LinearDelayCalculator</tspan>
<tspan x="20" y="77">Max Delay: 147.500</tspan>
<tspan x="20" y="93">Min Delay: 47.500</tspan>
<tspan x="20" y="109">Skew: 100.000</tspan>
<tspan x="20" y="125">Total Wirelength: 1160.0</tspan>
<tspan x="20" y="141">Sinks: 8</tspan>
</text>
</g>
</g>
<text x="900" y="20" class="title" text-anchor="middle">Elmore Delay Model</text>
<g transform="translate(610, 40)">
<line x1="297.5" y1="297.5" x2="405.0" y2="330.0" stroke="#666666" stroke-width="2" stroke-linecap="round"/>
<text x="351.25" y="308.75" class="wire-label" text-anchor="middle">56.0</text>
<line x1="405.0" y1="330.0" x2="355.0" y2="455.0" stroke="#666666" stroke-width="2" stroke-linecap="round"/>
<text x="380.0" y="387.5" class="wire-label" text-anchor="middle">70.0</text>
<line x1="355.0" y1="455.0" x2="180.0" y2="80.0" stroke="#666666" stroke-width="2" stroke-linecap="round"/>
<text x="267.5" y="262.5" class="wire-label" text-anchor="middle">220.0</text>
<line x1="355.0" y1="455.0" x2="480.0" y2="130.0" stroke="#666666" stroke-width="2" stroke-linecap="round"/>
<text x="417.5" y="287.5" class="wire-label" text-anchor="middle">180.0</text>
<line x1="405.0" y1="330.0" x2="355.0" y2="455.0" stroke="#666666" stroke-width="2" stroke-linecap="round"/>
<text x="380.0" y="387.5" class="wire-label" text-anchor="middle">70.0</text>
<line x1="355.0" y1="455.0" x2="80.0" y2="180.0" stroke="#666666" stroke-width="2" stroke-linecap="round"/>
<text x="217.5" y="312.5" class="wire-label" text-anchor="middle">220.0</text>
<line x1="355.0" y1="455.0" x2="130.0" y2="330.0" stroke="#666666" stroke-width="2" stroke-linecap="round"/>
<text x="242.5" y="387.5" class="wire-label" text-anchor="middle">140.0</text>
<line x1="297.5" y1="297.5" x2="405.0" y2="330.0" stroke="#666666" stroke-width="2" stroke-linecap="round"/>
<text x="351.25" y="308.75" class="wire-label" text-anchor="middle">56.0</text>
<line x1="405.0" y1="330.0" x2="355.0" y2="455.0" stroke="#666666" stroke-width="2" stroke-linecap="round"/>
<text x="380.0" y="387.5" class="wire-label" text-anchor="middle">70.0</text>
<line x1="355.0" y1="455.0" x2="430.0" y2="230.0" stroke="#666666" stroke-width="2" stroke-linecap="round"/>
<text x="392.5" y="337.5" class="wire-label" text-anchor="middle">120.0</text>
<line x1="355.0" y1="455.0" x2="430.0" y2="430.0" stroke="#666666" stroke-width="2" stroke-linecap="round"/>
<text x="392.5" y="437.5" class="wire-label" text-anchor="middle">40.0</text>
<line x1="405.0" y1="330.0" x2="355.0" y2="455.0" stroke="#666666" stroke-width="2" stroke-linecap="round"/>
<text x="380.0" y="387.5" class="wire-label" text-anchor="middle">70.0</text>
<line x1="355.0" y1="455.0" x2="330.0" y2="430.0" stroke="#666666" stroke-width="2" stroke-linecap="round"/>
<text x="342.5" y="437.5" class="wire-label" text-anchor="middle">20.0</text>
<line x1="355.0" y1="455.0" x2="380.0" y2="480.0" stroke="#666666" stroke-width="2" stroke-linecap="round"/>
<text x="367.5" y="462.5" class="wire-label" text-anchor="middle">20.0</text>
<circle cx="297.5" cy="297.5" r="8" fill="#F44336" stroke="#333" stroke-width="1"/>
<text x="297.5" y="284.5" class="node-label" text-anchor="middle">n8</text>
<text x="297.5" y="317.5" class="delay-label" text-anchor="middle">d:0.0</text>
<circle cx="405.0" cy="330.0" r="4" fill="#2196F3" stroke="#333" stroke-width="1"/>
<text x="405.0" y="321.0" class="node-label" text-anchor="middle">n4</text>
<text x="405.0" y="346.0" class="delay-label" text-anchor="middle">d:333.8</text>
<circle cx="355.0" cy="455.0" r="4" fill="#2196F3" stroke="#333" stroke-width="1"/>
<text x="355.0" y="446.0" class="node-label" text-anchor="middle">n2</text>
<text x="355.0" y="471.0" class="delay-label" text-anchor="middle">d:564.8</text>
<circle cx="180.0" cy="80.0" r="4" fill="#2196F3" stroke="#333" stroke-width="1"/>
<text x="180.0" y="71.0" class="node-label" text-anchor="middle">s7</text>
<text x="180.0" y="96.0" class="delay-label" text-anchor="middle">d:1070.8</text>
<circle cx="480.0" cy="130.0" r="4" fill="#2196F3" stroke="#333" stroke-width="1"/>
<text x="480.0" y="121.0" class="node-label" text-anchor="middle">s6</text>
<text x="480.0" y="146.0" class="delay-label" text-anchor="middle">d:906.8</text>
<circle cx="355.0" cy="455.0" r="4" fill="#2196F3" stroke="#333" stroke-width="1"/>
<text x="355.0" y="446.0" class="node-label" text-anchor="middle">n2</text>
<text x="355.0" y="471.0" class="delay-label" text-anchor="middle">d:480.8</text>
<circle cx="80.0" cy="180.0" r="4" fill="#2196F3" stroke="#333" stroke-width="1"/>
<text x="80.0" y="171.0" class="node-label" text-anchor="middle">s1</text>
<text x="80.0" y="196.0" class="delay-label" text-anchor="middle">d:986.8</text>
<circle cx="130.0" cy="330.0" r="4" fill="#2196F3" stroke="#333" stroke-width="1"/>
<text x="130.0" y="321.0" class="node-label" text-anchor="middle">s2</text>
<text x="130.0" y="346.0" class="delay-label" text-anchor="middle">d:690.8</text>
<circle cx="405.0" cy="330.0" r="4" fill="#2196F3" stroke="#333" stroke-width="1"/>
<text x="405.0" y="321.0" class="node-label" text-anchor="middle">n4</text>
<text x="405.0" y="346.0" class="delay-label" text-anchor="middle">d:221.8</text>
<circle cx="355.0" cy="455.0" r="4" fill="#2196F3" stroke="#333" stroke-width="1"/>
<text x="355.0" y="446.0" class="node-label" text-anchor="middle">n2</text>
<text x="355.0" y="471.0" class="delay-label" text-anchor="middle">d:396.8</text>
<circle cx="430.0" cy="230.0" r="4" fill="#2196F3" stroke="#333" stroke-width="1"/>
<text x="430.0" y="221.0" class="node-label" text-anchor="middle">s5</text>
<text x="430.0" y="246.0" class="delay-label" text-anchor="middle">d:552.8</text>
<circle cx="430.0" cy="430.0" r="6" fill="#4CAF50" stroke="#333" stroke-width="1"/>
<text x="430.0" y="419.0" class="node-label" text-anchor="middle">s4</text>
<text x="430.0" y="448.0" class="delay-label" text-anchor="middle">d:416.8</text>
<text x="430.0" y="458.0" class="delay-label" text-anchor="middle">c:1.0</text>
<circle cx="355.0" cy="455.0" r="4" fill="#2196F3" stroke="#333" stroke-width="1"/>
<text x="355.0" y="446.0" class="node-label" text-anchor="middle">n2</text>
<text x="355.0" y="471.0" class="delay-label" text-anchor="middle">d:312.8</text>
<circle cx="330.0" cy="430.0" r="4" fill="#2196F3" stroke="#333" stroke-width="1"/>
<text x="330.0" y="421.0" class="node-label" text-anchor="middle">s3</text>
<text x="330.0" y="446.0" class="delay-label" text-anchor="middle">d:318.8</text>
<circle cx="380.0" cy="480.0" r="4" fill="#2196F3" stroke="#333" stroke-width="1"/>
<text x="380.0" y="471.0" class="node-label" text-anchor="middle">s8</text>
<text x="380.0" y="496.0" class="delay-label" text-anchor="middle">d:318.8</text>
<g class="analysis-info">
<rect x="10" y="10" width="220" height="140" fill="white" stroke="#ccc" stroke-width="1" rx="5"/>
<rect x="10" y="10" width="220" height="20" fill="#f0f0f0" stroke="#ccc" stroke-width="1" rx="5"/>
<text x="20" y="25" font-family="sans-serif" font-size="12" font-weight="bold" fill="#333">Clock Tree Analysis</text>
<text x="20" y="45" font-family="monospace" font-size="11" fill="#333">
<tspan x="20" y="61">Delay Model: ElmoreDelayCalculator</tspan>
<tspan x="20" y="77">Max Delay: 1070.760</tspan>
<tspan x="20" y="93">Min Delay: 318.760</tspan>
<tspan x="20" y="109">Skew: 752.000</tspan>
<tspan x="20" y="125">Total Wirelength: 1352.0</tspan>
<tspan x="20" y="141">Sinks: 8</tspan>
</text>
</g>
</g>
</svg>