<svg width="1200" height="600" xmlns="http://www.w3.org/2000/svg">
<style>
  .node-label { font: 8px sans-serif; fill: #333; }
  .delay-label { font: 7px sans-serif; fill: #666; }
  .title { font: 14px sans-serif; fill: #333; font-weight: bold; }
  .comparison-label { font: 10px sans-serif; fill: #333; }
</style>
<rect width="100%" height="100%" fill="white"/>
<text x="300" y="20" class="title" text-anchor="middle">Linear Delay Model</text>
<g transform="translate(10, 40)">
<line x1="254.0" y1="264.0" x2="340.0" y2="320.0" stroke="#666666" stroke-width="2" stroke-linecap="round"/>
<text x="297.0" y="287.0" class="wire-label" text-anchor="middle">71.0</text>
<line x1="340.0" y1="320.0" x2="320.0" y2="440.0" stroke="#666666" stroke-width="2" stroke-linecap="round"/>
<text x="330.0" y="375.0" class="wire-label" text-anchor="middle">70.0</text>
<line x1="320.0" y1="440.0" x2="240.0" y2="80.0" stroke="#666666" stroke-width="2" stroke-linecap="round"/>
<text x="280.0" y="255.0" class="wire-label" text-anchor="middle">220.0</text>
<line x1="320.0" y1="440.0" x2="160.0" y2="160.0" stroke="#666666" stroke-width="2" stroke-linecap="round"/>
<text x="240.0" y="295.0" class="wire-label" text-anchor="middle">220.0</text>
<line x1="340.0" y1="320.0" x2="320.0" y2="440.0" stroke="#666666" stroke-width="2" stroke-linecap="round"/>
<text x="330.0" y="375.0" class="wire-label" text-anchor="middle">70.0</text>
<line x1="320.0" y1="440.0" x2="80.0" y2="240.0" stroke="#666666" stroke-width="2" stroke-linecap="round"/>
<text x="200.0" y="335.0" class="wire-label" text-anchor="middle">220.0</text>
<line x1="320.0" y1="440.0" x2="120.0" y2="360.0" stroke="#666666" stroke-width="2" stroke-linecap="round"/>
<text x="220.0" y="395.0" class="wire-label" text-anchor="middle">140.0</text>
<line x1="254.0" y1="264.0" x2="340.0" y2="320.0" stroke="#666666" stroke-width="2" stroke-linecap="round"/>
<text x="297.0" y="287.0" class="wire-label" text-anchor="middle">71.0</text>
<line x1="340.0" y1="320.0" x2="320.0" y2="440.0" stroke="#666666" stroke-width="2" stroke-linecap="round"/>
<text x="330.0" y="375.0" class="wire-label" text-anchor="middle">70.0</text>
<line x1="320.0" y1="440.0" x2="400.0" y2="200.0" stroke="#666666" stroke-width="2" stroke-linecap="round"/>
<text x="360.0" y="315.0" class="wire-label" text-anchor="middle">160.0</text>
<line x1="320.0" y1="440.0" x2="360.0" y2="280.0" stroke="#666666" stroke-width="2" stroke-linecap="round"/>
<text x="340.0" y="355.0" class="wire-label" text-anchor="middle">100.0</text>
<line x1="340.0" y1="320.0" x2="320.0" y2="440.0" stroke="#666666" stroke-width="2" stroke-linecap="round"/>
<text x="330.0" y="375.0" class="wire-label" text-anchor="middle">70.0</text>
<line x1="320.0" y1="440.0" x2="280.0" y2="440.0" stroke="#666666" stroke-width="2" stroke-linecap="round"/>
<text x="300.0" y="435.0" class="wire-label" text-anchor="middle">20.0</text>
<line x1="320.0" y1="440.0" x2="360.0" y2="440.0" stroke="#666666" stroke-width="2" stroke-linecap="round"/>
<text x="340.0" y="435.0" class="wire-label" text-anchor="middle">20.0</text>
<circle cx="254.0" cy="264.0" r="8" fill="#F44336" stroke="#333" stroke-width="1"/>
<text x="254.0" y="251.0" class="node-label" text-anchor="middle">n8</text>
<text x="254.0" y="284.0" class="delay-label" text-anchor="middle">d:0.0</text>
<circle cx="340.0" cy="320.0" r="4" fill="#2196F3" stroke="#333" stroke-width="1"/>
<text x="340.0" y="311.0" class="node-label" text-anchor="middle">n4</text>
<text x="340.0" y="336.0" class="delay-label" text-anchor="middle">d:35.5</text>
<circle cx="320.0" cy="440.0" r="4" fill="#2196F3" stroke="#333" stroke-width="1"/>
<text x="320.0" y="431.0" class="node-label" text-anchor="middle">n2</text>
<text x="320.0" y="456.0" class="delay-label" text-anchor="middle">d:70.5</text>
<circle cx="240.0" cy="80.0" r="4" fill="#2196F3" stroke="#333" stroke-width="1"/>
<text x="240.0" y="71.0" class="node-label" text-anchor="middle">s7</text>
<text x="240.0" y="96.0" class="delay-label" text-anchor="middle">d:180.5</text>
<circle cx="160.0" cy="160.0" r="4" fill="#2196F3" stroke="#333" stroke-width="1"/>
<text x="160.0" y="151.0" class="node-label" text-anchor="middle">s8</text>
<text x="160.0" y="176.0" class="delay-label" text-anchor="middle">d:180.5</text>
<circle cx="320.0" cy="440.0" r="4" fill="#2196F3" stroke="#333" stroke-width="1"/>
<text x="320.0" y="431.0" class="node-label" text-anchor="middle">n2</text>
<text x="320.0" y="456.0" class="delay-label" text-anchor="middle">d:70.5</text>
<circle cx="80.0" cy="240.0" r="4" fill="#2196F3" stroke="#333" stroke-width="1"/>
<text x="80.0" y="231.0" class="node-label" text-anchor="middle">s1</text>
<text x="80.0" y="256.0" class="delay-label" text-anchor="middle">d:180.5</text>
<circle cx="120.0" cy="360.0" r="4" fill="#2196F3" stroke="#333" stroke-width="1"/>
<text x="120.0" y="351.0" class="node-label" text-anchor="middle">s2</text>
<text x="120.0" y="376.0" class="delay-label" text-anchor="middle">d:140.5</text>
<circle cx="340.0" cy="320.0" r="4" fill="#2196F3" stroke="#333" stroke-width="1"/>
<text x="340.0" y="311.0" class="node-label" text-anchor="middle">n4</text>
<text x="340.0" y="336.0" class="delay-label" text-anchor="middle">d:35.5</text>
<circle cx="320.0" cy="440.0" r="4" fill="#2196F3" stroke="#333" stroke-width="1"/>
<text x="320.0" y="431.0" class="node-label" text-anchor="middle">n2</text>
<text x="320.0" y="456.0" class="delay-label" text-anchor="middle">d:70.5</text>
<circle cx="400.0" cy="200.0" r="4" fill="#2196F3" stroke="#333" stroke-width="1"/>
<text x="400.0" y="191.0" class="node-label" text-anchor="middle">s6</text>
<text x="400.0" y="216.0" class="delay-label" text-anchor="middle">d:150.5</text>
<circle cx="360.0" cy="280.0" r="4" fill="#2196F3" stroke="#333" stroke-width="1"/>
<text x="360.0" y="271.0" class="node-label" text-anchor="middle">s5</text>
<text x="360.0" y="296.0" class="delay-label" text-anchor="middle">d:120.5</text>
<circle cx="320.0" cy="440.0" r="4" fill="#2196F3" stroke="#333" stroke-width="1"/>
<text x="320.0" y="431.0" class="node-label" text-anchor="middle">n2</text>
<text x="320.0" y="456.0" class="delay-label" text-anchor="middle">d:70.5</text>
<circle cx="280.0" cy="440.0" r="4" fill="#2196F3" stroke="#333" stroke-width="1"/>
<text x="280.0" y="431.0" class="node-label" text-anchor="middle">s3</text>
<text x="280.0" y="456.0" class="delay-label" text-anchor="middle">d:80.5</text>
<circle cx="360.0" cy="440.0" r="6" fill="#4CAF50" stroke="#333" stroke-width="1"/>
<text x="360.0" y="429.0" class="node-label" text-anchor="middle">s4</text>
<text x="360.0" y="458.0" class="delay-label" text-anchor="middle">d:80.5</text>
<text x="360.0" y="468.0" class="delay-label" text-anchor="middle">c:1.0</text>
<g class="analysis-info">
<rect x="10" y="10" width="220" height="140" fill="white" stroke="#ccc" stroke-width="1" rx="5"/>
<rect x="10" y="10" width="220" height="20" fill="#f0f0f0" stroke="#ccc" stroke-width="1" rx="5"/>
<text x="20" y="25" font-family="sans-serif" font-size="12" font-weight="bold" fill="#333">Clock Tree Analysis</text>
<text x="20" y="45" font-family="monospace" font-size="11" fill="#333">
<tspan x="20" y="61">Delay Model: LinearDelayCalculator</tspan>
<tspan x="20" y="77">Max Delay: 180.500</tspan>
<tspan x="20" y="93">Min Delay: 80.500</tspan>
<tspan x="20" y="109">Skew: 100.000</tspan>
<tspan x="20" y="125">Total Wirelength: 1522.0</tspan>
<tspan x="20" y="141">Sinks: 8</tspan>
</text>
</g>
</g>
<text x="900" y="20" class="title" text-anchor="middle">Elmore Delay Model</text>
<g transform="translate(610, 40)">
<line x1="244.0" y1="270.0" x2="340.0" y2="320.0" stroke="#666666" stroke-width="2" stroke-linecap="round"/>
<text x="292.0" y="290.0" class="wire-label" text-anchor="middle">73.0</text>
<line x1="340.0" y1="320.0" x2="320.0" y2="440.0" stroke="#666666" stroke-width="2" stroke-linecap="round"/>
<text x="330.0" y="375.0" class="wire-label" text-anchor="middle">70.0</text>
<line x1="320.0" y1="440.0" x2="240.0" y2="80.0" stroke="#666666" stroke-width="2" stroke-linecap="round"/>
<text x="280.0" y="255.0" class="wire-label" text-anchor="middle">220.0</text>
<line x1="320.0" y1="440.0" x2="160.0" y2="160.0" stroke="#666666" stroke-width="2" stroke-linecap="round"/>
<text x="240.0" y="295.0" class="wire-label" text-anchor="middle">220.0</text>
<line x1="340.0" y1="320.0" x2="320.0" y2="440.0" stroke="#666666" stroke-width="2" stroke-linecap="round"/>
<text x="330.0" y="375.0" class="wire-label" text-anchor="middle">70.0</text>
<line x1="320.0" y1="440.0" x2="80.0" y2="240.0" stroke="#666666" stroke-width="2" stroke-linecap="round"/>
<text x="200.0" y="335.0" class="wire-label" text-anchor="middle">220.0</text>
<line x1="320.0" y1="440.0" x2="120.0" y2="360.0" stroke="#666666" stroke-width="2" stroke-linecap="round"/>
<text x="220.0" y="395.0" class="wire-label" text-anchor="middle">140.0</text>
<line x1="244.0" y1="270.0" x2="340.0" y2="320.0" stroke="#666666" stroke-width="2" stroke-linecap="round"/>
<text x="292.0" y="290.0" class="wire-label" text-anchor="middle">73.0</text>
<line x1="340.0" y1="320.0" x2="320.0" y2="440.0" stroke="#666666" stroke-width="2" stroke-linecap="round"/>
<text x="330.0" y="375.0" class="wire-label" text-anchor="middle">70.0</text>
<line x1="320.0" y1="440.0" x2="400.0" y2="200.0" stroke="#666666" stroke-width="2" stroke-linecap="round"/>
<text x="360.0" y="315.0" class="wire-label" text-anchor="middle">160.0</text>
<line x1="320.0" y1="440.0" x2="360.0" y2="280.0" stroke="#666666" stroke-width="2" stroke-linecap="round"/>
<text x="340.0" y="355.0" class="wire-label" text-anchor="middle">100.0</text>
<line x1="340.0" y1="320.0" x2="320.0" y2="440.0" stroke="#666666" stroke-width="2" stroke-linecap="round"/>
<text x="330.0" y="375.0" class="wire-label" text-anchor="middle">70.0</text>
<line x1="320.0" y1="440.0" x2="280.0" y2="440.0" stroke="#666666" stroke-width="2" stroke-linecap="round"/>
<text x="300.0" y="435.0" class="wire-label" text-anchor="middle">20.0</text>
<line x1="320.0" y1="440.0" x2="360.0" y2="440.0" stroke="#666666" stroke-width="2" stroke-linecap="round"/>
<text x="340.0" y="435.0" class="wire-label" text-anchor="middle">20.0</text>
<circle cx="244.0" cy="270.0" r="8" fill="#F44336" stroke="#333" stroke-width="1"/>
<text x="244.0" y="257.0" class="node-label" text-anchor="middle">n8</text>
<text x="244.0" y="290.0" class="delay-label" text-anchor="middle">d:0.0</text>
<circle cx="340.0" cy="320.0" r="4" fill="#2196F3" stroke="#333" stroke-width="1"/>
<text x="340.0" y="311.0" class="node-label" text-anchor="middle">n4</text>
<text x="340.0" y="336.0" class="delay-label" text-anchor="middle">d:359.9</text>
<circle cx="320.0" cy="440.0" r="4" fill="#2196F3" stroke="#333" stroke-width="1"/>
<text x="320.0" y="431.0" class="node-label" text-anchor="middle">n2</text>
<text x="320.0" y="456.0" class="delay-label" text-anchor="middle">d:478.9</text>
<circle cx="240.0" cy="80.0" r="4" fill="#2196F3" stroke="#333" stroke-width="1"/>
<text x="240.0" y="71.0" class="node-label" text-anchor="middle">s7</text>
<text x="240.0" y="96.0" class="delay-label" text-anchor="middle">d:984.9</text>
<circle cx="160.0" cy="160.0" r="4" fill="#2196F3" stroke="#333" stroke-width="1"/>
<text x="160.0" y="151.0" class="node-label" text-anchor="middle">s8</text>
<text x="160.0" y="176.0" class="delay-label" text-anchor="middle">d:984.9</text>
<circle cx="320.0" cy="440.0" r="4" fill="#2196F3" stroke="#333" stroke-width="1"/>
<text x="320.0" y="431.0" class="node-label" text-anchor="middle">n2</text>
<text x="320.0" y="456.0" class="delay-label" text-anchor="middle">d:506.9</text>
<circle cx="80.0" cy="240.0" r="4" fill="#2196F3" stroke="#333" stroke-width="1"/>
<text x="80.0" y="231.0" class="node-label" text-anchor="middle">s1</text>
<text x="80.0" y="256.0" class="delay-label" text-anchor="middle">d:1012.9</text>
<circle cx="120.0" cy="360.0" r="4" fill="#2196F3" stroke="#333" stroke-width="1"/>
<text x="120.0" y="351.0" class="node-label" text-anchor="middle">s2</text>
<text x="120.0" y="376.0" class="delay-label" text-anchor="middle">d:716.9</text>
<circle cx="340.0" cy="320.0" r="4" fill="#2196F3" stroke="#333" stroke-width="1"/>
<text x="340.0" y="311.0" class="node-label" text-anchor="middle">n4</text>
<text x="340.0" y="336.0" class="delay-label" text-anchor="middle">d:316.1</text>
<circle cx="320.0" cy="440.0" r="4" fill="#2196F3" stroke="#333" stroke-width="1"/>
<text x="320.0" y="431.0" class="node-label" text-anchor="middle">n2</text>
<text x="320.0" y="456.0" class="delay-label" text-anchor="middle">d:435.1</text>
<circle cx="400.0" cy="200.0" r="4" fill="#2196F3" stroke="#333" stroke-width="1"/>
<text x="400.0" y="191.0" class="node-label" text-anchor="middle">s6</text>
<text x="400.0" y="216.0" class="delay-label" text-anchor="middle">d:707.1</text>
<circle cx="360.0" cy="280.0" r="4" fill="#2196F3" stroke="#333" stroke-width="1"/>
<text x="360.0" y="271.0" class="node-label" text-anchor="middle">s5</text>
<text x="360.0" y="296.0" class="delay-label" text-anchor="middle">d:545.1</text>
<circle cx="320.0" cy="440.0" r="4" fill="#2196F3" stroke="#333" stroke-width="1"/>
<text x="320.0" y="431.0" class="node-label" text-anchor="middle">n2</text>
<text x="320.0" y="456.0" class="delay-label" text-anchor="middle">d:435.1</text>
<circle cx="280.0" cy="440.0" r="4" fill="#2196F3" stroke="#333" stroke-width="1"/>
<text x="280.0" y="431.0" class="node-label" text-anchor="middle">s3</text>
<text x="280.0" y="456.0" class="delay-label" text-anchor="middle">d:441.1</text>
<circle cx="360.0" cy="440.0" r="6" fill="#4CAF50" stroke="#333" stroke-width="1"/>
<text x="360.0" y="429.0" class="node-label" text-anchor="middle">s4</text>
<text x="360.0" y="458.0" class="delay-label" text-anchor="middle">d:441.1</text>
<text x="360.0" y="468.0" class="delay-label" text-anchor="middle">c:1.0</text>
<g class="analysis-info">
<rect x="10" y="10" width="220" height="140" fill="white" stroke="#ccc" stroke-width="1" rx="5"/>
<rect x="10" y="10" width="220" height="20" fill="#f0f0f0" stroke="#ccc" stroke-width="1" rx="5"/>
<text x="20" y="25" font-family="sans-serif" font-size="12" font-weight="bold" fill="#333">Clock Tree Analysis</text>
<text x="20" y="45" font-family="monospace" font-size="11" fill="#333">
<tspan x="20" y="61">Delay Model: ElmoreDelayCalculator</tspan>
<tspan x="20" y="77">Max Delay: 1012.890</tspan>
<tspan x="20" y="93">Min Delay: 441.090</tspan>
<tspan x="20" y="109">Skew: 571.800</tspan>
<tspan x="20" y="125">Total Wirelength: 1526.0</tspan>
<tspan x="20" y="141">Sinks: 8</tspan>
</text>
</g>
</g>
</svg>