<svg xmlns="http://www.w3.org/2000/svg" width="800" height="600"><style>.node-label{font:10px sans-serif;fill:#333}.delay-label{font:8px sans-serif;fill:#666}.wire-label{font:9px sans-serif;fill:#444}</style><rect width="100%" height="100%" fill="#fff"/><g class="clock-tree"><line x1="543.59" x2="601.923" y1="319.231" y2="332.692" stroke="#666" stroke-linecap="round" stroke-width="2"/><text x="572.756" y="320.962" class="wire-label" text-anchor="middle">16.0</text><line x1="601.923" x2="198.077" y1="332.692" y2="108.333" stroke="#666" stroke-linecap="round" stroke-width="2"/><text x="400" y="215.513" class="wire-label" text-anchor="middle">140.0</text><line x1="601.923" x2="377.564" y1="332.692" y2="108.333" stroke="#666" stroke-linecap="round" stroke-width="2"/><text x="489.744" y="215.513" class="wire-label" text-anchor="middle">100.0</text><line x1="543.59" x2="601.923" y1="319.231" y2="332.692" stroke="#666" stroke-linecap="round" stroke-width="2"/><text x="572.756" y="320.962" class="wire-label" text-anchor="middle">16.0</text><line x1="601.923" x2="332.692" y1="332.692" y2="332.692" stroke="#666" stroke-linecap="round" stroke-width="2"/><text x="467.308" y="327.692" class="wire-label" text-anchor="middle">60.0</text><line x1="601.923" x2="601.923" y1="332.692" y2="332.692" stroke="#666" stroke-linecap="round" stroke-width="2"/><line x1="601.923" x2="512.179" y1="332.692" y2="332.692" stroke="#666" stroke-linecap="round" stroke-width="2"/><text x="557.051" y="327.692" class="wire-label" text-anchor="middle">20.0</text><line x1="601.923" x2="691.667" y1="332.692" y2="332.692" stroke="#666" stroke-linecap="round" stroke-width="2"/><text x="646.795" y="327.692" class="wire-label" text-anchor="middle">20.0</text><circle cx="543.59" cy="319.231" r="10" fill="#F44336" stroke="#333" stroke-width="1"/><text x="543.59" y="304.231" class="node-label" text-anchor="middle">n5</text><text x="543.59" y="341.231" class="delay-label" text-anchor="middle">d:0.0</text><circle cx="601.923" cy="332.692" r="6" fill="#2196F3" stroke="#333" stroke-width="1"/><text x="601.923" y="321.692" class="node-label" text-anchor="middle">n2</text><text x="601.923" y="350.692" class="delay-label" text-anchor="middle">d:18.6</text><circle cx="198.077" cy="108.333" r="6" fill="#2196F3" stroke="#333" stroke-width="1"/><text x="198.077" y="97.333" class="node-label" text-anchor="middle">s1</text><text x="198.077" y="126.333" class="delay-label" text-anchor="middle">d:228.6</text><circle cx="377.564" cy="108.333" r="6" fill="#2196F3" stroke="#333" stroke-width="1"/><text x="377.564" y="97.333" class="node-label" text-anchor="middle">s2</text><text x="377.564" y="126.333" class="delay-label" text-anchor="middle">d:128.6</text><circle cx="601.923" cy="332.692" r="6" fill="#2196F3" stroke="#333" stroke-width="1"/><text x="601.923" y="321.692" class="node-label" text-anchor="middle">n3</text><text x="601.923" y="350.692" class="delay-label" text-anchor="middle">d:39.4</text><circle cx="332.692" cy="332.692" r="6" fill="#2196F3" stroke="#333" stroke-width="1"/><text x="332.692" y="321.692" class="node-label" text-anchor="middle">s3</text><text x="332.692" y="350.692" class="delay-label" text-anchor="middle">d:81.4</text><circle cx="601.923" cy="332.692" r="6" fill="#2196F3" stroke="#333" stroke-width="1"/><text x="601.923" y="321.692" class="node-label" text-anchor="middle">n2</text><text x="601.923" y="350.692" class="delay-label" text-anchor="middle">d:39.4</text><circle cx="512.179" cy="332.692" r="6" fill="#2196F3" stroke="#333" stroke-width="1"/><text x="512.179" y="321.692" class="node-label" text-anchor="middle">s4</text><text x="512.179" y="350.692" class="delay-label" text-anchor="middle">d:45.4</text><circle cx="691.667" cy="332.692" r="6" fill="#2196F3" stroke="#333" stroke-width="1"/><text x="691.667" y="321.692" class="node-label" text-anchor="middle">s5</text><text x="691.667" y="350.692" class="delay-label" text-anchor="middle">d:45.4</text></g></svg>