<svg xmlns="http://www.w3.org/2000/svg" width="800" height="400"><style>.node-label{font:8px sans-serif;fill:#333}.delay-label{font:7px sans-serif;fill:#666}.title{font:14px sans-serif;fill:#333;font-weight:700}</style><rect width="100%" height="100%" fill="#fff"/><text x="200" y="20" class="title" text-anchor="middle">Linear Model</text><g transform="translate(10, 40)"><circle cx="290" cy="240" r="8" fill="#F44336" stroke="#333" stroke-width="1"/><text x="290" y="227" class="node-label" text-anchor="middle">root1</text><text x="290" y="260" class="delay-label" text-anchor="middle">d:0.0</text><g class="analysis-info"><rect width="220" height="140" x="10" y="10" fill="#fff" stroke="#ccc" stroke-width="1" rx="5"/><rect width="220" height="20" x="10" y="10" fill="#f0f0f0" stroke="#ccc" stroke-width="1" rx="5"/><text x="20" y="25" fill="#333" font-family="sans-serif" font-size="12" font-weight="bold">Clock Tree Analysis</text><text x="20" y="45" fill="#333" font-family="monospace" font-size="11"><tspan x="20" y="61">Delay Model: Unknown</tspan> <tspan x="20" y="77">Max Delay: 5.000</tspan> <tspan x="20" y="93">Min Delay: 0.000</tspan> <tspan x="20" y="109">Skew: 0.100</tspan> <tspan x="20" y="125">Total Wirelength: 100.0</tspan> <tspan x="20" y="141">Sinks: 0</tspan></text></g></g><text x="600" y="20" class="title" text-anchor="middle">Elmore Model</text><g transform="translate(410, 40)"><circle cx="315" cy="118.571" r="8" fill="#F44336" stroke="#333" stroke-width="1"/><text x="315" y="105.571" class="node-label" text-anchor="middle">root2</text><text x="315" y="138.571" class="delay-label" text-anchor="middle">d:0.0</text><g class="analysis-info"><rect width="220" height="140" x="10" y="10" fill="#fff" stroke="#ccc" stroke-width="1" rx="5"/><rect width="220" height="20" x="10" y="10" fill="#f0f0f0" stroke="#ccc" stroke-width="1" rx="5"/><text x="20" y="25" fill="#333" font-family="sans-serif" font-size="12" font-weight="bold">Clock Tree Analysis</text><text x="20" y="45" fill="#333" font-family="monospace" font-size="11"><tspan x="20" y="61">Delay Model: Unknown</tspan> <tspan x="20" y="77">Max Delay: 5.000</tspan> <tspan x="20" y="93">Min Delay: 0.000</tspan> <tspan x="20" y="109">Skew: 0.100</tspan> <tspan x="20" y="125">Total Wirelength: 100.0</tspan> <tspan x="20" y="141">Sinks: 0</tspan></text></g></g></svg>