<svg xmlns="http://www.w3.org/2000/svg" width="1200" height="600"><style>.node-label{font:8px sans-serif;fill:#333}.delay-label{font:7px sans-serif;fill:#666}.title{font:14px sans-serif;fill:#333;font-weight:700}</style><rect width="100%" height="100%" fill="#fff"/><text x="300" y="20" class="title" text-anchor="middle">Linear Delay Model</text><g transform="translate(10, 40)"><line x1="203.194" x2="210.139" y1="255.278" y2="206.667" stroke="#666" stroke-linecap="round" stroke-width="2"/><text x="206.667" y="225.972" class="wire-label" text-anchor="middle">16.0</text><line x1="210.139" x2="116.389" y1="206.667" y2="185.833" stroke="#666" stroke-linecap="round" stroke-width="2"/><text x="163.264" y="191.25" class="wire-label" text-anchor="middle">33.0</text><line x1="116.389" x2="81.667" y1="185.833" y2="116.389" stroke="#666" stroke-linecap="round" stroke-width="2"/><text x="99.028" y="146.111" class="wire-label" text-anchor="middle">30.0</text><line x1="116.389" x2="81.667" y1="185.833" y2="255.278" stroke="#666" stroke-linecap="round" stroke-width="2"/><text x="99.028" y="215.556" class="wire-label" text-anchor="middle">30.0</text><line x1="210.139" x2="307.361" y1="206.667" y2="151.111" stroke="#666" stroke-linecap="round" stroke-width="2"/><text x="258.75" y="173.889" class="wire-label" text-anchor="middle">44.0</text><line x1="307.361" x2="324.722" y1="151.111" y2="81.667" stroke="#666" stroke-linecap="round" stroke-width="2"/><text x="316.042" y="111.389" class="wire-label" text-anchor="middle">25.0</text><line x1="307.361" x2="359.444" y1="151.111" y2="185.833" stroke="#666" stroke-linecap="round" stroke-width="2"/><text x="333.403" y="163.472" class="wire-label" text-anchor="middle">25.0</text><line x1="203.194" x2="262.222" y1="255.278" y2="296.944" stroke="#666" stroke-linecap="round" stroke-width="2"/><text x="232.708" y="271.111" class="wire-label" text-anchor="middle">29.0</text><line x1="262.222" x2="185.833" y1="296.944" y2="376.806" stroke="#666" stroke-linecap="round" stroke-width="2"/><text x="224.028" y="331.875" class="wire-label" text-anchor="middle">45.0</text><line x1="185.833" x2="81.667" y1="376.806" y2="394.167" stroke="#666" stroke-linecap="round" stroke-width="2"/><text x="133.75" y="380.486" class="wire-label" text-anchor="middle">35.0</text><line x1="185.833" x2="220.556" y1="376.806" y2="463.611" stroke="#666" stroke-linecap="round" stroke-width="2"/><text x="203.194" y="415.208" class="wire-label" text-anchor="middle">35.0</text><line x1="262.222" x2="428.889" y1="296.944" y2="324.722" stroke="#666" stroke-linecap="round" stroke-width="2"/><text x="345.556" y="305.833" class="wire-label" text-anchor="middle">56.0</text><line x1="428.889" x2="498.333" y1="324.722" y2="324.722" stroke="#666" stroke-linecap="round" stroke-width="2"/><text x="463.611" y="319.722" class="wire-label" text-anchor="middle">20.0</text><line x1="428.889" x2="428.889" y1="324.722" y2="394.167" stroke="#666" stroke-linecap="round" stroke-width="2"/><text x="428.889" y="354.444" class="wire-label" text-anchor="middle">20.0</text><circle cx="203.194" cy="255.278" r="8" fill="#F44336" stroke="#333" stroke-width="1"/><text x="203.194" y="242.278" class="node-label" text-anchor="middle">n6</text><text x="203.194" y="275.278" class="delay-label" text-anchor="middle">d:0.0</text><circle cx="210.139" cy="206.667" r="4" fill="#2196F3" stroke="#333" stroke-width="1"/><text x="210.139" y="197.667" class="node-label" text-anchor="middle">n2</text><text x="210.139" y="222.667" class="delay-label" text-anchor="middle">d:8.0</text><circle cx="116.389" cy="185.833" r="4" fill="#2196F3" stroke="#333" stroke-width="1"/><text x="116.389" y="176.833" class="node-label" text-anchor="middle">n0</text><text x="116.389" y="201.833" class="delay-label" text-anchor="middle">d:24.5</text><circle cx="81.667" cy="116.389" r="6" fill="#4CAF50" stroke="#333" stroke-width="1"/><text x="81.667" y="105.389" class="node-label" text-anchor="middle">s7</text><text x="81.667" y="134.389" class="delay-label" text-anchor="middle">d:39.5</text><text x="81.667" y="144.389" class="delay-label" text-anchor="middle">c:1.0</text><circle cx="81.667" cy="255.278" r="6" fill="#4CAF50" stroke="#333" stroke-width="1"/><text x="81.667" y="244.278" class="node-label" text-anchor="middle">s8</text><text x="81.667" y="273.278" class="delay-label" text-anchor="middle">d:39.5</text><text x="81.667" y="283.278" class="delay-label" text-anchor="middle">c:1.0</text><circle cx="307.361" cy="151.111" r="4" fill="#2196F3" stroke="#333" stroke-width="1"/><text x="307.361" y="142.111" class="node-label" text-anchor="middle">n1</text><text x="307.361" y="167.111" class="delay-label" text-anchor="middle">d:30.0</text><circle cx="324.722" cy="81.667" r="6" fill="#4CAF50" stroke="#333" stroke-width="1"/><text x="324.722" y="70.667" class="node-label" text-anchor="middle">s6</text><text x="324.722" y="99.667" class="delay-label" text-anchor="middle">d:42.5</text><text x="324.722" y="109.667" class="delay-label" text-anchor="middle">c:1.0</text><circle cx="359.444" cy="185.833" r="6" fill="#4CAF50" stroke="#333" stroke-width="1"/><text x="359.444" y="174.833" class="node-label" text-anchor="middle">s5</text><text x="359.444" y="203.833" class="delay-label" text-anchor="middle">d:42.5</text><text x="359.444" y="213.833" class="delay-label" text-anchor="middle">c:1.0</text><circle cx="262.222" cy="296.944" r="4" fill="#2196F3" stroke="#333" stroke-width="1"/><text x="262.222" y="287.944" class="node-label" text-anchor="middle">n5</text><text x="262.222" y="312.944" class="delay-label" text-anchor="middle">d:14.5</text><circle cx="185.833" cy="376.806" r="4" fill="#2196F3" stroke="#333" stroke-width="1"/><text x="185.833" y="367.806" class="node-label" text-anchor="middle">n3</text><text x="185.833" y="392.806" class="delay-label" text-anchor="middle">d:37.0</text><circle cx="81.667" cy="394.167" r="6" fill="#4CAF50" stroke="#333" stroke-width="1"/><text x="81.667" y="383.167" class="node-label" text-anchor="middle">s1</text><text x="81.667" y="412.167" class="delay-label" text-anchor="middle">d:54.5</text><text x="81.667" y="422.167" class="delay-label" text-anchor="middle">c:1.0</text><circle cx="220.556" cy="463.611" r="6" fill="#4CAF50" stroke="#333" stroke-width="1"/><text x="220.556" y="452.611" class="node-label" text-anchor="middle">s2</text><text x="220.556" y="481.611" class="delay-label" text-anchor="middle">d:54.5</text><text x="220.556" y="491.611" class="delay-label" text-anchor="middle">c:1.0</text><circle cx="428.889" cy="324.722" r="4" fill="#2196F3" stroke="#333" stroke-width="1"/><text x="428.889" y="315.722" class="node-label" text-anchor="middle">n4</text><text x="428.889" y="340.722" class="delay-label" text-anchor="middle">d:42.5</text><circle cx="498.333" cy="324.722" r="6" fill="#4CAF50" stroke="#333" stroke-width="1"/><text x="498.333" y="313.722" class="node-label" text-anchor="middle">s4</text><text x="498.333" y="342.722" class="delay-label" text-anchor="middle">d:52.5</text><text x="498.333" y="352.722" class="delay-label" text-anchor="middle">c:1.0</text><circle cx="428.889" cy="394.167" r="6" fill="#4CAF50" stroke="#333" stroke-width="1"/><text x="428.889" y="383.167" class="node-label" text-anchor="middle">s3</text><text x="428.889" y="412.167" class="delay-label" text-anchor="middle">d:52.5</text><text x="428.889" y="422.167" class="delay-label" text-anchor="middle">c:1.0</text><g class="analysis-info"><rect width="220" height="140" x="10" y="10" fill="#fff" stroke="#ccc" stroke-width="1" rx="5"/><rect width="220" height="20" x="10" y="10" fill="#f0f0f0" stroke="#ccc" stroke-width="1" rx="5"/><text x="20" y="25" fill="#333" font-family="sans-serif" font-size="12" font-weight="bold">Clock Tree Analysis</text><text x="20" y="45" fill="#333" font-family="monospace" font-size="11"><tspan x="20" y="61">Delay Model: LinearDelayCalculator</tspan> <tspan x="20" y="77">Max Delay: 54.500</tspan> <tspan x="20" y="93">Min Delay: 39.500</tspan> <tspan x="20" y="109">Skew: 15.000</tspan> <tspan x="20" y="125">Total Wirelength: 443.0</tspan> <tspan x="20" y="141">Sinks: 8</tspan></text></g></g><text x="900" y="20" class="title" text-anchor="middle">Elmore Delay Model</text><g transform="translate(610, 40)"><line x1="199.722" x2="206.667" y1="248.333" y2="203.194" stroke="#666" stroke-linecap="round" stroke-width="2"/><text x="203.194" y="220.764" class="wire-label" text-anchor="middle">15.0</text><line x1="206.667" x2="116.389" y1="203.194" y2="185.833" stroke="#666" stroke-linecap="round" stroke-width="2"/><text x="161.528" y="189.514" class="wire-label" text-anchor="middle">31.0</text><line x1="116.389" x2="81.667" y1="185.833" y2="116.389" stroke="#666" stroke-linecap="round" stroke-width="2"/><text x="99.028" y="146.111" class="wire-label" text-anchor="middle">30.0</text><line x1="116.389" x2="81.667" y1="185.833" y2="255.278" stroke="#666" stroke-linecap="round" stroke-width="2"/><text x="99.028" y="215.556" class="wire-label" text-anchor="middle">30.0</text><line x1="206.667" x2="307.361" y1="203.194" y2="151.111" stroke="#666" stroke-linecap="round" stroke-width="2"/><text x="257.014" y="172.153" class="wire-label" text-anchor="middle">44.0</text><line x1="307.361" x2="324.722" y1="151.111" y2="81.667" stroke="#666" stroke-linecap="round" stroke-width="2"/><text x="316.042" y="111.389" class="wire-label" text-anchor="middle">25.0</text><line x1="307.361" x2="359.444" y1="151.111" y2="185.833" stroke="#666" stroke-linecap="round" stroke-width="2"/><text x="333.403" y="163.472" class="wire-label" text-anchor="middle">25.0</text><line x1="199.722" x2="258.75" y1="248.333" y2="293.472" stroke="#666" stroke-linecap="round" stroke-width="2"/><text x="229.236" y="265.903" class="wire-label" text-anchor="middle">30.0</text><line x1="258.75" x2="185.833" y1="293.472" y2="376.806" stroke="#666" stroke-linecap="round" stroke-width="2"/><text x="222.292" y="330.139" class="wire-label" text-anchor="middle">45.0</text><line x1="185.833" x2="81.667" y1="376.806" y2="394.167" stroke="#666" stroke-linecap="round" stroke-width="2"/><text x="133.75" y="380.486" class="wire-label" text-anchor="middle">35.0</text><line x1="185.833" x2="220.556" y1="376.806" y2="463.611" stroke="#666" stroke-linecap="round" stroke-width="2"/><text x="203.194" y="415.208" class="wire-label" text-anchor="middle">35.0</text><line x1="258.75" x2="428.889" y1="293.472" y2="324.722" stroke="#666" stroke-linecap="round" stroke-width="2"/><text x="343.819" y="304.097" class="wire-label" text-anchor="middle">58.0</text><line x1="428.889" x2="498.333" y1="324.722" y2="324.722" stroke="#666" stroke-linecap="round" stroke-width="2"/><text x="463.611" y="319.722" class="wire-label" text-anchor="middle">20.0</text><line x1="428.889" x2="428.889" y1="324.722" y2="394.167" stroke="#666" stroke-linecap="round" stroke-width="2"/><text x="428.889" y="354.444" class="wire-label" text-anchor="middle">20.0</text><circle cx="199.722" cy="248.333" r="8" fill="#F44336" stroke="#333" stroke-width="1"/><text x="199.722" y="235.333" class="node-label" text-anchor="middle">n6</text><text x="199.722" y="268.333" class="delay-label" text-anchor="middle">d:0.0</text><circle cx="206.667" cy="203.194" r="4" fill="#2196F3" stroke="#333" stroke-width="1"/><text x="206.667" y="194.194" class="node-label" text-anchor="middle">n2</text><text x="206.667" y="219.194" class="delay-label" text-anchor="middle">d:51.8</text><circle cx="116.389" cy="185.833" r="4" fill="#2196F3" stroke="#333" stroke-width="1"/><text x="116.389" y="176.833" class="node-label" text-anchor="middle">n0</text><text x="116.389" y="201.833" class="delay-label" text-anchor="middle">d:92.4</text><circle cx="81.667" cy="116.389" r="6" fill="#4CAF50" stroke="#333" stroke-width="1"/><text x="81.667" y="105.389" class="node-label" text-anchor="middle">s7</text><text x="81.667" y="134.389" class="delay-label" text-anchor="middle">d:104.4</text><text x="81.667" y="144.389" class="delay-label" text-anchor="middle">c:1.0</text><circle cx="81.667" cy="255.278" r="6" fill="#4CAF50" stroke="#333" stroke-width="1"/><text x="81.667" y="244.278" class="node-label" text-anchor="middle">s8</text><text x="81.667" y="273.278" class="delay-label" text-anchor="middle">d:104.4</text><text x="81.667" y="283.278" class="delay-label" text-anchor="middle">c:1.0</text><circle cx="307.361" cy="151.111" r="4" fill="#2196F3" stroke="#333" stroke-width="1"/><text x="307.361" y="142.111" class="node-label" text-anchor="middle">n1</text><text x="307.361" y="167.111" class="delay-label" text-anchor="middle">d:115.1</text><circle cx="324.722" cy="81.667" r="6" fill="#4CAF50" stroke="#333" stroke-width="1"/><text x="324.722" y="70.667" class="node-label" text-anchor="middle">s6</text><text x="324.722" y="99.667" class="delay-label" text-anchor="middle">d:123.9</text><text x="324.722" y="109.667" class="delay-label" text-anchor="middle">c:1.0</text><circle cx="359.444" cy="185.833" r="6" fill="#4CAF50" stroke="#333" stroke-width="1"/><text x="359.444" y="174.833" class="node-label" text-anchor="middle">s5</text><text x="359.444" y="203.833" class="delay-label" text-anchor="middle">d:123.9</text><text x="359.444" y="213.833" class="delay-label" text-anchor="middle">c:1.0</text><circle cx="258.75" cy="293.472" r="4" fill="#2196F3" stroke="#333" stroke-width="1"/><text x="258.75" y="284.472" class="node-label" text-anchor="middle">n5</text><text x="258.75" y="309.472" class="delay-label" text-anchor="middle">d:129.0</text><circle cx="185.833" cy="376.806" r="4" fill="#2196F3" stroke="#333" stroke-width="1"/><text x="185.833" y="367.806" class="node-label" text-anchor="middle">n3</text><text x="185.833" y="392.806" class="delay-label" text-anchor="middle">d:212.2</text><circle cx="81.667" cy="394.167" r="6" fill="#4CAF50" stroke="#333" stroke-width="1"/><text x="81.667" y="383.167" class="node-label" text-anchor="middle">s1</text><text x="81.667" y="412.167" class="delay-label" text-anchor="middle">d:228.0</text><text x="81.667" y="422.167" class="delay-label" text-anchor="middle">c:1.0</text><circle cx="220.556" cy="463.611" r="6" fill="#4CAF50" stroke="#333" stroke-width="1"/><text x="220.556" y="452.611" class="node-label" text-anchor="middle">s2</text><text x="220.556" y="481.611" class="delay-label" text-anchor="middle">d:228.0</text><text x="220.556" y="491.611" class="delay-label" text-anchor="middle">c:1.0</text><circle cx="428.889" cy="324.722" r="4" fill="#2196F3" stroke="#333" stroke-width="1"/><text x="428.889" y="315.722" class="node-label" text-anchor="middle">n4</text><text x="428.889" y="340.722" class="delay-label" text-anchor="middle">d:220.6</text><circle cx="498.333" cy="324.722" r="6" fill="#4CAF50" stroke="#333" stroke-width="1"/><text x="498.333" y="313.722" class="node-label" text-anchor="middle">s4</text><text x="498.333" y="342.722" class="delay-label" text-anchor="middle">d:226.6</text><text x="498.333" y="352.722" class="delay-label" text-anchor="middle">c:1.0</text><circle cx="428.889" cy="394.167" r="6" fill="#4CAF50" stroke="#333" stroke-width="1"/><text x="428.889" y="383.167" class="node-label" text-anchor="middle">s3</text><text x="428.889" y="412.167" class="delay-label" text-anchor="middle">d:226.6</text><text x="428.889" y="422.167" class="delay-label" text-anchor="middle">c:1.0</text><g class="analysis-info"><rect width="220" height="140" x="10" y="10" fill="#fff" stroke="#ccc" stroke-width="1" rx="5"/><rect width="220" height="20" x="10" y="10" fill="#f0f0f0" stroke="#ccc" stroke-width="1" rx="5"/><text x="20" y="25" fill="#333" font-family="sans-serif" font-size="12" font-weight="bold">Clock Tree Analysis</text><text x="20" y="45" fill="#333" font-family="monospace" font-size="11"><tspan x="20" y="61">Delay Model: ElmoreDelayCalculator</tspan> <tspan x="20" y="77">Max Delay: 228.000</tspan> <tspan x="20" y="93">Min Delay: 104.360</tspan> <tspan x="20" y="109">Skew: 123.640</tspan> <tspan x="20" y="125">Total Wirelength: 443.0</tspan> <tspan x="20" y="141">Sinks: 8</tspan></text></g></g></svg>