<svg xmlns="http://www.w3.org/2000/svg" width="1200" height="600"><style>.node-label{font:8px sans-serif;fill:#333}.delay-label{font:7px sans-serif;fill:#666}.title{font:14px sans-serif;fill:#333;font-weight:700}</style><rect width="100%" height="100%" fill="#fff"/><text x="300" y="20" class="title" text-anchor="middle">Linear Delay Model</text><g transform="translate(10, 40)"><line x1="255.278" x2="220.556" y1="272.639" y2="185.833" stroke="#666" stroke-linecap="round" stroke-width="2"/><text x="237.917" y="224.236" class="wire-label" text-anchor="middle">35.0</text><line x1="220.556" x2="81.667" y1="185.833" y2="185.833" stroke="#666" stroke-linecap="round" stroke-width="2"/><text x="151.111" y="180.833" class="wire-label" text-anchor="middle">40.0</text><line x1="81.667" x2="81.667" y1="185.833" y2="116.389" stroke="#666" stroke-linecap="round" stroke-width="2"/><text x="81.667" y="146.111" class="wire-label" text-anchor="middle">20.0</text><line x1="81.667" x2="81.667" y1="185.833" y2="255.278" stroke="#666" stroke-linecap="round" stroke-width="2"/><text x="81.667" y="215.556" class="wire-label" text-anchor="middle">20.0</text><line x1="220.556" x2="324.722" y1="185.833" y2="151.111" stroke="#666" stroke-linecap="round" stroke-width="2"/><text x="272.639" y="163.472" class="wire-label" text-anchor="middle">40.0</text><line x1="324.722" x2="324.722" y1="151.111" y2="81.667" stroke="#666" stroke-linecap="round" stroke-width="2"/><text x="324.722" y="111.389" class="wire-label" text-anchor="middle">20.0</text><line x1="324.722" x2="359.444" y1="151.111" y2="185.833" stroke="#666" stroke-linecap="round" stroke-width="2"/><text x="342.083" y="163.472" class="wire-label" text-anchor="middle">20.0</text><line x1="255.278" x2="255.278" y1="272.639" y2="324.722" stroke="#666" stroke-linecap="round" stroke-width="2"/><text x="255.278" y="293.681" class="wire-label" text-anchor="middle">15.0</text><line x1="255.278" x2="185.833" y1="324.722" y2="394.167" stroke="#666" stroke-linecap="round" stroke-width="2"/><text x="220.556" y="354.444" class="wire-label" text-anchor="middle">40.0</text><line x1="185.833" x2="81.667" y1="394.167" y2="394.167" stroke="#666" stroke-linecap="round" stroke-width="2"/><text x="133.75" y="389.167" class="wire-label" text-anchor="middle">30.0</text><line x1="185.833" x2="220.556" y1="394.167" y2="463.611" stroke="#666" stroke-linecap="round" stroke-width="2"/><text x="203.194" y="423.889" class="wire-label" text-anchor="middle">30.0</text><line x1="255.278" x2="428.889" y1="324.722" y2="324.722" stroke="#666" stroke-linecap="round" stroke-width="2"/><text x="342.083" y="319.722" class="wire-label" text-anchor="middle">50.0</text><line x1="428.889" x2="498.333" y1="324.722" y2="324.722" stroke="#666" stroke-linecap="round" stroke-width="2"/><text x="463.611" y="319.722" class="wire-label" text-anchor="middle">20.0</text><line x1="428.889" x2="428.889" y1="324.722" y2="394.167" stroke="#666" stroke-linecap="round" stroke-width="2"/><text x="428.889" y="354.444" class="wire-label" text-anchor="middle">20.0</text><circle cx="255.278" cy="272.639" r="8" fill="#F44336" stroke="#333" stroke-width="1"/><text x="255.278" y="259.639" class="node-label" text-anchor="middle">n6</text><text x="255.278" y="292.639" class="delay-label" text-anchor="middle">d:0.0</text><circle cx="220.556" cy="185.833" r="4" fill="#2196F3" stroke="#333" stroke-width="1"/><text x="220.556" y="176.833" class="node-label" text-anchor="middle">n2</text><text x="220.556" y="201.833" class="delay-label" text-anchor="middle">d:17.5</text><circle cx="81.667" cy="185.833" r="4" fill="#2196F3" stroke="#333" stroke-width="1"/><text x="81.667" y="176.833" class="node-label" text-anchor="middle">n0</text><text x="81.667" y="201.833" class="delay-label" text-anchor="middle">d:37.5</text><circle cx="81.667" cy="116.389" r="6" fill="#4CAF50" stroke="#333" stroke-width="1"/><text x="81.667" y="105.389" class="node-label" text-anchor="middle">s7</text><text x="81.667" y="134.389" class="delay-label" text-anchor="middle">d:47.5</text><text x="81.667" y="144.389" class="delay-label" text-anchor="middle">c:1.0</text><circle cx="81.667" cy="255.278" r="6" fill="#4CAF50" stroke="#333" stroke-width="1"/><text x="81.667" y="244.278" class="node-label" text-anchor="middle">s8</text><text x="81.667" y="273.278" class="delay-label" text-anchor="middle">d:47.5</text><text x="81.667" y="283.278" class="delay-label" text-anchor="middle">c:1.0</text><circle cx="324.722" cy="151.111" r="4" fill="#2196F3" stroke="#333" stroke-width="1"/><text x="324.722" y="142.111" class="node-label" text-anchor="middle">n1</text><text x="324.722" y="167.111" class="delay-label" text-anchor="middle">d:37.5</text><circle cx="324.722" cy="81.667" r="6" fill="#4CAF50" stroke="#333" stroke-width="1"/><text x="324.722" y="70.667" class="node-label" text-anchor="middle">s6</text><text x="324.722" y="99.667" class="delay-label" text-anchor="middle">d:47.5</text><text x="324.722" y="109.667" class="delay-label" text-anchor="middle">c:1.0</text><circle cx="359.444" cy="185.833" r="6" fill="#4CAF50" stroke="#333" stroke-width="1"/><text x="359.444" y="174.833" class="node-label" text-anchor="middle">s5</text><text x="359.444" y="203.833" class="delay-label" text-anchor="middle">d:47.5</text><text x="359.444" y="213.833" class="delay-label" text-anchor="middle">c:1.0</text><circle cx="255.278" cy="324.722" r="4" fill="#2196F3" stroke="#333" stroke-width="1"/><text x="255.278" y="315.722" class="node-label" text-anchor="middle">n5</text><text x="255.278" y="340.722" class="delay-label" text-anchor="middle">d:7.5</text><circle cx="185.833" cy="394.167" r="4" fill="#2196F3" stroke="#333" stroke-width="1"/><text x="185.833" y="385.167" class="node-label" text-anchor="middle">n3</text><text x="185.833" y="410.167" class="delay-label" text-anchor="middle">d:27.5</text><circle cx="81.667" cy="394.167" r="6" fill="#4CAF50" stroke="#333" stroke-width="1"/><text x="81.667" y="383.167" class="node-label" text-anchor="middle">s1</text><text x="81.667" y="412.167" class="delay-label" text-anchor="middle">d:42.5</text><text x="81.667" y="422.167" class="delay-label" text-anchor="middle">c:1.0</text><circle cx="220.556" cy="463.611" r="6" fill="#4CAF50" stroke="#333" stroke-width="1"/><text x="220.556" y="452.611" class="node-label" text-anchor="middle">s2</text><text x="220.556" y="481.611" class="delay-label" text-anchor="middle">d:42.5</text><text x="220.556" y="491.611" class="delay-label" text-anchor="middle">c:1.0</text><circle cx="428.889" cy="324.722" r="4" fill="#2196F3" stroke="#333" stroke-width="1"/><text x="428.889" y="315.722" class="node-label" text-anchor="middle">n4</text><text x="428.889" y="340.722" class="delay-label" text-anchor="middle">d:32.5</text><circle cx="498.333" cy="324.722" r="6" fill="#4CAF50" stroke="#333" stroke-width="1"/><text x="498.333" y="313.722" class="node-label" text-anchor="middle">s4</text><text x="498.333" y="342.722" class="delay-label" text-anchor="middle">d:42.5</text><text x="498.333" y="352.722" class="delay-label" text-anchor="middle">c:1.0</text><circle cx="428.889" cy="394.167" r="6" fill="#4CAF50" stroke="#333" stroke-width="1"/><text x="428.889" y="383.167" class="node-label" text-anchor="middle">s3</text><text x="428.889" y="412.167" class="delay-label" text-anchor="middle">d:42.5</text><text x="428.889" y="422.167" class="delay-label" text-anchor="middle">c:1.0</text><g class="analysis-info"><rect width="220" height="140" x="10" y="10" fill="#fff" stroke="#ccc" stroke-width="1" rx="5"/><rect width="220" height="20" x="10" y="10" fill="#f0f0f0" stroke="#ccc" stroke-width="1" rx="5"/><text x="20" y="25" fill="#333" font-family="sans-serif" font-size="12" font-weight="bold">Clock Tree Analysis</text><text x="20" y="45" fill="#333" font-family="monospace" font-size="11"><tspan x="20" y="61">Delay Model: LinearDelayCalculator</tspan> <tspan x="20" y="77">Max Delay: 47.500</tspan> <tspan x="20" y="93">Min Delay: 42.500</tspan> <tspan x="20" y="109">Skew: 5.000</tspan> <tspan x="20" y="125">Total Wirelength: 400.0</tspan> <tspan x="20" y="141">Sinks: 8</tspan></text></g></g><text x="900" y="20" class="title" text-anchor="middle">Elmore Delay Model</text><g transform="translate(610, 40)"><line x1="255.278" x2="220.556" y1="272.639" y2="185.833" stroke="#666" stroke-linecap="round" stroke-width="2"/><text x="237.917" y="224.236" class="wire-label" text-anchor="middle">35.0</text><line x1="220.556" x2="81.667" y1="185.833" y2="185.833" stroke="#666" stroke-linecap="round" stroke-width="2"/><text x="151.111" y="180.833" class="wire-label" text-anchor="middle">40.0</text><line x1="81.667" x2="81.667" y1="185.833" y2="116.389" stroke="#666" stroke-linecap="round" stroke-width="2"/><text x="81.667" y="146.111" class="wire-label" text-anchor="middle">20.0</text><line x1="81.667" x2="81.667" y1="185.833" y2="255.278" stroke="#666" stroke-linecap="round" stroke-width="2"/><text x="81.667" y="215.556" class="wire-label" text-anchor="middle">20.0</text><line x1="220.556" x2="324.722" y1="185.833" y2="151.111" stroke="#666" stroke-linecap="round" stroke-width="2"/><text x="272.639" y="163.472" class="wire-label" text-anchor="middle">40.0</text><line x1="324.722" x2="324.722" y1="151.111" y2="81.667" stroke="#666" stroke-linecap="round" stroke-width="2"/><text x="324.722" y="111.389" class="wire-label" text-anchor="middle">20.0</text><line x1="324.722" x2="359.444" y1="151.111" y2="185.833" stroke="#666" stroke-linecap="round" stroke-width="2"/><text x="342.083" y="163.472" class="wire-label" text-anchor="middle">20.0</text><line x1="255.278" x2="255.278" y1="272.639" y2="324.722" stroke="#666" stroke-linecap="round" stroke-width="2"/><text x="255.278" y="293.681" class="wire-label" text-anchor="middle">15.0</text><line x1="255.278" x2="185.833" y1="324.722" y2="394.167" stroke="#666" stroke-linecap="round" stroke-width="2"/><text x="220.556" y="354.444" class="wire-label" text-anchor="middle">40.0</text><line x1="185.833" x2="81.667" y1="394.167" y2="394.167" stroke="#666" stroke-linecap="round" stroke-width="2"/><text x="133.75" y="389.167" class="wire-label" text-anchor="middle">30.0</text><line x1="185.833" x2="220.556" y1="394.167" y2="463.611" stroke="#666" stroke-linecap="round" stroke-width="2"/><text x="203.194" y="423.889" class="wire-label" text-anchor="middle">30.0</text><line x1="255.278" x2="428.889" y1="324.722" y2="324.722" stroke="#666" stroke-linecap="round" stroke-width="2"/><text x="342.083" y="319.722" class="wire-label" text-anchor="middle">50.0</text><line x1="428.889" x2="498.333" y1="324.722" y2="324.722" stroke="#666" stroke-linecap="round" stroke-width="2"/><text x="463.611" y="319.722" class="wire-label" text-anchor="middle">20.0</text><line x1="428.889" x2="428.889" y1="324.722" y2="394.167" stroke="#666" stroke-linecap="round" stroke-width="2"/><text x="428.889" y="354.444" class="wire-label" text-anchor="middle">20.0</text><circle cx="255.278" cy="272.639" r="8" fill="#F44336" stroke="#333" stroke-width="1"/><text x="255.278" y="259.639" class="node-label" text-anchor="middle">n6</text><text x="255.278" y="292.639" class="delay-label" text-anchor="middle">d:0.0</text><circle cx="220.556" cy="185.833" r="4" fill="#2196F3" stroke="#333" stroke-width="1"/><text x="220.556" y="176.833" class="node-label" text-anchor="middle">n2</text><text x="220.556" y="201.833" class="delay-label" text-anchor="middle">d:138.2</text><circle cx="81.667" cy="185.833" r="4" fill="#2196F3" stroke="#333" stroke-width="1"/><text x="81.667" y="176.833" class="node-label" text-anchor="middle">n0</text><text x="81.667" y="201.833" class="delay-label" text-anchor="middle">d:194.2</text><circle cx="81.667" cy="116.389" r="6" fill="#4CAF50" stroke="#333" stroke-width="1"/><text x="81.667" y="105.389" class="node-label" text-anchor="middle">s7</text><text x="81.667" y="134.389" class="delay-label" text-anchor="middle">d:200.2</text><text x="81.667" y="144.389" class="delay-label" text-anchor="middle">c:1.0</text><circle cx="81.667" cy="255.278" r="6" fill="#4CAF50" stroke="#333" stroke-width="1"/><text x="81.667" y="244.278" class="node-label" text-anchor="middle">s8</text><text x="81.667" y="273.278" class="delay-label" text-anchor="middle">d:200.2</text><text x="81.667" y="283.278" class="delay-label" text-anchor="middle">c:1.0</text><circle cx="324.722" cy="151.111" r="4" fill="#2196F3" stroke="#333" stroke-width="1"/><text x="324.722" y="142.111" class="node-label" text-anchor="middle">n1</text><text x="324.722" y="167.111" class="delay-label" text-anchor="middle">d:194.2</text><circle cx="324.722" cy="81.667" r="6" fill="#4CAF50" stroke="#333" stroke-width="1"/><text x="324.722" y="70.667" class="node-label" text-anchor="middle">s6</text><text x="324.722" y="99.667" class="delay-label" text-anchor="middle">d:200.2</text><text x="324.722" y="109.667" class="delay-label" text-anchor="middle">c:1.0</text><circle cx="359.444" cy="185.833" r="6" fill="#4CAF50" stroke="#333" stroke-width="1"/><text x="359.444" y="174.833" class="node-label" text-anchor="middle">s5</text><text x="359.444" y="203.833" class="delay-label" text-anchor="middle">d:200.2</text><text x="359.444" y="213.833" class="delay-label" text-anchor="middle">c:1.0</text><circle cx="255.278" cy="324.722" r="4" fill="#2196F3" stroke="#333" stroke-width="1"/><text x="255.278" y="315.722" class="node-label" text-anchor="middle">n5</text><text x="255.278" y="340.722" class="delay-label" text-anchor="middle">d:65.2</text><circle cx="185.833" cy="394.167" r="4" fill="#2196F3" stroke="#333" stroke-width="1"/><text x="185.833" y="385.167" class="node-label" text-anchor="middle">n3</text><text x="185.833" y="410.167" class="delay-label" text-anchor="middle">d:137.2</text><circle cx="81.667" cy="394.167" r="6" fill="#4CAF50" stroke="#333" stroke-width="1"/><text x="81.667" y="383.167" class="node-label" text-anchor="middle">s1</text><text x="81.667" y="412.167" class="delay-label" text-anchor="middle">d:149.2</text><text x="81.667" y="422.167" class="delay-label" text-anchor="middle">c:1.0</text><circle cx="220.556" cy="463.611" r="6" fill="#4CAF50" stroke="#333" stroke-width="1"/><text x="220.556" y="452.611" class="node-label" text-anchor="middle">s2</text><text x="220.556" y="481.611" class="delay-label" text-anchor="middle">d:149.2</text><text x="220.556" y="491.611" class="delay-label" text-anchor="middle">c:1.0</text><circle cx="428.889" cy="324.722" r="4" fill="#2196F3" stroke="#333" stroke-width="1"/><text x="428.889" y="315.722" class="node-label" text-anchor="middle">n4</text><text x="428.889" y="340.722" class="delay-label" text-anchor="middle">d:140.2</text><circle cx="498.333" cy="324.722" r="6" fill="#4CAF50" stroke="#333" stroke-width="1"/><text x="498.333" y="313.722" class="node-label" text-anchor="middle">s4</text><text x="498.333" y="342.722" class="delay-label" text-anchor="middle">d:146.2</text><text x="498.333" y="352.722" class="delay-label" text-anchor="middle">c:1.0</text><circle cx="428.889" cy="394.167" r="6" fill="#4CAF50" stroke="#333" stroke-width="1"/><text x="428.889" y="383.167" class="node-label" text-anchor="middle">s3</text><text x="428.889" y="412.167" class="delay-label" text-anchor="middle">d:146.2</text><text x="428.889" y="422.167" class="delay-label" text-anchor="middle">c:1.0</text><g class="analysis-info"><rect width="220" height="140" x="10" y="10" fill="#fff" stroke="#ccc" stroke-width="1" rx="5"/><rect width="220" height="20" x="10" y="10" fill="#f0f0f0" stroke="#ccc" stroke-width="1" rx="5"/><text x="20" y="25" fill="#333" font-family="sans-serif" font-size="12" font-weight="bold">Clock Tree Analysis</text><text x="20" y="45" fill="#333" font-family="monospace" font-size="11"><tspan x="20" y="61">Delay Model: ElmoreDelayCalculator</tspan> <tspan x="20" y="77">Max Delay: 200.250</tspan> <tspan x="20" y="93">Min Delay: 146.250</tspan> <tspan x="20" y="109">Skew: 54.000</tspan> <tspan x="20" y="125">Total Wirelength: 400.0</tspan> <tspan x="20" y="141">Sinks: 8</tspan></text></g></g></svg>