<svg xmlns="http://www.w3.org/2000/svg" width="800" height="600"><rect width="100%" height="100%" fill="#fff"/><defs><marker id="arrowhead" markerHeight="7" markerWidth="10" orient="auto" refX="9" refY="3.5"><polygon fill="#000" points="0 0 10 3.5 0 7"/></marker></defs><line x1="342.067" x2="342.067" y1="357.692" y2="396.154" stroke="#000" stroke-width="2" marker-end="url(#arrowhead)"/><line x1="342.067" x2="342.067" y1="357.692" y2="242.308" stroke="#000" stroke-width="2" marker-end="url(#arrowhead)"/><line x1="342.067" x2="488.101" y1="396.154" y2="550" stroke="#000" stroke-width="2" marker-end="url(#arrowhead)"/><line x1="342.067" x2="50" y1="396.154" y2="396.154" stroke="#000" stroke-width="2" marker-end="url(#arrowhead)"/><line x1="342.067" x2="342.067" y1="242.308" y2="88.462" stroke="#000" stroke-width="2" marker-end="url(#arrowhead)"/><line x1="342.067" x2="269.05" y1="242.308" y2="242.308" stroke="#000" stroke-width="2" marker-end="url(#arrowhead)"/><line x1="342.067" x2="123.017" y1="88.462" y2="50" stroke="#000" stroke-width="2" marker-end="url(#arrowhead)"/><line x1="342.067" x2="415.084" y1="88.462" y2="88.462" stroke="#000" stroke-width="2" marker-end="url(#arrowhead)"/><circle cx="342.067" cy="357.692" r="8" fill="red" stroke="#000" stroke-width="1"/><text x="352.067" y="361.692" fill="#000" font-family="Arial" font-size="10">S</text><text x="342.067" y="344.692" fill="gray" font-family="Arial" font-size="8" text-anchor="middle">(1377,1216)</text><circle cx="123.017" cy="50" r="6" fill="green" stroke="#000" stroke-width="1"/><text x="131.017" y="54" fill="#000" font-family="Arial" font-size="10">T1</text><text x="123.017" y="39" fill="gray" font-family="Arial" font-size="8" text-anchor="middle">(648,192)</text><circle cx="342.067" cy="88.462" r="6" fill="#00f" stroke="#000" stroke-width="1"/><text x="350.067" y="92.462" fill="#000" font-family="Arial" font-size="10">S1</text><text x="342.067" y="77.462" fill="gray" font-family="Arial" font-size="8" text-anchor="middle">(1377,320)</text><circle cx="415.084" cy="88.462" r="6" fill="green" stroke="#000" stroke-width="1"/><text x="423.084" y="92.462" fill="#000" font-family="Arial" font-size="10">T2</text><text x="415.084" y="77.462" fill="gray" font-family="Arial" font-size="8" text-anchor="middle">(1620,320)</text><circle cx="488.101" cy="550" r="6" fill="green" stroke="#000" stroke-width="1"/><text x="496.101" y="554" fill="#000" font-family="Arial" font-size="10">T3</text><text x="488.101" y="539" fill="gray" font-family="Arial" font-size="8" text-anchor="middle">(1863,1856)</text><circle cx="342.067" cy="396.154" r="6" fill="#00f" stroke="#000" stroke-width="1"/><text x="350.067" y="400.154" fill="#000" font-family="Arial" font-size="10">S2</text><text x="342.067" y="385.154" fill="gray" font-family="Arial" font-size="8" text-anchor="middle">(1377,1344)</text><circle cx="50" cy="396.154" r="6" fill="green" stroke="#000" stroke-width="1"/><text x="58" y="400.154" fill="#000" font-family="Arial" font-size="10">T4</text><text x="50" y="385.154" fill="gray" font-family="Arial" font-size="8" text-anchor="middle">(405,1344)</text><circle cx="342.067" cy="242.308" r="6" fill="#00f" stroke="#000" stroke-width="1"/><text x="350.067" y="246.308" fill="#000" font-family="Arial" font-size="10">S3</text><text x="342.067" y="231.308" fill="gray" font-family="Arial" font-size="8" text-anchor="middle">(1377,832)</text><circle cx="269.05" cy="242.308" r="6" fill="green" stroke="#000" stroke-width="1"/><text x="277.05" y="246.308" fill="#000" font-family="Arial" font-size="10">T5</text><text x="269.05" y="231.308" fill="gray" font-family="Arial" font-size="8" text-anchor="middle">(1134,832)</text><text x="20" y="20" font-family="Arial" font-size="12" font-weight="bold">Legend:</text><circle cx="20" cy="36" r="4" fill="red" stroke="#000"/><text x="30" y="40" font-family="Arial" font-size="10">Source</text><circle cx="20" cy="56" r="4" fill="#00f" stroke="#000"/><text x="30" y="60" font-family="Arial" font-size="10">Steiner</text><circle cx="20" cy="76" r="4" fill="green" stroke="#000"/><text x="30" y="80" font-family="Arial" font-size="10">Terminal</text><text x="20" y="110" font-family="Arial" font-size="10" font-weight="bold">Statistics:</text><text x="20" y="125" font-family="Arial" font-size="9">Total Nodes: 9</text><text x="20" y="140" font-family="Arial" font-size="9">Terminals: 5</text><text x="20" y="155" font-family="Arial" font-size="9">Steiner: 3</text><text x="20" y="170" font-family="Arial" font-size="9">Wirelength: 4337.00</text></svg>