<svg xmlns="http://www.w3.org/2000/svg" width="800" height="600"><rect width="100%" height="100%" fill="#fff"/><defs><marker id="arrowhead" markerHeight="7" markerWidth="10" orient="auto" refX="9" refY="3.5"><polygon fill="#000" points="0 0 10 3.5 0 7"/></marker></defs><line x1="50" x2="163.582" y1="511.538" y2="396.154" stroke="red" stroke-width="2" marker-end="url(#arrowhead)"/><line x1="163.582" x2="163.582" y1="396.154" y2="396.154" stroke="orange" stroke-width="2" marker-end="url(#arrowhead)"/><line x1="163.582" x2="236.599" y1="396.154" y2="88.462" stroke="red" stroke-width="2" marker-end="url(#arrowhead)"/><line x1="163.582" x2="382.632" y1="396.154" y2="357.692" stroke="orange" stroke-width="2" marker-end="url(#arrowhead)"/><line x1="382.632" x2="455.649" y1="357.692" y2="357.692" stroke="orange" stroke-width="2" marker-end="url(#arrowhead)"/><line x1="382.632" x2="382.632" y1="357.692" y2="242.308" stroke="#00f" stroke-width="2" marker-end="url(#arrowhead)"/><line x1="455.649" x2="601.683" y1="357.692" y2="550" stroke="green" stroke-width="2" marker-end="url(#arrowhead)"/><line x1="236.599" x2="236.599" y1="88.462" y2="50" stroke="red" stroke-width="2" marker-end="url(#arrowhead)"/><line x1="236.599" x2="528.666" y1="88.462" y2="88.462" stroke="red" stroke-width="2" marker-end="url(#arrowhead)"/><line x1="528.666" x2="674.7" y1="88.462" y2="203.846" stroke="#00f" stroke-width="2" marker-end="url(#arrowhead)"/><circle cx="50" cy="511.538" r="8" fill="red" stroke="#000" stroke-width="1"/><text x="60" y="515.538" fill="#000" font-family="Arial" font-size="10">S</text><text x="50" y="498.538" fill="gray" font-family="Arial" font-size="8" text-anchor="middle">(-973,728)</text><circle cx="163.582" cy="396.154" r="6" fill="green" stroke="#000" stroke-width="1"/><text x="171.582" y="400.154" fill="#000" font-family="Arial" font-size="10">T1</text><text x="163.582" y="385.154" fill="gray" font-family="Arial" font-size="8" text-anchor="middle">(-595,344)</text><circle cx="455.649" cy="357.692" r="6" fill="green" stroke="#000" stroke-width="1"/><text x="463.649" y="361.692" fill="#000" font-family="Arial" font-size="10">T2</text><text x="455.649" y="346.692" fill="gray" font-family="Arial" font-size="8" text-anchor="middle">(377,216)</text><circle cx="163.582" cy="396.154" r="6" fill="#00f" stroke="#000" stroke-width="1"/><text x="171.582" y="400.154" fill="#000" font-family="Arial" font-size="10">S1</text><text x="163.582" y="385.154" fill="gray" font-family="Arial" font-size="8" text-anchor="middle">(-595,344)</text><circle cx="236.599" cy="50" r="6" fill="green" stroke="#000" stroke-width="1"/><text x="244.599" y="54" fill="#000" font-family="Arial" font-size="10">T3</text><text x="236.599" y="39" fill="gray" font-family="Arial" font-size="8" text-anchor="middle">(-352,-808)</text><circle cx="382.632" cy="357.692" r="6" fill="#00f" stroke="#000" stroke-width="1"/><text x="390.632" y="361.692" fill="#000" font-family="Arial" font-size="10">S2</text><text x="382.632" y="346.692" fill="gray" font-family="Arial" font-size="8" text-anchor="middle">(134,216)</text><circle cx="382.632" cy="242.308" r="6" fill="green" stroke="#000" stroke-width="1"/><text x="390.632" y="246.308" fill="#000" font-family="Arial" font-size="10">T4</text><text x="382.632" y="231.308" fill="gray" font-family="Arial" font-size="8" text-anchor="middle">(134,-168)</text><circle cx="601.683" cy="550" r="6" fill="green" stroke="#000" stroke-width="1"/><text x="609.683" y="554" fill="#000" font-family="Arial" font-size="10">T5</text><text x="601.683" y="539" fill="gray" font-family="Arial" font-size="8" text-anchor="middle">(863,856)</text><circle cx="236.599" cy="88.462" r="6" fill="#00f" stroke="#000" stroke-width="1"/><text x="244.599" y="92.462" fill="#000" font-family="Arial" font-size="10">S3</text><text x="236.599" y="77.462" fill="gray" font-family="Arial" font-size="8" text-anchor="middle">(-352,-680)</text><circle cx="528.666" cy="88.462" r="6" fill="green" stroke="#000" stroke-width="1"/><text x="536.666" y="92.462" fill="#000" font-family="Arial" font-size="10">T6</text><text x="528.666" y="77.462" fill="gray" font-family="Arial" font-size="8" text-anchor="middle">(620,-680)</text><circle cx="674.7" cy="203.846" r="6" fill="green" stroke="#000" stroke-width="1"/><text x="682.7" y="207.846" fill="#000" font-family="Arial" font-size="10">T7</text><text x="674.7" y="192.846" fill="gray" font-family="Arial" font-size="8" text-anchor="middle">(1106,-296)</text><rect width="90.144" height="150.24" x="522.656" y="292.788" fill="pink" stroke="#000" stroke-width="1"/><rect width="90.144" height="90.144" x="192.127" y="172.596" fill="pink" stroke="#000" stroke-width="1"/><text x="20" y="20" font-family="Arial" font-size="12" font-weight="bold">Legend:</text><circle cx="20" cy="36" r="4" fill="red" stroke="#000"/><text x="30" y="40" font-family="Arial" font-size="10">Source</text><circle cx="20" cy="56" r="4" fill="#00f" stroke="#000"/><text x="30" y="60" font-family="Arial" font-size="10">Steiner</text><circle cx="20" cy="76" r="4" fill="green" stroke="#000"/><text x="30" y="80" font-family="Arial" font-size="10">Terminal</text><text x="20" y="110" font-family="Arial" font-size="10" font-weight="bold">Statistics:</text><text x="20" y="125" font-family="Arial" font-size="9">Total Nodes: 11</text><text x="20" y="140" font-family="Arial" font-size="9">Terminals: 7</text><text x="20" y="155" font-family="Arial" font-size="9">Steiner: 3</text><text x="20" y="170" font-family="Arial" font-size="9">Wirelength: 7209.00</text></svg>