<svg xmlns="http://www.w3.org/2000/svg" width="800" height="600"><rect width="100%" height="100%" fill="#fff"/><defs><marker id="arrowhead" markerHeight="7" markerWidth="10" orient="auto" refX="9" refY="3.5"><polygon fill="#000" points="0 0 10 3.5 0 7"/></marker></defs><line x1="283.333" x2="283.333" y1="50" y2="121.429" stroke="#000" stroke-width="2" marker-end="url(#arrowhead)"/><line x1="283.333" x2="283.333" y1="121.429" y2="407.143" stroke="#000" stroke-width="2" marker-end="url(#arrowhead)"/><line x1="283.333" x2="750" y1="121.429" y2="121.429" stroke="#000" stroke-width="2" marker-end="url(#arrowhead)"/><line x1="283.333" x2="50" y1="407.143" y2="550" stroke="#000" stroke-width="2" marker-end="url(#arrowhead)"/><line x1="283.333" x2="283.333" y1="407.143" y2="407.143" stroke="#000" stroke-width="2" marker-end="url(#arrowhead)"/><circle cx="283.333" cy="50" r="8" fill="red" stroke="#000" stroke-width="1"/><text x="293.333" y="54" fill="#000" font-family="Arial" font-size="10">S</text><text x="283.333" y="37" fill="gray" font-family="Arial" font-size="8" text-anchor="middle">(3,1)</text><circle cx="50" cy="550" r="6" fill="green" stroke="#000" stroke-width="1"/><text x="58" y="554" fill="#000" font-family="Arial" font-size="10">T1</text><text x="50" y="539" fill="gray" font-family="Arial" font-size="8" text-anchor="middle">(2,8)</text><circle cx="283.333" cy="407.143" r="6" fill="#00f" stroke="#000" stroke-width="1"/><text x="291.333" y="411.143" fill="#000" font-family="Arial" font-size="10">S1</text><text x="283.333" y="396.143" fill="gray" font-family="Arial" font-size="8" text-anchor="middle">(3,6)</text><circle cx="283.333" cy="407.143" r="6" fill="green" stroke="#000" stroke-width="1"/><text x="291.333" y="411.143" fill="#000" font-family="Arial" font-size="10">T2</text><text x="283.333" y="396.143" fill="gray" font-family="Arial" font-size="8" text-anchor="middle">(3,6)</text><circle cx="283.333" cy="121.429" r="6" fill="#00f" stroke="#000" stroke-width="1"/><text x="291.333" y="125.429" fill="#000" font-family="Arial" font-size="10">S2</text><text x="283.333" y="110.429" fill="gray" font-family="Arial" font-size="8" text-anchor="middle">(3,2)</text><circle cx="750" cy="121.429" r="6" fill="green" stroke="#000" stroke-width="1"/><text x="758" y="125.429" fill="#000" font-family="Arial" font-size="10">T3</text><text x="750" y="110.429" fill="gray" font-family="Arial" font-size="8" text-anchor="middle">(5,2)</text><text x="20" y="20" font-family="Arial" font-size="12" font-weight="bold">Legend:</text><circle cx="20" cy="36" r="4" fill="red" stroke="#000"/><text x="30" y="40" font-family="Arial" font-size="10">Source</text><circle cx="20" cy="56" r="4" fill="#00f" stroke="#000"/><text x="30" y="60" font-family="Arial" font-size="10">Steiner</text><circle cx="20" cy="76" r="4" fill="green" stroke="#000"/><text x="30" y="80" font-family="Arial" font-size="10">Terminal</text><text x="20" y="110" font-family="Arial" font-size="10" font-weight="bold">Statistics:</text><text x="20" y="125" font-family="Arial" font-size="9">Total Nodes: 6</text><text x="20" y="140" font-family="Arial" font-size="9">Terminals: 3</text><text x="20" y="155" font-family="Arial" font-size="9">Steiner: 2</text><text x="20" y="170" font-family="Arial" font-size="9">Wirelength: 10.00</text></svg>