<svg xmlns="http://www.w3.org/2000/svg" width="800" height="600"><style>.node-label{font:10px sans-serif;fill:#333}.delay-label{font:8px sans-serif;fill:#666}.wire-label{font:9px sans-serif;fill:#444}</style><rect width="100%" height="100%" fill="#fff"/><g class="clock-tree"><line x1="281.343" x2="244.03" y1="300" y2="206.716" stroke="#666" stroke-linecap="round" stroke-width="2"/><text x="262.687" y="248.358" class="wire-label" text-anchor="middle">35.0</text><line x1="244.03" x2="94.776" y1="206.716" y2="206.716" stroke="#666" stroke-linecap="round" stroke-width="2"/><text x="169.403" y="201.716" class="wire-label" text-anchor="middle">40.0</text><line x1="94.776" x2="94.776" y1="206.716" y2="132.09" stroke="#666" stroke-linecap="round" stroke-width="2"/><text x="94.776" y="164.403" class="wire-label" text-anchor="middle">20.0</text><line x1="94.776" x2="94.776" y1="206.716" y2="281.343" stroke="#666" stroke-linecap="round" stroke-width="2"/><text x="94.776" y="239.03" class="wire-label" text-anchor="middle">20.0</text><line x1="244.03" x2="355.97" y1="206.716" y2="169.403" stroke="#666" stroke-linecap="round" stroke-width="2"/><text x="300" y="183.06" class="wire-label" text-anchor="middle">40.0</text><line x1="355.97" x2="355.97" y1="169.403" y2="94.776" stroke="#666" stroke-linecap="round" stroke-width="2"/><text x="355.97" y="127.09" class="wire-label" text-anchor="middle">20.0</text><line x1="355.97" x2="393.284" y1="169.403" y2="206.716" stroke="#666" stroke-linecap="round" stroke-width="2"/><text x="374.627" y="183.06" class="wire-label" text-anchor="middle">20.0</text><line x1="281.343" x2="281.343" y1="300" y2="355.97" stroke="#666" stroke-linecap="round" stroke-width="2"/><text x="281.343" y="322.985" class="wire-label" text-anchor="middle">15.0</text><line x1="281.343" x2="206.716" y1="355.97" y2="430.597" stroke="#666" stroke-linecap="round" stroke-width="2"/><text x="244.03" y="388.284" class="wire-label" text-anchor="middle">40.0</text><line x1="206.716" x2="94.776" y1="430.597" y2="430.597" stroke="#666" stroke-linecap="round" stroke-width="2"/><text x="150.746" y="425.597" class="wire-label" text-anchor="middle">30.0</text><line x1="206.716" x2="244.03" y1="430.597" y2="505.224" stroke="#666" stroke-linecap="round" stroke-width="2"/><text x="225.373" y="462.91" class="wire-label" text-anchor="middle">30.0</text><line x1="281.343" x2="467.91" y1="355.97" y2="355.97" stroke="#666" stroke-linecap="round" stroke-width="2"/><text x="374.627" y="350.97" class="wire-label" text-anchor="middle">50.0</text><line x1="467.91" x2="542.537" y1="355.97" y2="355.97" stroke="#666" stroke-linecap="round" stroke-width="2"/><text x="505.224" y="350.97" class="wire-label" text-anchor="middle">20.0</text><line x1="467.91" x2="467.91" y1="355.97" y2="430.597" stroke="#666" stroke-linecap="round" stroke-width="2"/><text x="467.91" y="388.284" class="wire-label" text-anchor="middle">20.0</text><circle cx="281.343" cy="300" r="10" fill="#F44336" stroke="#333" stroke-width="1"/><text x="281.343" y="285" class="node-label" text-anchor="middle">n6</text><text x="281.343" y="322" class="delay-label" text-anchor="middle">d:0.0</text><circle cx="244.03" cy="206.716" r="6" fill="#2196F3" stroke="#333" stroke-width="1"/><text x="244.03" y="195.716" class="node-label" text-anchor="middle">n2</text><text x="244.03" y="224.716" class="delay-label" text-anchor="middle">d:17.5</text><circle cx="94.776" cy="206.716" r="6" fill="#2196F3" stroke="#333" stroke-width="1"/><text x="94.776" y="195.716" class="node-label" text-anchor="middle">n0</text><text x="94.776" y="224.716" class="delay-label" text-anchor="middle">d:37.5</text><circle cx="94.776" cy="132.09" r="8" fill="#4CAF50" stroke="#333" stroke-width="1"/><text x="94.776" y="119.09" class="node-label" text-anchor="middle">s7</text><text x="94.776" y="152.09" class="delay-label" text-anchor="middle">d:47.5</text><text x="94.776" y="162.09" class="delay-label" text-anchor="middle">c:1.0</text><circle cx="94.776" cy="281.343" r="8" fill="#4CAF50" stroke="#333" stroke-width="1"/><text x="94.776" y="268.343" class="node-label" text-anchor="middle">s8</text><text x="94.776" y="301.343" class="delay-label" text-anchor="middle">d:47.5</text><text x="94.776" y="311.343" class="delay-label" text-anchor="middle">c:1.0</text><circle cx="355.97" cy="169.403" r="6" fill="#2196F3" stroke="#333" stroke-width="1"/><text x="355.97" y="158.403" class="node-label" text-anchor="middle">n1</text><text x="355.97" y="187.403" class="delay-label" text-anchor="middle">d:37.5</text><circle cx="355.97" cy="94.776" r="8" fill="#4CAF50" stroke="#333" stroke-width="1"/><text x="355.97" y="81.776" class="node-label" text-anchor="middle">s6</text><text x="355.97" y="114.776" class="delay-label" text-anchor="middle">d:47.5</text><text x="355.97" y="124.776" class="delay-label" text-anchor="middle">c:1.0</text><circle cx="393.284" cy="206.716" r="8" fill="#4CAF50" stroke="#333" stroke-width="1"/><text x="393.284" y="193.716" class="node-label" text-anchor="middle">s5</text><text x="393.284" y="226.716" class="delay-label" text-anchor="middle">d:47.5</text><text x="393.284" y="236.716" class="delay-label" text-anchor="middle">c:1.0</text><circle cx="281.343" cy="355.97" r="6" fill="#2196F3" stroke="#333" stroke-width="1"/><text x="281.343" y="344.97" class="node-label" text-anchor="middle">n5</text><text x="281.343" y="373.97" class="delay-label" text-anchor="middle">d:7.5</text><circle cx="206.716" cy="430.597" r="6" fill="#2196F3" stroke="#333" stroke-width="1"/><text x="206.716" y="419.597" class="node-label" text-anchor="middle">n3</text><text x="206.716" y="448.597" class="delay-label" text-anchor="middle">d:27.5</text><circle cx="94.776" cy="430.597" r="8" fill="#4CAF50" stroke="#333" stroke-width="1"/><text x="94.776" y="417.597" class="node-label" text-anchor="middle">s1</text><text x="94.776" y="450.597" class="delay-label" text-anchor="middle">d:42.5</text><text x="94.776" y="460.597" class="delay-label" text-anchor="middle">c:1.0</text><circle cx="244.03" cy="505.224" r="8" fill="#4CAF50" stroke="#333" stroke-width="1"/><text x="244.03" y="492.224" class="node-label" text-anchor="middle">s2</text><text x="244.03" y="525.224" class="delay-label" text-anchor="middle">d:42.5</text><text x="244.03" y="535.224" class="delay-label" text-anchor="middle">c:1.0</text><circle cx="467.91" cy="355.97" r="6" fill="#2196F3" stroke="#333" stroke-width="1"/><text x="467.91" y="344.97" class="node-label" text-anchor="middle">n4</text><text x="467.91" y="373.97" class="delay-label" text-anchor="middle">d:32.5</text><circle cx="542.537" cy="355.97" r="8" fill="#4CAF50" stroke="#333" stroke-width="1"/><text x="542.537" y="342.97" class="node-label" text-anchor="middle">s4</text><text x="542.537" y="375.97" class="delay-label" text-anchor="middle">d:42.5</text><text x="542.537" y="385.97" class="delay-label" text-anchor="middle">c:1.0</text><circle cx="467.91" cy="430.597" r="8" fill="#4CAF50" stroke="#333" stroke-width="1"/><text x="467.91" y="417.597" class="node-label" text-anchor="middle">s3</text><text x="467.91" y="450.597" class="delay-label" text-anchor="middle">d:42.5</text><text x="467.91" y="460.597" class="delay-label" text-anchor="middle">c:1.0</text><g class="analysis-info"><rect width="220" height="140" x="10" y="10" fill="#fff" stroke="#ccc" stroke-width="1" rx="5"/><rect width="220" height="20" x="10" y="10" fill="#f0f0f0" stroke="#ccc" stroke-width="1" rx="5"/><text x="20" y="25" fill="#333" font-family="sans-serif" font-size="12" font-weight="bold">Clock Tree Analysis</text><text x="20" y="45" fill="#333" font-family="monospace" font-size="11"><tspan x="20" y="61">Delay Model: LinearDelayCalculator</tspan> <tspan x="20" y="77">Max Delay: 47.500</tspan> <tspan x="20" y="93">Min Delay: 42.500</tspan> <tspan x="20" y="109">Skew: 5.000</tspan> <tspan x="20" y="125">Total Wirelength: 400.0</tspan> <tspan x="20" y="141">Sinks: 8</tspan></text></g></g></svg>