<svg xmlns="http://www.w3.org/2000/svg" viewBox="0 0 2187 2048"><polygon fill="#88C0D0" stroke="#000" points="1944 128 1458 512 972 256 810 640 729 1024 486 768 324 384 81 1152 1053 1408 243 1536 1215 1792 1539 1664 1701 1280" opacity=".5"/><circle cx="1944" cy="128" r="10"/><circle cx="1458" cy="512" r="10"/><circle cx="972" cy="256" r="10"/><circle cx="810" cy="640" r="10"/><circle cx="729" cy="1024" r="10"/><circle cx="486" cy="768" r="10"/><circle cx="324" cy="384" r="10"/><circle cx="81" cy="1152" r="10"/><circle cx="1053" cy="1408" r="10"/><circle cx="243" cy="1536" r="10"/><circle cx="1215" cy="1792" r="10"/><circle cx="1539" cy="1664" r="10"/><circle cx="1701" cy="1280" r="10"/><polygon fill="#C0D088" stroke="#000" points="81 1152 243 1536 1215 1792 1539 1664 1701 1280 1944 128 1458 512 972 256 810 640 729 1024 486 768 324 384" opacity=".5"/></svg>